<?xml version="1.0" encoding="utf-8" standalone="no"?>
<!DOCTYPE svg PUBLIC "-//W3C//DTD SVG 1.1//EN"
  "http://www.w3.org/Graphics/SVG/1.1/DTD/svg11.dtd">
<!-- Created with matplotlib (http://matplotlib.org/) -->
<svg height="345.6pt" version="1.1" viewBox="0 0 460.8 345.6" width="460.8pt" xmlns="http://www.w3.org/2000/svg" xmlns:xlink="http://www.w3.org/1999/xlink">
 <defs>
  <style type="text/css">
*{stroke-linecap:butt;stroke-linejoin:round;}
  </style>
 </defs>
 <g id="figure_1">
  <g id="patch_1">
   <path d="M 0 345.6 
L 460.8 345.6 
L 460.8 0 
L 0 0 
z
" style="fill:#ffffff;"/>
  </g>
  <g id="axes_1">
   <g id="patch_2">
    <path d="M 57.6 307.584 
L 414.72 307.584 
L 414.72 41.472 
L 57.6 41.472 
z
" style="fill:#e5e5e5;"/>
   </g>
   <g id="matplotlib.axis_1">
    <g id="xtick_1">
     <g id="line2d_1">
      <path clip-path="url(#p47b77133cb)" d="M 88.531455 307.584 
L 88.531455 41.472 
" style="fill:none;stroke:#ffffff;stroke-linecap:square;stroke-width:0.8;"/>
     </g>
     <g id="line2d_2">
      <defs>
       <path d="M 0 0 
L 0 3.5 
" id="mce921cf2fd" style="stroke:#555555;stroke-width:0.8;"/>
      </defs>
      <g>
       <use style="fill:#555555;stroke:#555555;stroke-width:0.8;" x="88.531455" xlink:href="#mce921cf2fd" y="307.584"/>
      </g>
     </g>
     <g id="text_1">
      <!-- 2006-10 -->
      <defs>
       <path d="M 19.1875 8.296875 
L 53.609375 8.296875 
L 53.609375 0 
L 7.328125 0 
L 7.328125 8.296875 
Q 12.9375 14.109375 22.625 23.890625 
Q 32.328125 33.6875 34.8125 36.53125 
Q 39.546875 41.84375 41.421875 45.53125 
Q 43.3125 49.21875 43.3125 52.78125 
Q 43.3125 58.59375 39.234375 62.25 
Q 35.15625 65.921875 28.609375 65.921875 
Q 23.96875 65.921875 18.8125 64.3125 
Q 13.671875 62.703125 7.8125 59.421875 
L 7.8125 69.390625 
Q 13.765625 71.78125 18.9375 73 
Q 24.125 74.21875 28.421875 74.21875 
Q 39.75 74.21875 46.484375 68.546875 
Q 53.21875 62.890625 53.21875 53.421875 
Q 53.21875 48.921875 51.53125 44.890625 
Q 49.859375 40.875 45.40625 35.40625 
Q 44.1875 33.984375 37.640625 27.21875 
Q 31.109375 20.453125 19.1875 8.296875 
z
" id="DejaVuSans-32"/>
       <path d="M 31.78125 66.40625 
Q 24.171875 66.40625 20.328125 58.90625 
Q 16.5 51.421875 16.5 36.375 
Q 16.5 21.390625 20.328125 13.890625 
Q 24.171875 6.390625 31.78125 6.390625 
Q 39.453125 6.390625 43.28125 13.890625 
Q 47.125 21.390625 47.125 36.375 
Q 47.125 51.421875 43.28125 58.90625 
Q 39.453125 66.40625 31.78125 66.40625 
z
M 31.78125 74.21875 
Q 44.046875 74.21875 50.515625 64.515625 
Q 56.984375 54.828125 56.984375 36.375 
Q 56.984375 17.96875 50.515625 8.265625 
Q 44.046875 -1.421875 31.78125 -1.421875 
Q 19.53125 -1.421875 13.0625 8.265625 
Q 6.59375 17.96875 6.59375 36.375 
Q 6.59375 54.828125 13.0625 64.515625 
Q 19.53125 74.21875 31.78125 74.21875 
z
" id="DejaVuSans-30"/>
       <path d="M 33.015625 40.375 
Q 26.375 40.375 22.484375 35.828125 
Q 18.609375 31.296875 18.609375 23.390625 
Q 18.609375 15.53125 22.484375 10.953125 
Q 26.375 6.390625 33.015625 6.390625 
Q 39.65625 6.390625 43.53125 10.953125 
Q 47.40625 15.53125 47.40625 23.390625 
Q 47.40625 31.296875 43.53125 35.828125 
Q 39.65625 40.375 33.015625 40.375 
z
M 52.59375 71.296875 
L 52.59375 62.3125 
Q 48.875 64.0625 45.09375 64.984375 
Q 41.3125 65.921875 37.59375 65.921875 
Q 27.828125 65.921875 22.671875 59.328125 
Q 17.53125 52.734375 16.796875 39.40625 
Q 19.671875 43.65625 24.015625 45.921875 
Q 28.375 48.1875 33.59375 48.1875 
Q 44.578125 48.1875 50.953125 41.515625 
Q 57.328125 34.859375 57.328125 23.390625 
Q 57.328125 12.15625 50.6875 5.359375 
Q 44.046875 -1.421875 33.015625 -1.421875 
Q 20.359375 -1.421875 13.671875 8.265625 
Q 6.984375 17.96875 6.984375 36.375 
Q 6.984375 53.65625 15.1875 63.9375 
Q 23.390625 74.21875 37.203125 74.21875 
Q 40.921875 74.21875 44.703125 73.484375 
Q 48.484375 72.75 52.59375 71.296875 
z
" id="DejaVuSans-36"/>
       <path d="M 4.890625 31.390625 
L 31.203125 31.390625 
L 31.203125 23.390625 
L 4.890625 23.390625 
z
" id="DejaVuSans-2d"/>
       <path d="M 12.40625 8.296875 
L 28.515625 8.296875 
L 28.515625 63.921875 
L 10.984375 60.40625 
L 10.984375 69.390625 
L 28.421875 72.90625 
L 38.28125 72.90625 
L 38.28125 8.296875 
L 54.390625 8.296875 
L 54.390625 0 
L 12.40625 0 
z
" id="DejaVuSans-31"/>
      </defs>
      <g style="fill:#555555;" transform="translate(51.306634 342.055846)rotate(-30)scale(0.1 -0.1)">
       <use xlink:href="#DejaVuSans-32"/>
       <use x="63.623047" xlink:href="#DejaVuSans-30"/>
       <use x="127.246094" xlink:href="#DejaVuSans-30"/>
       <use x="190.869141" xlink:href="#DejaVuSans-36"/>
       <use x="254.492188" xlink:href="#DejaVuSans-2d"/>
       <use x="290.576172" xlink:href="#DejaVuSans-31"/>
       <use x="354.199219" xlink:href="#DejaVuSans-30"/>
      </g>
     </g>
    </g>
    <g id="xtick_2">
     <g id="line2d_3">
      <path clip-path="url(#p47b77133cb)" d="M 124.258839 307.584 
L 124.258839 41.472 
" style="fill:none;stroke:#ffffff;stroke-linecap:square;stroke-width:0.8;"/>
     </g>
     <g id="line2d_4">
      <g>
       <use style="fill:#555555;stroke:#555555;stroke-width:0.8;" x="124.258839" xlink:href="#mce921cf2fd" y="307.584"/>
      </g>
     </g>
     <g id="text_2">
      <!-- 2007-01 -->
      <defs>
       <path d="M 8.203125 72.90625 
L 55.078125 72.90625 
L 55.078125 68.703125 
L 28.609375 0 
L 18.3125 0 
L 43.21875 64.59375 
L 8.203125 64.59375 
z
" id="DejaVuSans-37"/>
      </defs>
      <g style="fill:#555555;" transform="translate(87.034018 342.055846)rotate(-30)scale(0.1 -0.1)">
       <use xlink:href="#DejaVuSans-32"/>
       <use x="63.623047" xlink:href="#DejaVuSans-30"/>
       <use x="127.246094" xlink:href="#DejaVuSans-30"/>
       <use x="190.869141" xlink:href="#DejaVuSans-37"/>
       <use x="254.492188" xlink:href="#DejaVuSans-2d"/>
       <use x="290.576172" xlink:href="#DejaVuSans-30"/>
       <use x="354.199219" xlink:href="#DejaVuSans-31"/>
      </g>
     </g>
    </g>
    <g id="xtick_3">
     <g id="line2d_5">
      <path clip-path="url(#p47b77133cb)" d="M 159.20954 307.584 
L 159.20954 41.472 
" style="fill:none;stroke:#ffffff;stroke-linecap:square;stroke-width:0.8;"/>
     </g>
     <g id="line2d_6">
      <g>
       <use style="fill:#555555;stroke:#555555;stroke-width:0.8;" x="159.20954" xlink:href="#mce921cf2fd" y="307.584"/>
      </g>
     </g>
     <g id="text_3">
      <!-- 2007-04 -->
      <defs>
       <path d="M 37.796875 64.3125 
L 12.890625 25.390625 
L 37.796875 25.390625 
z
M 35.203125 72.90625 
L 47.609375 72.90625 
L 47.609375 25.390625 
L 58.015625 25.390625 
L 58.015625 17.1875 
L 47.609375 17.1875 
L 47.609375 0 
L 37.796875 0 
L 37.796875 17.1875 
L 4.890625 17.1875 
L 4.890625 26.703125 
z
" id="DejaVuSans-34"/>
      </defs>
      <g style="fill:#555555;" transform="translate(121.984719 342.055846)rotate(-30)scale(0.1 -0.1)">
       <use xlink:href="#DejaVuSans-32"/>
       <use x="63.623047" xlink:href="#DejaVuSans-30"/>
       <use x="127.246094" xlink:href="#DejaVuSans-30"/>
       <use x="190.869141" xlink:href="#DejaVuSans-37"/>
       <use x="254.492188" xlink:href="#DejaVuSans-2d"/>
       <use x="290.576172" xlink:href="#DejaVuSans-30"/>
       <use x="354.199219" xlink:href="#DejaVuSans-34"/>
      </g>
     </g>
    </g>
    <g id="xtick_4">
     <g id="line2d_7">
      <path clip-path="url(#p47b77133cb)" d="M 194.548583 307.584 
L 194.548583 41.472 
" style="fill:none;stroke:#ffffff;stroke-linecap:square;stroke-width:0.8;"/>
     </g>
     <g id="line2d_8">
      <g>
       <use style="fill:#555555;stroke:#555555;stroke-width:0.8;" x="194.548583" xlink:href="#mce921cf2fd" y="307.584"/>
      </g>
     </g>
     <g id="text_4">
      <!-- 2007-07 -->
      <g style="fill:#555555;" transform="translate(157.323762 342.055846)rotate(-30)scale(0.1 -0.1)">
       <use xlink:href="#DejaVuSans-32"/>
       <use x="63.623047" xlink:href="#DejaVuSans-30"/>
       <use x="127.246094" xlink:href="#DejaVuSans-30"/>
       <use x="190.869141" xlink:href="#DejaVuSans-37"/>
       <use x="254.492188" xlink:href="#DejaVuSans-2d"/>
       <use x="290.576172" xlink:href="#DejaVuSans-30"/>
       <use x="354.199219" xlink:href="#DejaVuSans-37"/>
      </g>
     </g>
    </g>
    <g id="xtick_5">
     <g id="line2d_9">
      <path clip-path="url(#p47b77133cb)" d="M 230.275967 307.584 
L 230.275967 41.472 
" style="fill:none;stroke:#ffffff;stroke-linecap:square;stroke-width:0.8;"/>
     </g>
     <g id="line2d_10">
      <g>
       <use style="fill:#555555;stroke:#555555;stroke-width:0.8;" x="230.275967" xlink:href="#mce921cf2fd" y="307.584"/>
      </g>
     </g>
     <g id="text_5">
      <!-- 2007-10 -->
      <g style="fill:#555555;" transform="translate(193.051146 342.055846)rotate(-30)scale(0.1 -0.1)">
       <use xlink:href="#DejaVuSans-32"/>
       <use x="63.623047" xlink:href="#DejaVuSans-30"/>
       <use x="127.246094" xlink:href="#DejaVuSans-30"/>
       <use x="190.869141" xlink:href="#DejaVuSans-37"/>
       <use x="254.492188" xlink:href="#DejaVuSans-2d"/>
       <use x="290.576172" xlink:href="#DejaVuSans-31"/>
       <use x="354.199219" xlink:href="#DejaVuSans-30"/>
      </g>
     </g>
    </g>
    <g id="xtick_6">
     <g id="line2d_11">
      <path clip-path="url(#p47b77133cb)" d="M 266.003351 307.584 
L 266.003351 41.472 
" style="fill:none;stroke:#ffffff;stroke-linecap:square;stroke-width:0.8;"/>
     </g>
     <g id="line2d_12">
      <g>
       <use style="fill:#555555;stroke:#555555;stroke-width:0.8;" x="266.003351" xlink:href="#mce921cf2fd" y="307.584"/>
      </g>
     </g>
     <g id="text_6">
      <!-- 2008-01 -->
      <defs>
       <path d="M 31.78125 34.625 
Q 24.75 34.625 20.71875 30.859375 
Q 16.703125 27.09375 16.703125 20.515625 
Q 16.703125 13.921875 20.71875 10.15625 
Q 24.75 6.390625 31.78125 6.390625 
Q 38.8125 6.390625 42.859375 10.171875 
Q 46.921875 13.96875 46.921875 20.515625 
Q 46.921875 27.09375 42.890625 30.859375 
Q 38.875 34.625 31.78125 34.625 
z
M 21.921875 38.8125 
Q 15.578125 40.375 12.03125 44.71875 
Q 8.5 49.078125 8.5 55.328125 
Q 8.5 64.0625 14.71875 69.140625 
Q 20.953125 74.21875 31.78125 74.21875 
Q 42.671875 74.21875 48.875 69.140625 
Q 55.078125 64.0625 55.078125 55.328125 
Q 55.078125 49.078125 51.53125 44.71875 
Q 48 40.375 41.703125 38.8125 
Q 48.828125 37.15625 52.796875 32.3125 
Q 56.78125 27.484375 56.78125 20.515625 
Q 56.78125 9.90625 50.3125 4.234375 
Q 43.84375 -1.421875 31.78125 -1.421875 
Q 19.734375 -1.421875 13.25 4.234375 
Q 6.78125 9.90625 6.78125 20.515625 
Q 6.78125 27.484375 10.78125 32.3125 
Q 14.796875 37.15625 21.921875 38.8125 
z
M 18.3125 54.390625 
Q 18.3125 48.734375 21.84375 45.5625 
Q 25.390625 42.390625 31.78125 42.390625 
Q 38.140625 42.390625 41.71875 45.5625 
Q 45.3125 48.734375 45.3125 54.390625 
Q 45.3125 60.0625 41.71875 63.234375 
Q 38.140625 66.40625 31.78125 66.40625 
Q 25.390625 66.40625 21.84375 63.234375 
Q 18.3125 60.0625 18.3125 54.390625 
z
" id="DejaVuSans-38"/>
      </defs>
      <g style="fill:#555555;" transform="translate(228.77853 342.055846)rotate(-30)scale(0.1 -0.1)">
       <use xlink:href="#DejaVuSans-32"/>
       <use x="63.623047" xlink:href="#DejaVuSans-30"/>
       <use x="127.246094" xlink:href="#DejaVuSans-30"/>
       <use x="190.869141" xlink:href="#DejaVuSans-38"/>
       <use x="254.492188" xlink:href="#DejaVuSans-2d"/>
       <use x="290.576172" xlink:href="#DejaVuSans-30"/>
       <use x="354.199219" xlink:href="#DejaVuSans-31"/>
      </g>
     </g>
    </g>
    <g id="xtick_7">
     <g id="line2d_13">
      <path clip-path="url(#p47b77133cb)" d="M 301.342393 307.584 
L 301.342393 41.472 
" style="fill:none;stroke:#ffffff;stroke-linecap:square;stroke-width:0.8;"/>
     </g>
     <g id="line2d_14">
      <g>
       <use style="fill:#555555;stroke:#555555;stroke-width:0.8;" x="301.342393" xlink:href="#mce921cf2fd" y="307.584"/>
      </g>
     </g>
     <g id="text_7">
      <!-- 2008-04 -->
      <g style="fill:#555555;" transform="translate(264.117572 342.055846)rotate(-30)scale(0.1 -0.1)">
       <use xlink:href="#DejaVuSans-32"/>
       <use x="63.623047" xlink:href="#DejaVuSans-30"/>
       <use x="127.246094" xlink:href="#DejaVuSans-30"/>
       <use x="190.869141" xlink:href="#DejaVuSans-38"/>
       <use x="254.492188" xlink:href="#DejaVuSans-2d"/>
       <use x="290.576172" xlink:href="#DejaVuSans-30"/>
       <use x="354.199219" xlink:href="#DejaVuSans-34"/>
      </g>
     </g>
    </g>
    <g id="xtick_8">
     <g id="line2d_15">
      <path clip-path="url(#p47b77133cb)" d="M 336.681436 307.584 
L 336.681436 41.472 
" style="fill:none;stroke:#ffffff;stroke-linecap:square;stroke-width:0.8;"/>
     </g>
     <g id="line2d_16">
      <g>
       <use style="fill:#555555;stroke:#555555;stroke-width:0.8;" x="336.681436" xlink:href="#mce921cf2fd" y="307.584"/>
      </g>
     </g>
     <g id="text_8">
      <!-- 2008-07 -->
      <g style="fill:#555555;" transform="translate(299.456615 342.055846)rotate(-30)scale(0.1 -0.1)">
       <use xlink:href="#DejaVuSans-32"/>
       <use x="63.623047" xlink:href="#DejaVuSans-30"/>
       <use x="127.246094" xlink:href="#DejaVuSans-30"/>
       <use x="190.869141" xlink:href="#DejaVuSans-38"/>
       <use x="254.492188" xlink:href="#DejaVuSans-2d"/>
       <use x="290.576172" xlink:href="#DejaVuSans-30"/>
       <use x="354.199219" xlink:href="#DejaVuSans-37"/>
      </g>
     </g>
    </g>
    <g id="xtick_9">
     <g id="line2d_17">
      <path clip-path="url(#p47b77133cb)" d="M 372.40882 307.584 
L 372.40882 41.472 
" style="fill:none;stroke:#ffffff;stroke-linecap:square;stroke-width:0.8;"/>
     </g>
     <g id="line2d_18">
      <g>
       <use style="fill:#555555;stroke:#555555;stroke-width:0.8;" x="372.40882" xlink:href="#mce921cf2fd" y="307.584"/>
      </g>
     </g>
     <g id="text_9">
      <!-- 2008-10 -->
      <g style="fill:#555555;" transform="translate(335.183999 342.055846)rotate(-30)scale(0.1 -0.1)">
       <use xlink:href="#DejaVuSans-32"/>
       <use x="63.623047" xlink:href="#DejaVuSans-30"/>
       <use x="127.246094" xlink:href="#DejaVuSans-30"/>
       <use x="190.869141" xlink:href="#DejaVuSans-38"/>
       <use x="254.492188" xlink:href="#DejaVuSans-2d"/>
       <use x="290.576172" xlink:href="#DejaVuSans-31"/>
       <use x="354.199219" xlink:href="#DejaVuSans-30"/>
      </g>
     </g>
    </g>
    <g id="xtick_10">
     <g id="line2d_19">
      <path clip-path="url(#p47b77133cb)" d="M 408.136204 307.584 
L 408.136204 41.472 
" style="fill:none;stroke:#ffffff;stroke-linecap:square;stroke-width:0.8;"/>
     </g>
     <g id="line2d_20">
      <g>
       <use style="fill:#555555;stroke:#555555;stroke-width:0.8;" x="408.136204" xlink:href="#mce921cf2fd" y="307.584"/>
      </g>
     </g>
     <g id="text_10">
      <!-- 2009-01 -->
      <defs>
       <path d="M 10.984375 1.515625 
L 10.984375 10.5 
Q 14.703125 8.734375 18.5 7.8125 
Q 22.3125 6.890625 25.984375 6.890625 
Q 35.75 6.890625 40.890625 13.453125 
Q 46.046875 20.015625 46.78125 33.40625 
Q 43.953125 29.203125 39.59375 26.953125 
Q 35.25 24.703125 29.984375 24.703125 
Q 19.046875 24.703125 12.671875 31.3125 
Q 6.296875 37.9375 6.296875 49.421875 
Q 6.296875 60.640625 12.9375 67.421875 
Q 19.578125 74.21875 30.609375 74.21875 
Q 43.265625 74.21875 49.921875 64.515625 
Q 56.59375 54.828125 56.59375 36.375 
Q 56.59375 19.140625 48.40625 8.859375 
Q 40.234375 -1.421875 26.421875 -1.421875 
Q 22.703125 -1.421875 18.890625 -0.6875 
Q 15.09375 0.046875 10.984375 1.515625 
z
M 30.609375 32.421875 
Q 37.25 32.421875 41.125 36.953125 
Q 45.015625 41.5 45.015625 49.421875 
Q 45.015625 57.28125 41.125 61.84375 
Q 37.25 66.40625 30.609375 66.40625 
Q 23.96875 66.40625 20.09375 61.84375 
Q 16.21875 57.28125 16.21875 49.421875 
Q 16.21875 41.5 20.09375 36.953125 
Q 23.96875 32.421875 30.609375 32.421875 
z
" id="DejaVuSans-39"/>
      </defs>
      <g style="fill:#555555;" transform="translate(370.911383 342.055846)rotate(-30)scale(0.1 -0.1)">
       <use xlink:href="#DejaVuSans-32"/>
       <use x="63.623047" xlink:href="#DejaVuSans-30"/>
       <use x="127.246094" xlink:href="#DejaVuSans-30"/>
       <use x="190.869141" xlink:href="#DejaVuSans-39"/>
       <use x="254.492188" xlink:href="#DejaVuSans-2d"/>
       <use x="290.576172" xlink:href="#DejaVuSans-30"/>
       <use x="354.199219" xlink:href="#DejaVuSans-31"/>
      </g>
     </g>
    </g>
    <g id="text_11">
     <!-- date -->
     <defs>
      <path d="M 45.40625 46.390625 
L 45.40625 75.984375 
L 54.390625 75.984375 
L 54.390625 0 
L 45.40625 0 
L 45.40625 8.203125 
Q 42.578125 3.328125 38.25 0.953125 
Q 33.9375 -1.421875 27.875 -1.421875 
Q 17.96875 -1.421875 11.734375 6.484375 
Q 5.515625 14.40625 5.515625 27.296875 
Q 5.515625 40.1875 11.734375 48.09375 
Q 17.96875 56 27.875 56 
Q 33.9375 56 38.25 53.625 
Q 42.578125 51.265625 45.40625 46.390625 
z
M 14.796875 27.296875 
Q 14.796875 17.390625 18.875 11.75 
Q 22.953125 6.109375 30.078125 6.109375 
Q 37.203125 6.109375 41.296875 11.75 
Q 45.40625 17.390625 45.40625 27.296875 
Q 45.40625 37.203125 41.296875 42.84375 
Q 37.203125 48.484375 30.078125 48.484375 
Q 22.953125 48.484375 18.875 42.84375 
Q 14.796875 37.203125 14.796875 27.296875 
z
" id="DejaVuSans-64"/>
      <path d="M 34.28125 27.484375 
Q 23.390625 27.484375 19.1875 25 
Q 14.984375 22.515625 14.984375 16.5 
Q 14.984375 11.71875 18.140625 8.90625 
Q 21.296875 6.109375 26.703125 6.109375 
Q 34.1875 6.109375 38.703125 11.40625 
Q 43.21875 16.703125 43.21875 25.484375 
L 43.21875 27.484375 
z
M 52.203125 31.203125 
L 52.203125 0 
L 43.21875 0 
L 43.21875 8.296875 
Q 40.140625 3.328125 35.546875 0.953125 
Q 30.953125 -1.421875 24.3125 -1.421875 
Q 15.921875 -1.421875 10.953125 3.296875 
Q 6 8.015625 6 15.921875 
Q 6 25.140625 12.171875 29.828125 
Q 18.359375 34.515625 30.609375 34.515625 
L 43.21875 34.515625 
L 43.21875 35.40625 
Q 43.21875 41.609375 39.140625 45 
Q 35.0625 48.390625 27.6875 48.390625 
Q 23 48.390625 18.546875 47.265625 
Q 14.109375 46.140625 10.015625 43.890625 
L 10.015625 52.203125 
Q 14.9375 54.109375 19.578125 55.046875 
Q 24.21875 56 28.609375 56 
Q 40.484375 56 46.34375 49.84375 
Q 52.203125 43.703125 52.203125 31.203125 
z
" id="DejaVuSans-61"/>
      <path d="M 18.3125 70.21875 
L 18.3125 54.6875 
L 36.8125 54.6875 
L 36.8125 47.703125 
L 18.3125 47.703125 
L 18.3125 18.015625 
Q 18.3125 11.328125 20.140625 9.421875 
Q 21.96875 7.515625 27.59375 7.515625 
L 36.8125 7.515625 
L 36.8125 0 
L 27.59375 0 
Q 17.1875 0 13.234375 3.875 
Q 9.28125 7.765625 9.28125 18.015625 
L 9.28125 47.703125 
L 2.6875 47.703125 
L 2.6875 54.6875 
L 9.28125 54.6875 
L 9.28125 70.21875 
z
" id="DejaVuSans-74"/>
      <path d="M 56.203125 29.59375 
L 56.203125 25.203125 
L 14.890625 25.203125 
Q 15.484375 15.921875 20.484375 11.0625 
Q 25.484375 6.203125 34.421875 6.203125 
Q 39.59375 6.203125 44.453125 7.46875 
Q 49.3125 8.734375 54.109375 11.28125 
L 54.109375 2.78125 
Q 49.265625 0.734375 44.1875 -0.34375 
Q 39.109375 -1.421875 33.890625 -1.421875 
Q 20.796875 -1.421875 13.15625 6.1875 
Q 5.515625 13.8125 5.515625 26.8125 
Q 5.515625 40.234375 12.765625 48.109375 
Q 20.015625 56 32.328125 56 
Q 43.359375 56 49.78125 48.890625 
Q 56.203125 41.796875 56.203125 29.59375 
z
M 47.21875 32.234375 
Q 47.125 39.59375 43.09375 43.984375 
Q 39.0625 48.390625 32.421875 48.390625 
Q 24.90625 48.390625 20.390625 44.140625 
Q 15.875 39.890625 15.1875 32.171875 
z
" id="DejaVuSans-65"/>
     </defs>
     <g style="fill:#555555;" transform="translate(222.63 356.975033)scale(0.12 -0.12)">
      <use xlink:href="#DejaVuSans-64"/>
      <use x="63.476562" xlink:href="#DejaVuSans-61"/>
      <use x="124.755859" xlink:href="#DejaVuSans-74"/>
      <use x="163.964844" xlink:href="#DejaVuSans-65"/>
     </g>
    </g>
   </g>
   <g id="matplotlib.axis_2">
    <g id="ytick_1">
     <g id="line2d_21">
      <path clip-path="url(#p47b77133cb)" d="M 57.6 304.099995 
L 414.72 304.099995 
" style="fill:none;stroke:#ffffff;stroke-linecap:square;stroke-width:0.8;"/>
     </g>
     <g id="line2d_22">
      <defs>
       <path d="M 0 0 
L -3.5 0 
" id="mcd80e1d143" style="stroke:#555555;stroke-width:0.8;"/>
      </defs>
      <g>
       <use style="fill:#555555;stroke:#555555;stroke-width:0.8;" x="57.6" xlink:href="#mcd80e1d143" y="304.099995"/>
      </g>
     </g>
     <g id="text_12">
      <!-- 20000 -->
      <g style="fill:#555555;" transform="translate(18.7875 307.899214)scale(0.1 -0.1)">
       <use xlink:href="#DejaVuSans-32"/>
       <use x="63.623047" xlink:href="#DejaVuSans-30"/>
       <use x="127.246094" xlink:href="#DejaVuSans-30"/>
       <use x="190.869141" xlink:href="#DejaVuSans-30"/>
       <use x="254.492188" xlink:href="#DejaVuSans-30"/>
      </g>
     </g>
    </g>
    <g id="ytick_2">
     <g id="line2d_23">
      <path clip-path="url(#p47b77133cb)" d="M 57.6 256.055525 
L 414.72 256.055525 
" style="fill:none;stroke:#ffffff;stroke-linecap:square;stroke-width:0.8;"/>
     </g>
     <g id="line2d_24">
      <g>
       <use style="fill:#555555;stroke:#555555;stroke-width:0.8;" x="57.6" xlink:href="#mcd80e1d143" y="256.055525"/>
      </g>
     </g>
     <g id="text_13">
      <!-- 25000 -->
      <defs>
       <path d="M 10.796875 72.90625 
L 49.515625 72.90625 
L 49.515625 64.59375 
L 19.828125 64.59375 
L 19.828125 46.734375 
Q 21.96875 47.46875 24.109375 47.828125 
Q 26.265625 48.1875 28.421875 48.1875 
Q 40.625 48.1875 47.75 41.5 
Q 54.890625 34.8125 54.890625 23.390625 
Q 54.890625 11.625 47.5625 5.09375 
Q 40.234375 -1.421875 26.90625 -1.421875 
Q 22.3125 -1.421875 17.546875 -0.640625 
Q 12.796875 0.140625 7.71875 1.703125 
L 7.71875 11.625 
Q 12.109375 9.234375 16.796875 8.0625 
Q 21.484375 6.890625 26.703125 6.890625 
Q 35.15625 6.890625 40.078125 11.328125 
Q 45.015625 15.765625 45.015625 23.390625 
Q 45.015625 31 40.078125 35.4375 
Q 35.15625 39.890625 26.703125 39.890625 
Q 22.75 39.890625 18.8125 39.015625 
Q 14.890625 38.140625 10.796875 36.28125 
z
" id="DejaVuSans-35"/>
      </defs>
      <g style="fill:#555555;" transform="translate(18.7875 259.854744)scale(0.1 -0.1)">
       <use xlink:href="#DejaVuSans-32"/>
       <use x="63.623047" xlink:href="#DejaVuSans-35"/>
       <use x="127.246094" xlink:href="#DejaVuSans-30"/>
       <use x="190.869141" xlink:href="#DejaVuSans-30"/>
       <use x="254.492188" xlink:href="#DejaVuSans-30"/>
      </g>
     </g>
    </g>
    <g id="ytick_3">
     <g id="line2d_25">
      <path clip-path="url(#p47b77133cb)" d="M 57.6 208.011056 
L 414.72 208.011056 
" style="fill:none;stroke:#ffffff;stroke-linecap:square;stroke-width:0.8;"/>
     </g>
     <g id="line2d_26">
      <g>
       <use style="fill:#555555;stroke:#555555;stroke-width:0.8;" x="57.6" xlink:href="#mcd80e1d143" y="208.011056"/>
      </g>
     </g>
     <g id="text_14">
      <!-- 30000 -->
      <defs>
       <path d="M 40.578125 39.3125 
Q 47.65625 37.796875 51.625 33 
Q 55.609375 28.21875 55.609375 21.1875 
Q 55.609375 10.40625 48.1875 4.484375 
Q 40.765625 -1.421875 27.09375 -1.421875 
Q 22.515625 -1.421875 17.65625 -0.515625 
Q 12.796875 0.390625 7.625 2.203125 
L 7.625 11.71875 
Q 11.71875 9.328125 16.59375 8.109375 
Q 21.484375 6.890625 26.8125 6.890625 
Q 36.078125 6.890625 40.9375 10.546875 
Q 45.796875 14.203125 45.796875 21.1875 
Q 45.796875 27.640625 41.28125 31.265625 
Q 36.765625 34.90625 28.71875 34.90625 
L 20.21875 34.90625 
L 20.21875 43.015625 
L 29.109375 43.015625 
Q 36.375 43.015625 40.234375 45.921875 
Q 44.09375 48.828125 44.09375 54.296875 
Q 44.09375 59.90625 40.109375 62.90625 
Q 36.140625 65.921875 28.71875 65.921875 
Q 24.65625 65.921875 20.015625 65.03125 
Q 15.375 64.15625 9.8125 62.3125 
L 9.8125 71.09375 
Q 15.4375 72.65625 20.34375 73.4375 
Q 25.25 74.21875 29.59375 74.21875 
Q 40.828125 74.21875 47.359375 69.109375 
Q 53.90625 64.015625 53.90625 55.328125 
Q 53.90625 49.265625 50.4375 45.09375 
Q 46.96875 40.921875 40.578125 39.3125 
z
" id="DejaVuSans-33"/>
      </defs>
      <g style="fill:#555555;" transform="translate(18.7875 211.810274)scale(0.1 -0.1)">
       <use xlink:href="#DejaVuSans-33"/>
       <use x="63.623047" xlink:href="#DejaVuSans-30"/>
       <use x="127.246094" xlink:href="#DejaVuSans-30"/>
       <use x="190.869141" xlink:href="#DejaVuSans-30"/>
       <use x="254.492188" xlink:href="#DejaVuSans-30"/>
      </g>
     </g>
    </g>
    <g id="ytick_4">
     <g id="line2d_27">
      <path clip-path="url(#p47b77133cb)" d="M 57.6 159.966586 
L 414.72 159.966586 
" style="fill:none;stroke:#ffffff;stroke-linecap:square;stroke-width:0.8;"/>
     </g>
     <g id="line2d_28">
      <g>
       <use style="fill:#555555;stroke:#555555;stroke-width:0.8;" x="57.6" xlink:href="#mcd80e1d143" y="159.966586"/>
      </g>
     </g>
     <g id="text_15">
      <!-- 35000 -->
      <g style="fill:#555555;" transform="translate(18.7875 163.765805)scale(0.1 -0.1)">
       <use xlink:href="#DejaVuSans-33"/>
       <use x="63.623047" xlink:href="#DejaVuSans-35"/>
       <use x="127.246094" xlink:href="#DejaVuSans-30"/>
       <use x="190.869141" xlink:href="#DejaVuSans-30"/>
       <use x="254.492188" xlink:href="#DejaVuSans-30"/>
      </g>
     </g>
    </g>
    <g id="ytick_5">
     <g id="line2d_29">
      <path clip-path="url(#p47b77133cb)" d="M 57.6 111.922116 
L 414.72 111.922116 
" style="fill:none;stroke:#ffffff;stroke-linecap:square;stroke-width:0.8;"/>
     </g>
     <g id="line2d_30">
      <g>
       <use style="fill:#555555;stroke:#555555;stroke-width:0.8;" x="57.6" xlink:href="#mcd80e1d143" y="111.922116"/>
      </g>
     </g>
     <g id="text_16">
      <!-- 40000 -->
      <g style="fill:#555555;" transform="translate(18.7875 115.721335)scale(0.1 -0.1)">
       <use xlink:href="#DejaVuSans-34"/>
       <use x="63.623047" xlink:href="#DejaVuSans-30"/>
       <use x="127.246094" xlink:href="#DejaVuSans-30"/>
       <use x="190.869141" xlink:href="#DejaVuSans-30"/>
       <use x="254.492188" xlink:href="#DejaVuSans-30"/>
      </g>
     </g>
    </g>
    <g id="ytick_6">
     <g id="line2d_31">
      <path clip-path="url(#p47b77133cb)" d="M 57.6 63.877646 
L 414.72 63.877646 
" style="fill:none;stroke:#ffffff;stroke-linecap:square;stroke-width:0.8;"/>
     </g>
     <g id="line2d_32">
      <g>
       <use style="fill:#555555;stroke:#555555;stroke-width:0.8;" x="57.6" xlink:href="#mcd80e1d143" y="63.877646"/>
      </g>
     </g>
     <g id="text_17">
      <!-- 45000 -->
      <g style="fill:#555555;" transform="translate(18.7875 67.676865)scale(0.1 -0.1)">
       <use xlink:href="#DejaVuSans-34"/>
       <use x="63.623047" xlink:href="#DejaVuSans-35"/>
       <use x="127.246094" xlink:href="#DejaVuSans-30"/>
       <use x="190.869141" xlink:href="#DejaVuSans-30"/>
       <use x="254.492188" xlink:href="#DejaVuSans-30"/>
      </g>
     </g>
    </g>
    <g id="text_18">
     <!-- editors -->
     <defs>
      <path d="M 9.421875 54.6875 
L 18.40625 54.6875 
L 18.40625 0 
L 9.421875 0 
z
M 9.421875 75.984375 
L 18.40625 75.984375 
L 18.40625 64.59375 
L 9.421875 64.59375 
z
" id="DejaVuSans-69"/>
      <path d="M 30.609375 48.390625 
Q 23.390625 48.390625 19.1875 42.75 
Q 14.984375 37.109375 14.984375 27.296875 
Q 14.984375 17.484375 19.15625 11.84375 
Q 23.34375 6.203125 30.609375 6.203125 
Q 37.796875 6.203125 41.984375 11.859375 
Q 46.1875 17.53125 46.1875 27.296875 
Q 46.1875 37.015625 41.984375 42.703125 
Q 37.796875 48.390625 30.609375 48.390625 
z
M 30.609375 56 
Q 42.328125 56 49.015625 48.375 
Q 55.71875 40.765625 55.71875 27.296875 
Q 55.71875 13.875 49.015625 6.21875 
Q 42.328125 -1.421875 30.609375 -1.421875 
Q 18.84375 -1.421875 12.171875 6.21875 
Q 5.515625 13.875 5.515625 27.296875 
Q 5.515625 40.765625 12.171875 48.375 
Q 18.84375 56 30.609375 56 
z
" id="DejaVuSans-6f"/>
      <path d="M 41.109375 46.296875 
Q 39.59375 47.171875 37.8125 47.578125 
Q 36.03125 48 33.890625 48 
Q 26.265625 48 22.1875 43.046875 
Q 18.109375 38.09375 18.109375 28.8125 
L 18.109375 0 
L 9.078125 0 
L 9.078125 54.6875 
L 18.109375 54.6875 
L 18.109375 46.1875 
Q 20.953125 51.171875 25.484375 53.578125 
Q 30.03125 56 36.53125 56 
Q 37.453125 56 38.578125 55.875 
Q 39.703125 55.765625 41.0625 55.515625 
z
" id="DejaVuSans-72"/>
      <path d="M 44.28125 53.078125 
L 44.28125 44.578125 
Q 40.484375 46.53125 36.375 47.5 
Q 32.28125 48.484375 27.875 48.484375 
Q 21.1875 48.484375 17.84375 46.4375 
Q 14.5 44.390625 14.5 40.28125 
Q 14.5 37.15625 16.890625 35.375 
Q 19.28125 33.59375 26.515625 31.984375 
L 29.59375 31.296875 
Q 39.15625 29.25 43.1875 25.515625 
Q 47.21875 21.78125 47.21875 15.09375 
Q 47.21875 7.46875 41.1875 3.015625 
Q 35.15625 -1.421875 24.609375 -1.421875 
Q 20.21875 -1.421875 15.453125 -0.5625 
Q 10.6875 0.296875 5.421875 2 
L 5.421875 11.28125 
Q 10.40625 8.6875 15.234375 7.390625 
Q 20.0625 6.109375 24.8125 6.109375 
Q 31.15625 6.109375 34.5625 8.28125 
Q 37.984375 10.453125 37.984375 14.40625 
Q 37.984375 18.0625 35.515625 20.015625 
Q 33.0625 21.96875 24.703125 23.78125 
L 21.578125 24.515625 
Q 13.234375 26.265625 9.515625 29.90625 
Q 5.8125 33.546875 5.8125 39.890625 
Q 5.8125 47.609375 11.28125 51.796875 
Q 16.75 56 26.8125 56 
Q 31.78125 56 36.171875 55.265625 
Q 40.578125 54.546875 44.28125 53.078125 
z
" id="DejaVuSans-73"/>
     </defs>
     <g style="fill:#555555;" transform="translate(12.291875 195.311437)rotate(-90)scale(0.12 -0.12)">
      <use xlink:href="#DejaVuSans-65"/>
      <use x="61.523438" xlink:href="#DejaVuSans-64"/>
      <use x="125" xlink:href="#DejaVuSans-69"/>
      <use x="152.783203" xlink:href="#DejaVuSans-74"/>
      <use x="191.992188" xlink:href="#DejaVuSans-6f"/>
      <use x="253.173828" xlink:href="#DejaVuSans-72"/>
      <use x="294.287109" xlink:href="#DejaVuSans-73"/>
     </g>
    </g>
   </g>
   <g id="line2d_33">
    <path clip-path="url(#p47b77133cb)" d="M -1 332.145836 
L -0.787005 336.818279 
L 1.931383 294.875457 
L 4.649771 273.928068 
L 7.368159 268.547088 
L 10.086547 286.794377 
L 12.804935 265.241628 
L 15.523323 262.224435 
L 18.241711 259.678078 
L 20.960099 271.727632 
L 23.678487 251.366385 
L 26.396874 234.73339 
L 29.115262 237.270138 
L 31.83365 221.011889 
L 34.552038 216.687887 
L 37.270426 221.751774 
L 39.988814 250.309407 
L 42.707202 227.555546 
L 45.42559 232.052508 
L 48.143978 225.210976 
L 50.862366 236.020982 
L 53.580753 256.776193 
L 56.299141 231.783459 
L 59.017529 237.106787 
L 61.735917 221.636467 
L 64.454305 223.635117 
L 67.172693 212.719414 
L 69.891081 215.563646 
L 72.609469 213.53617 
L 75.327857 205.176432 
L 78.046244 201.794101 
L 80.764632 195.423405 
L 83.48302 197.671886 
L 86.201408 178.665494 
L 88.919796 193.972462 
L 91.638184 173.063508 
L 94.356572 156.507384 
L 97.07496 147.696028 
L 99.793348 135.166031 
L 102.511736 128.103494 
L 105.230123 123.433571 
L 107.948511 125.749314 
L 110.666899 122.040281 
L 113.385287 118.927 
L 116.103675 112.479432 
L 118.822063 146.091343 
L 121.540451 290.76285 
L 124.258839 214.900633 
L 126.977227 126.104844 
L 129.695615 126.383501 
L 132.414002 112.93105 
L 137.850778 92.243101 
L 140.569166 71.305321 
L 143.287554 97.403077 
L 146.005942 67.259977 
L 148.72433 72.96766 
L 151.442718 84.008279 
L 154.161106 72.083642 
L 156.879494 66.702661 
L 159.597881 85.91084 
L 162.316269 96.692019 
L 165.034657 58.400577 
L 167.753045 56.709411 
L 170.471433 64.262002 
L 173.189821 65.962776 
L 175.908209 76.398035 
L 178.626597 87.746139 
L 181.344985 126.825511 
L 184.063373 122.030673 
L 186.78176 132.850287 
L 189.500148 138.884673 
L 192.218536 152.827178 
L 194.936924 147.292455 
L 197.655312 144.851796 
L 200.3737 154.085943 
L 203.092088 157.15118 
L 205.810476 164.992037 
L 208.528864 168.364759 
L 211.247251 171.958486 
L 213.965639 154.268512 
L 216.684027 152.365951 
L 219.402415 164.780642 
L 222.120803 131.053424 
L 224.839191 127.940142 
L 227.557579 118.062199 
L 230.275967 113.248143 
L 232.994355 113.161663 
L 235.712743 99.180723 
L 238.43113 99.228767 
L 241.149518 107.069625 
L 243.867906 119.599622 
L 246.586294 111.335974 
L 249.304682 124.519376 
L 252.02307 125.163172 
L 254.741458 135.137204 
L 257.459846 130.678677 
L 260.178234 152.365951 
L 262.896622 243.708097 
L 265.615009 207.415304 
L 268.333397 145.092018 
L 271.051785 127.459698 
L 273.770173 131.063033 
L 276.488561 117.197399 
L 279.206949 133.791959 
L 281.925337 110.5 
L 284.643725 113.142446 
L 287.362113 100.07435 
L 290.080501 102.620707 
L 292.798888 106.819793 
L 295.517276 115.342882 
L 298.235664 119.080742 
L 300.954052 104.177348 
L 303.67244 101.90004 
L 306.390828 103.495116 
L 309.109216 102.639925 
L 311.827604 94.827894 
L 314.545992 114.948918 
L 317.26438 106.262478 
L 319.982767 109.039448 
L 322.701155 152.385169 
L 325.419543 128.209191 
L 328.137931 148.03234 
L 330.856319 156.103811 
L 333.574707 161.782667 
L 336.293095 174.024398 
L 339.011483 162.724338 
L 341.729871 172.832895 
L 344.448258 173.716913 
L 347.166646 170.459498 
L 349.885034 179.097894 
L 352.603422 174.716238 
L 355.32181 172.688761 
L 358.040198 175.994221 
L 360.758586 170.997596 
L 363.476974 155.632975 
L 366.195362 144.015822 
L 368.91375 146.975361 
L 371.632137 133.78235 
L 374.350525 126.258586 
L 377.068913 125.855012 
L 379.787301 121.559837 
L 382.505689 122.780166 
L 385.224077 130.150188 
L 387.942465 140.498967 
L 390.660853 137.597081 
L 393.379241 141.104327 
L 396.097629 140.55662 
L 398.816016 155.306272 
L 401.534404 157.285704 
L 404.252792 213.987788 
L 406.97118 209.510043 
L 409.689568 163.810143 
L 412.407956 141.306114 
L 415.126344 144.46744 
L 417.844732 120.070458 
L 420.56312 133.60939 
L 423.281508 111.047707 
L 425.999895 129.640917 
L 428.718283 108.193865 
L 431.436671 116.75539 
L 434.155059 131.802918 
L 436.873447 134.454972 
L 439.591835 136.002004 
L 442.310223 150.223167 
L 445.028611 147.215584 
L 447.746999 156.882131 
L 450.465387 140.623882 
L 453.183774 147.177148 
L 455.902162 145.255369 
L 458.62055 154.672085 
L 461.338938 154.297338 
L 461.8 158.660181 
L 461.8 158.660181 
" style="fill:none;stroke:#e24a33;stroke-linecap:square;stroke-width:1.5;"/>
   </g>
   <g id="line2d_34">
    <path clip-path="url(#p47b77133cb)" d="M -1 282.164946 
L -0.398663 284.94947 
L 2.319724 288.754592 
L 5.038112 276.051634 
L 7.7565 267.538154 
L 10.474888 268.316474 
L 13.193276 268.78731 
L 15.911664 255.67117 
L 18.630052 258.53462 
L 21.34844 255.248378 
L 24.066828 235.415621 
L 26.785216 230.169165 
L 29.503603 232.235077 
L 32.221991 226.431305 
L 34.940379 219.503293 
L 37.658767 217.648776 
L 40.377155 218.609666 
L 43.095543 226.729181 
L 45.813931 233.071051 
L 48.532319 230.265254 
L 51.250707 235.25227 
L 53.969095 261.878515 
L 56.687482 226.335216 
L 59.40587 228.73744 
L 62.124258 215.976829 
L 64.842646 211.460649 
L 67.561034 203.581356 
L 70.279422 210.739982 
L 72.99781 209.779092 
L 75.716198 190.955269 
L 78.434586 199.920367 
L 81.152974 185.516635 
L 83.871361 189.715722 
L 86.589749 174.937243 
L 89.308137 173.909091 
L 92.026525 163.704446 
L 94.744913 149.002838 
L 97.463301 144.131129 
L 100.181689 145.216934 
L 102.900077 119.128787 
L 105.618465 114.045682 
L 108.336852 136.511276 
L 111.05524 106.627616 
L 113.773628 108.895314 
L 116.492016 106.281695 
L 119.210404 154.80661 
L 121.928792 243.688879 
L 124.64718 132.994421 
L 127.365568 130.553761 
L 130.083956 116.380643 
L 132.802344 105.397677 
L 135.520731 78.521601 
L 138.239119 80.212766 
L 140.957507 73.063749 
L 143.675895 80.481815 
L 146.394283 69.700636 
L 149.112671 71.017055 
L 151.831059 82.586163 
L 154.549447 74.091901 
L 157.267835 67.471373 
L 159.986223 80.971869 
L 162.70461 67.14467 
L 165.422998 59.76504 
L 168.141386 54.066966 
L 170.859774 60.985369 
L 173.578162 64.559878 
L 176.29655 68.855053 
L 179.014938 84.632857 
L 181.733326 97.758606 
L 184.451714 109.173972 
L 187.170102 130.457673 
L 189.888489 138.64445 
L 192.606877 155.23901 
L 195.325265 157.593189 
L 198.043653 142.958844 
L 200.762041 156.776433 
L 203.480429 150.050207 
L 206.198817 158.996088 
L 208.917205 167.480741 
L 214.353981 155.133312 
L 217.072368 151.635675 
L 219.790756 145.015147 
L 222.509144 124.874905 
L 225.227532 121.70397 
L 227.94592 114.151379 
L 230.664308 115.44858 
L 233.382696 110.970836 
L 236.101084 90.715287 
L 238.819472 105.003712 
L 241.537859 107.886381 
L 244.256247 106.550744 
L 246.974635 112.604348 
L 249.693023 132.187273 
L 252.411411 109.327715 
L 255.129799 133.647825 
L 257.848187 126.556462 
L 260.566575 157.228051 
L 263.284963 298.988064 
L 266.003351 226.335216 
L 268.721738 133.484474 
L 271.440126 125.730097 
L 274.158514 124.30798 
L 276.876902 113.834286 
L 279.59529 117.110919 
L 282.313678 106.781358 
L 285.032066 100.064741 
L 287.750454 94.184098 
L 290.468842 100.775799 
L 293.18723 101.765515 
L 295.905617 126.027972 
L 298.624005 108.539785 
L 301.342393 104.571312 
L 304.060781 105.551419 
L 306.779169 103.475898 
L 309.497557 100.948759 
L 312.215945 97.700953 
L 314.934333 108.261127 
L 317.652721 102.005738 
L 320.371109 104.196565 
L 323.089496 125.422612 
L 325.807884 127.892098 
L 328.526272 141.527118 
L 331.24466 156.651517 
L 333.963048 161.465573 
L 336.681436 173.793784 
L 339.399824 164.540419 
L 342.118212 176.032657 
L 344.8366 172.823286 
L 347.554988 164.521202 
L 350.273375 172.669544 
L 352.991763 173.351775 
L 355.710151 168.134146 
L 358.428539 168.307106 
L 361.146927 161.821102 
L 363.865315 147.061841 
L 366.583703 139.115286 
L 369.302091 123.539269 
L 372.020479 140.412487 
L 374.738866 119.724538 
L 377.457254 120.128112 
L 380.175642 114.679869 
L 382.89403 122.001846 
L 385.612418 134.205141 
L 388.330806 132.6485 
L 391.049194 142.055608 
L 393.767582 151.030314 
L 396.48597 129.794659 
L 399.204358 146.110561 
L 401.922745 154.085943 
L 404.641133 216.466882 
L 407.359521 210.720764 
L 410.077909 159.342008 
L 412.796297 138.019872 
L 415.514685 146.494917 
L 418.233073 117.399186 
L 420.951461 122.953126 
L 423.669849 113.805459 
L 426.388237 118.821302 
L 429.106624 107.492416 
L 431.825012 126.056799 
L 434.5434 120.329898 
L 437.261788 134.339666 
L 439.980176 133.686261 
L 442.698564 144.736489 
L 445.416952 146.129779 
L 448.13534 142.228568 
L 450.853728 144.832578 
L 453.572116 146.004863 
L 456.290503 142.564879 
L 459.008891 141.882647 
L 461.727279 152.471649 
L 461.8 152.437718 
" style="fill:none;stroke:#348abd;stroke-linecap:square;stroke-width:1.5;"/>
   </g>
   <g id="line2d_35">
    <path clip-path="url(#p47b77133cb)" d="M -1 280.75691 
L -0.010322 284.094278 
L 2.708066 280.414072 
L 5.426453 275.340576 
L 8.144841 268.210776 
L 10.863229 270.651435 
L 13.581617 264.87649 
L 16.300005 253.730173 
L 19.018393 259.22646 
L 21.736781 258.313616 
L 24.455169 283.767576 
L 27.173557 235.992155 
L 29.891945 232.580998 
L 32.610332 229.525369 
L 35.32872 225.710638 
L 38.047108 223.539028 
L 40.765496 222.856797 
L 43.483884 230.438214 
L 46.202272 232.898091 
L 48.92066 228.622133 
L 51.639048 238.461641 
L 54.357436 243.035474 
L 57.075824 228.526044 
L 59.794211 229.755983 
L 62.512599 217.245203 
L 65.230987 206.512068 
L 67.949375 209.423563 
L 70.667763 210.326799 
L 73.386151 210.153839 
L 76.104539 194.135813 
L 78.822927 195.817369 
L 81.541315 175.926959 
L 84.259703 175.600256 
L 86.97809 172.256361 
L 89.696478 176.964719 
L 92.414866 166.913816 
L 95.133254 153.317231 
L 97.851642 146.245085 
L 100.57003 145.764641 
L 103.288418 123.827536 
L 106.006806 117.408795 
L 108.725194 158.71743 
L 111.443582 105.628291 
L 114.161969 101.188982 
L 116.880357 115.429362 
L 119.598745 157.794976 
L 122.317133 205.80101 
L 125.035521 124.625074 
L 127.753909 125.87423 
L 130.472297 115.006571 
L 133.190685 96.298055 
L 135.909073 82.355549 
L 138.62746 78.262161 
L 141.345848 85.238218 
L 144.064236 75.667759 
L 146.782624 74.899048 
L 149.501012 59.668951 
L 152.2194 77.301271 
L 154.937788 69.104885 
L 157.656176 66.45283 
L 160.374564 81.423487 
L 163.092952 60.389618 
L 165.811339 67.40411 
L 168.529727 51.203515 
L 171.248115 65.338198 
L 173.966503 72.064424 
L 176.684891 73.957376 
L 179.403279 95.241076 
L 182.121667 96.269228 
L 184.840055 115.429362 
L 187.558443 136.415187 
L 190.276831 145.985645 
L 192.995218 154.46069 
L 195.713606 172.890548 
L 198.431994 151.443497 
L 201.150382 154.691303 
L 203.86877 156.786042 
L 206.587158 165.309131 
L 209.305546 166.164322 
L 212.023934 163.204783 
L 214.742322 153.009747 
L 217.46071 159.399661 
L 220.179097 142.978061 
L 222.897485 125.115127 
L 225.615873 116.870696 
L 231.052649 110.826702 
L 233.771037 111.076533 
L 236.489425 93.722871 
L 239.207813 111.047707 
L 241.926201 139.288246 
L 244.644589 113.171272 
L 247.362976 113.843895 
L 250.081364 156.737998 
L 252.799752 107.617332 
L 255.51814 131.149513 
L 258.236528 131.303255 
L 260.954916 164.329024 
L 263.673304 249.089077 
L 266.391692 156.54582 
L 269.11008 131.168731 
L 271.828467 145.94721 
L 274.546855 124.019714 
L 277.265243 120.570121 
L 279.983631 121.348441 
L 282.702019 118.821302 
L 285.420407 102.24596 
L 288.138795 94.030356 
L 290.857183 107.915207 
L 293.575571 107.319456 
L 296.293959 114.209033 
L 299.012346 107.425154 
L 301.730734 107.213758 
L 304.449122 103.927516 
L 307.16751 108.67431 
L 309.885898 111.086142 
L 312.604286 115.371709 
L 315.322674 109.45263 
L 320.75945 118.110244 
L 323.477838 125.797359 
L 326.196225 137.049374 
L 328.914613 147.772899 
L 331.633001 156.593864 
L 334.351389 173.053899 
L 337.069777 171.968094 
L 339.788165 167.845879 
L 342.506553 174.303056 
L 345.224941 172.150663 
L 347.943329 175.773216 
L 350.661717 175.811652 
L 353.380104 177.867955 
L 356.098492 168.220626 
L 358.81688 162.945343 
L 361.535268 167.202083 
L 364.253656 145.572463 
L 366.972044 135.444688 
L 369.690432 141.940301 
L 372.40882 130.851637 
L 375.127208 128.776116 
L 377.845596 117.514492 
L 380.563983 122.059499 
L 383.282371 126.844728 
L 386.000759 168.633808 
L 388.719147 130.082926 
L 391.437535 131.014988 
L 394.155923 173.553562 
L 396.874311 132.408278 
L 399.592699 139.855171 
L 402.311087 170.728547 
L 405.029474 252.317666 
L 407.747862 223.337242 
L 410.46625 152.827178 
L 413.184638 133.78235 
L 415.903026 141.517509 
L 418.621414 115.045007 
L 421.339802 123.942842 
L 424.05819 118.533035 
L 426.776578 116.995612 
L 429.494966 112.49865 
L 432.213353 119.224875 
L 434.931741 120.656601 
L 437.650129 148.387869 
L 440.368517 135.838653 
L 443.086905 155.287055 
L 445.805293 152.663826 
L 448.523681 150.703612 
L 451.242069 150.751657 
L 453.960457 154.143596 
L 456.678845 152.798351 
L 459.397232 150.578696 
L 461.8 157.509186 
L 461.8 157.509186 
" style="fill:none;stroke:#988ed5;stroke-linecap:square;stroke-width:1.5;"/>
   </g>
   <g id="line2d_36">
    <path clip-path="url(#p47b77133cb)" d="M -1 282.989311 
L 0.378019 289.667437 
L 3.096407 278.271288 
L 5.814795 268.989097 
L 8.533183 271.30484 
L 11.25157 271.199142 
L 16.688346 262.6184 
L 19.406734 261.080977 
L 22.125122 270.257471 
L 24.84351 240.575597 
L 27.561898 240.123979 
L 30.280286 234.204901 
L 32.998674 228.871964 
L 35.717062 228.602915 
L 38.435449 227.613199 
L 41.153837 225.979687 
L 43.872225 241.786318 
L 46.590613 239.710797 
L 49.309001 236.222768 
L 52.027389 243.285305 
L 54.745777 233.955069 
L 57.464165 231.091619 
L 60.182553 229.813636 
L 62.90094 217.033807 
L 65.619328 209.308256 
L 68.337716 215.899958 
L 73.774492 209.779092 
L 81.929656 181.932517 
L 84.648044 184.43083 
L 87.366432 179.328507 
L 90.084819 176.417012 
L 92.803207 159.390052 
L 95.521595 161.58088 
L 98.239983 143.275937 
L 100.958371 124.125411 
L 103.676759 126.22015 
L 106.395147 126.066408 
L 109.113535 204.599898 
L 111.831923 120.483641 
L 114.550311 112.729263 
L 117.268698 118.062199 
L 119.987086 173.063508 
L 122.705474 196.009547 
L 125.423862 119.657276 
L 128.14225 124.240718 
L 130.860638 116.140421 
L 133.579026 100.035914 
L 136.297414 90.206016 
L 139.015802 73.995812 
L 141.73419 84.123586 
L 144.452577 76.53256 
L 147.170965 80.203157 
L 149.889353 74.005421 
L 152.607741 89.946576 
L 155.326129 71.795375 
L 158.044517 73.198273 
L 160.762905 105.926166 
L 163.481293 55.354557 
L 166.199681 70.142645 
L 168.918069 65.520767 
L 171.636456 70.402085 
L 174.354844 83.249177 
L 177.073232 90.724896 
L 179.79162 104.926841 
L 182.510008 109.769724 
L 185.228396 126.777466 
L 187.946784 141.363767 
L 190.665172 146.908099 
L 193.38356 155.67141 
L 196.101947 151.981595 
L 198.820335 153.634325 
L 201.538723 163.252828 
L 204.257111 161.994063 
L 206.975499 167.298172 
L 209.693887 171.83357 
L 212.412275 157.122353 
L 215.130663 162.839645 
L 217.849051 152.54852 
L 220.567439 144.38096 
L 223.285826 124.077367 
L 226.004214 118.715604 
L 228.722602 121.117828 
L 231.44099 115.957852 
L 234.159378 110.557653 
L 236.877766 98.978936 
L 239.596154 118.561862 
L 242.314542 134.272403 
L 245.03293 123.70262 
L 247.751318 120.156938 
L 250.469705 195.231227 
L 253.188093 128.862596 
L 255.906481 136.088484 
L 258.624869 136.636191 
L 261.343257 183.306589 
L 264.061645 219.599382 
L 266.780033 151.433888 
L 269.498421 122.472682 
L 272.216809 125.941492 
L 274.935197 124.192674 
L 277.653584 126.911991 
L 280.371972 125.105519 
L 283.09036 131.216775 
L 285.808748 102.457356 
L 288.527136 104.081259 
L 293.963912 112.556303 
L 296.6823 139.172939 
L 299.400688 108.952968 
L 302.119076 107.002362 
L 304.837463 104.523268 
L 307.555851 114.401211 
L 310.274239 112.75809 
L 312.992627 120.714254 
L 315.711015 114.852829 
L 318.429403 120.041631 
L 321.147791 130.015663 
L 323.866179 132.12962 
L 326.584567 147.974686 
L 329.302954 154.614432 
L 332.021342 170.036707 
L 334.73973 179.905041 
L 337.458118 180.462357 
L 340.176506 172.938593 
L 342.894894 174.245402 
L 345.613282 180.299005 
L 348.33167 181.048499 
L 351.050058 180.356659 
L 353.768446 180.808277 
L 356.486833 173.841829 
L 359.205221 163.915841 
L 361.923609 164.242544 
L 364.641997 151.923942 
L 367.360385 143.967777 
L 370.078773 138.202441 
L 372.797161 135.60804 
L 375.515549 133.292296 
L 380.952325 131.418562 
L 383.670712 138.788584 
L 386.3891 149.358367 
L 389.107488 136.588147 
L 391.825876 142.593706 
L 394.544264 214.007006 
L 397.262652 139.672602 
L 399.98104 147.715246 
L 402.699428 181.711513 
L 405.417816 305.627809 
L 408.136204 244.966862 
L 410.854591 154.46069 
L 413.572979 144.477049 
L 419.009755 131.918224 
L 421.728143 128.151538 
L 424.446531 127.257911 
L 427.164919 113.997637 
L 432.601695 128.238018 
L 435.320083 129.170081 
L 438.03847 149.598589 
L 440.756858 146.744748 
L 443.475246 159.812844 
L 446.193634 175.052549 
L 448.912022 152.923267 
L 451.63041 153.048182 
L 454.348798 164.934384 
L 457.067186 155.536886 
L 459.785574 157.75654 
L 461.8 167.590016 
L 461.8 167.590016 
" style="fill:none;stroke:#777777;stroke-linecap:square;stroke-width:1.5;"/>
   </g>
   <g id="line2d_37">
    <path clip-path="url(#p47b77133cb)" d="M -1 289.676967 
L 0.76636 293.741608 
L 3.484748 288.053142 
L 6.203136 283.565789 
L 8.921524 282.681771 
L 11.639912 288.110796 
L 14.358299 271.343276 
L 17.076687 277.944586 
L 19.795075 269.623284 
L 22.513463 286.688679 
L 25.231851 255.949828 
L 27.950239 250.443931 
L 30.668627 245.975796 
L 33.387015 244.745857 
L 36.105403 242.747207 
L 38.823791 248.781593 
L 41.542178 243.784968 
L 44.260566 251.769959 
L 46.978954 251.520128 
L 49.697342 247.080819 
L 52.41573 256.353401 
L 55.134118 242.968212 
L 57.852506 243.33335 
L 60.570894 247.59009 
L 63.289282 223.385286 
L 66.00767 219.897257 
L 68.726057 221.444289 
L 71.444445 250.905158 
L 74.162833 216.22666 
L 76.881221 210.57663 
L 79.599609 204.071409 
L 82.317997 216.322749 
L 85.036385 199.872322 
L 87.754773 200.131763 
L 90.473161 197.902499 
L 93.191548 184.767141 
L 95.909936 181.346375 
L 98.628324 169.498609 
L 101.346712 152.923267 
L 104.0651 157.32414 
L 106.783488 155.344708 
L 109.501876 209.990488 
L 112.220264 152.010422 
L 114.938652 140.585447 
L 117.65704 155.49845 
L 120.375427 205.464699 
L 123.093815 193.001963 
L 125.812203 126.277804 
L 128.530591 135.214075 
L 131.248979 135.415862 
L 133.967367 118.648342 
L 136.685755 107.031189 
L 139.404143 98.085309 
L 142.122531 105.186281 
L 144.840919 88.313064 
L 147.559306 102.073 
L 150.277694 100.410661 
L 152.996082 107.040798 
L 155.71447 93.280862 
L 158.432858 114.574171 
L 161.151246 132.427496 
L 163.869634 87.448263 
L 166.588022 103.917907 
L 169.30641 99.920608 
L 172.024798 108.347608 
L 174.743185 113.699761 
L 177.461573 126.04719 
L 180.179961 134.887373 
L 182.898349 138.778975 
L 185.616737 156.084593 
L 188.335125 162.070934 
L 191.053513 165.991362 
L 193.771901 155.75789 
L 196.490289 166.250803 
L 199.208677 171.852788 
L 201.927064 178.761582 
L 204.645452 178.17544 
L 207.36384 183.710163 
L 210.082228 190.791918 
L 212.800616 165.866447 
L 215.519004 173.995571 
L 218.237392 164.088801 
L 220.95578 160.591164 
L 223.674168 152.135337 
L 226.392555 142.507226 
L 229.110943 147.494242 
L 231.829331 146.312348 
L 234.547719 136.453622 
L 237.266107 136.444013 
L 239.984495 152.740698 
L 242.702883 143.583422 
L 245.421271 154.54717 
L 248.139659 148.099602 
L 250.858047 208.914292 
L 253.576434 150.645959 
L 256.294822 157.295313 
L 259.01321 166.173931 
L 261.731598 214.352926 
L 264.449986 212.104444 
L 267.168374 159.918541 
L 269.886762 142.545661 
L 272.60515 146.55257 
L 275.323538 142.29583 
L 278.041926 151.914333 
L 280.760313 145.313023 
L 283.478701 146.321956 
L 286.197089 127.968969 
L 288.915477 131.332082 
L 291.633865 131.514651 
L 297.070641 162.215067 
L 299.789029 135.819435 
L 302.507417 134.839328 
L 305.225805 137.193507 
L 307.944192 140.489358 
L 310.66258 144.419395 
L 313.380968 145.620507 
L 316.099356 147.100277 
L 318.817744 146.917708 
L 321.536132 162.858863 
L 324.25452 162.685903 
L 326.972908 175.158247 
L 329.691296 176.78215 
L 332.409684 186.679311 
L 335.128071 186.746573 
L 337.846459 216.370793 
L 340.564847 192.665652 
L 343.283235 189.504326 
L 346.001623 198.229202 
L 348.720011 193.338275 
L 351.438399 193.89559 
L 354.156787 198.219593 
L 356.875175 189.869464 
L 359.593562 187.275063 
L 362.31195 175.110203 
L 365.030338 168.854813 
L 367.748726 171.996921 
L 370.467114 170.776592 
L 373.185502 168.941293 
L 375.90389 165.683878 
L 378.622278 160.994738 
L 381.340666 163.40657 
L 384.059054 183.979212 
L 386.777441 169.863747 
L 389.495829 165.366784 
L 392.214217 169.383302 
L 394.932605 222.241828 
L 397.650993 172.554237 
L 400.369381 183.902341 
L 403.087769 213.516952 
L 405.806157 269.027532 
L 408.524545 189.398628 
L 411.242933 169.556262 
L 413.96132 163.906232 
L 416.679708 149.637025 
L 419.398096 152.337124 
L 422.116484 148.013122 
L 424.834872 156.046157 
L 427.55326 149.934901 
L 430.271648 152.817569 
L 432.990036 154.681694 
L 435.708424 161.638533 
L 438.426812 177.493208 
L 441.145199 177.099244 
L 443.863587 180.250961 
L 446.581975 193.837937 
L 449.300363 175.725172 
L 452.018751 181.21185 
L 454.737139 189.446673 
L 457.455527 189.254495 
L 460.173915 180.375877 
L 461.8 190.08974 
L 461.8 190.08974 
" style="fill:none;stroke:#fbc15e;stroke-linecap:square;stroke-width:1.5;"/>
   </g>
   <g id="line2d_38">
    <path clip-path="url(#p47b77133cb)" d="M -1 323.001397 
L 1.154701 323.077561 
L 3.873089 316.120722 
L 6.591477 317.110438 
L 9.309865 315.592232 
L 12.028253 312.978613 
L 14.746641 305.88725 
L 17.465028 310.605216 
L 20.183416 305.051276 
L 22.901804 305.166582 
L 25.620192 283.12378 
L 28.33858 287.438173 
L 31.056968 285.670137 
L 33.775356 281.509486 
L 36.493744 281.336525 
L 39.212132 284.757292 
L 41.93052 274.78326 
L 44.648907 288.696938 
L 47.367295 278.626817 
L 50.085683 285.545221 
L 52.804071 296.874107 
L 55.522459 281.634401 
L 58.240847 281.855406 
L 60.959235 277.175874 
L 63.677623 271.612325 
L 66.396011 258.486576 
L 69.114399 262.906667 
L 71.832786 260.831146 
L 74.551174 252.807719 
L 77.269562 249.867398 
L 79.98795 234.608474 
L 82.706338 241.392353 
L 85.424726 236.664777 
L 88.143114 242.603074 
L 90.861502 242.276372 
L 93.57989 231.725806 
L 96.298278 231.331841 
L 99.016665 215.073593 
L 101.735053 205.954752 
L 104.453441 199.324616 
L 107.171829 209.212167 
L 109.890217 205.128387 
L 112.608605 198.334899 
L 115.326993 194.106986 
L 118.045381 213.814828 
L 120.763769 240.239286 
L 123.482156 213.737956 
L 126.200544 180.760232 
L 128.918932 181.970953 
L 131.63732 183.91195 
L 134.355708 175.350425 
L 137.074096 163.704446 
L 139.792484 154.989179 
L 142.510872 182.143913 
L 145.22926 150.492216 
L 147.947648 157.487491 
L 150.666035 160.485466 
L 153.384423 150.492216 
L 156.102811 153.307622 
L 158.821199 172.87133 
L 161.539587 166.923425 
L 164.257975 154.604823 
L 166.976363 159.265137 
L 169.694751 159.649492 
L 172.413139 165.31874 
L 175.131527 166.721638 
L 177.849914 176.407403 
L 180.568302 186.7754 
L 183.28669 185.180324 
L 186.005078 196.528427 
L 191.441854 213.853263 
L 194.160242 205.580006 
L 196.87863 203.581356 
L 199.597018 218.273354 
L 202.315406 235.002439 
L 205.033793 223.96182 
L 207.752181 224.932318 
L 210.470569 236.318857 
L 213.188957 215.842304 
L 215.907345 213.228685 
L 218.625733 205.272521 
L 221.344121 195.250444 
L 224.062509 194.3376 
L 226.780897 192.531128 
L 229.499285 195.260053 
L 232.217672 189.321757 
L 234.93606 188.091818 
L 237.654448 183.863905 
L 240.372836 193.29023 
L 243.091224 186.996405 
L 245.809612 192.982746 
L 248.528 197.585406 
L 251.246388 204.340458 
L 253.964776 197.268312 
L 256.683163 200.141372 
L 259.401551 208.991163 
L 262.119939 247.743832 
L 264.838327 228.804702 
L 267.556715 191.877723 
L 270.275103 188.332041 
L 272.993491 193.597715 
L 275.711879 190.100077 
L 278.430267 189.513935 
L 281.148655 189.542761 
L 283.867042 189.398628 
L 286.58543 171.612565 
L 289.303818 175.215901 
L 292.022206 171.353125 
L 294.740594 190.984096 
L 297.458982 187.90925 
L 300.17737 177.675777 
L 302.895758 182.95106 
L 308.332534 185.305239 
L 311.050921 193.126879 
L 313.769309 191.541411 
L 316.487697 196.297814 
L 319.206085 194.183857 
L 321.924473 205.531961 
L 324.642861 198.258028 
L 327.361249 209.231385 
L 332.798025 219.724297 
L 335.516413 229.823245 
L 338.2348 236.155506 
L 340.953188 230.467041 
L 343.671576 235.16579 
L 346.389964 237.126004 
L 349.108352 234.608474 
L 351.82674 230.418996 
L 354.545128 228.314649 
L 357.263516 220.685187 
L 359.981904 218.331008 
L 362.700292 204.647943 
L 365.418679 202.543595 
L 368.137067 206.857988 
L 370.855455 209.221776 
L 373.573843 201.601923 
L 376.292231 205.993188 
L 379.010619 211.595173 
L 381.729007 204.157889 
L 384.447395 218.061959 
L 387.165783 205.416654 
L 389.88417 205.157214 
L 392.602558 210.778417 
L 395.320946 214.698846 
L 398.039334 217.264421 
L 400.757722 221.626858 
L 403.47611 245.59144 
L 406.194498 258.438531 
L 408.912886 195.240836 
L 411.631274 199.382269 
L 414.349662 199.71858 
L 417.068049 190.138513 
L 419.786437 191.733589 
L 422.504825 191.781634 
L 425.223213 202.437897 
L 427.941601 188.783659 
L 430.659989 187.592156 
L 433.378377 195.999938 
L 436.096765 195.971112 
L 438.815153 204.14828 
L 441.533541 204.84973 
L 444.251928 218.763408 
L 446.970316 216.197833 
L 449.688704 216.072918 
L 452.407092 214.900633 
L 455.12548 220.771667 
L 457.843868 219.916475 
L 460.562256 213.96857 
L 461.8 221.563829 
L 461.8 221.563829 
" style="fill:none;stroke:#8eba42;stroke-linecap:square;stroke-width:1.5;"/>
   </g>
   <g id="line2d_39">
    <path clip-path="url(#p47b77133cb)" d="M -1 305.787645 
L 1.543042 313.680063 
L 4.26143 299.199459 
L 6.979818 314.602516 
L 9.698206 297.277681 
L 12.416594 295.730649 
L 15.134982 292.165749 
L 17.85337 295.778693 
L 20.571757 338.086653 
L 23.290145 296.653102 
L 26.008533 265.914251 
L 28.726921 269.527195 
L 31.445309 263.185325 
L 34.163697 263.656161 
L 36.882085 258.063784 
L 39.600473 277.704364 
L 42.318861 257.035633 
L 45.037249 269.73859 
L 47.755636 266.759833 
L 50.474024 276.78191 
L 53.192412 289.138947 
L 55.9108 271.718023 
L 58.629188 271.410538 
L 61.347576 264.751574 
L 64.065964 264.780401 
L 66.784352 255.748041 
L 69.50274 254.604582 
L 72.221128 248.906508 
L 74.939515 238.403987 
L 77.657903 238.788343 
L 80.376291 217.177941 
L 83.094679 220.175915 
L 85.813067 212.988463 
L 88.531455 218.129221 
L 91.249843 216.236269 
L 93.968231 208.895074 
L 96.686619 198.344508 
L 99.405007 185.593506 
L 102.123394 183.671727 
L 104.841782 172.957811 
L 107.56017 183.633292 
L 110.278558 171.977703 
L 112.996946 166.933034 
L 115.715334 153.384494 
L 118.433722 191.387669 
L 121.15211 253.643693 
L 123.870498 220.896582 
L 126.588886 158.333074 
L 129.307273 165.703096 
L 132.025661 151.289755 
L 134.744049 144.967102 
L 137.462437 137.058983 
L 140.180825 131.505042 
L 142.899213 149.118145 
L 145.617601 113.949593 
L 148.335989 121.137045 
L 151.054377 132.715763 
L 153.772764 126.739031 
L 156.491152 123.606531 
L 159.20954 140.056958 
L 161.927928 160.898649 
L 164.646316 109.62559 
L 167.364704 120.406769 
L 170.083092 121.329223 
L 172.80148 126.498808 
L 175.519868 144.284871 
L 178.238256 145.485983 
L 180.956643 169.306431 
L 183.675031 152.932876 
L 186.393419 174.552887 
L 191.830195 196.096027 
L 194.548583 194.789218 
L 197.266971 190.993704 
L 199.985359 205.224476 
L 202.703747 216.236269 
L 205.422135 211.739307 
L 208.140522 217.79291 
L 210.85891 215.179291 
L 213.577298 201.073434 
L 216.295686 194.577822 
L 219.014074 190.936051 
L 221.732462 163.329699 
L 224.45085 164.617291 
L 227.169238 157.67006 
L 229.887626 166.942643 
L 232.606014 164.819077 
L 235.324401 150.194341 
L 238.042789 154.835437 
L 240.761177 162.128587 
L 243.479565 152.80796 
L 246.197953 164.809468 
L 248.916341 165.962536 
L 251.634729 171.266645 
L 254.353117 170.142405 
L 257.071505 171.602956 
L 259.789893 184.968928 
L 262.50828 245.553004 
L 265.226668 216.860847 
L 267.945056 171.622174 
L 270.663444 157.939109 
L 273.381832 173.688086 
L 276.10022 159.457314 
L 278.818608 164.040757 
L 281.536996 160.821777 
L 284.255384 162.791601 
L 286.973771 136.809151 
L 289.692159 145.015147 
L 292.410547 142.574488 
L 295.128935 156.046157 
L 297.847323 185.180324 
L 300.565711 149.656243 
L 303.284099 150.300039 
L 306.002487 147.638375 
L 308.720875 150.953443 
L 311.439263 150.674785 
L 314.15765 161.119653 
L 316.876038 172.78485 
L 319.594426 154.566387 
L 322.312814 189.350584 
L 325.031202 167.096385 
L 327.74959 188.668352 
L 330.467978 201.179132 
L 333.186366 204.811294 
L 335.904754 217.764083 
L 338.623142 211.527911 
L 341.341529 221.434681 
L 344.059917 217.562296 
L 346.778305 222.405179 
L 349.496693 222.904841 
L 352.215081 213.094161 
L 354.933469 216.31314 
L 357.651857 207.905358 
L 360.370245 209.750265 
L 363.088633 180.673752 
L 365.807021 174.389536 
L 368.525408 170.209667 
L 371.243796 164.300197 
L 373.962184 164.232935 
L 376.680572 173.755349 
L 379.39896 163.550703 
L 382.117348 164.09841 
L 384.835736 161.571271 
L 387.554124 173.861047 
L 390.272512 174.3511 
L 392.9909 178.915325 
L 395.709287 180.116437 
L 398.427675 188.485783 
L 401.146063 198.469424 
L 403.864451 236.299639 
L 406.582839 240.075935 
L 409.301227 185.689595 
L 412.019615 170.824636 
L 414.738003 179.866605 
L 417.456391 159.66871 
L 420.174778 166.904207 
L 422.893166 165.885665 
L 425.611554 179.443814 
L 428.329942 147.138712 
L 431.04833 150.251994 
L 433.766718 156.565037 
L 436.485106 165.261086 
L 439.203494 175.177465 
L 441.921882 176.589972 
L 444.64027 194.635475 
L 447.358657 209.88479 
L 450.077045 181.797993 
L 452.795433 183.710163 
L 455.513821 186.458307 
L 458.232209 204.369285 
L 460.950597 191.368451 
L 461.8 199.084748 
L 461.8 199.084748 
" style="fill:none;stroke:#ffb5b8;stroke-linecap:square;stroke-width:1.5;"/>
   </g>
   <g id="patch_3">
    <path d="M 57.6 307.584 
L 57.6 41.472 
" style="fill:none;stroke:#ffffff;stroke-linecap:square;stroke-linejoin:miter;"/>
   </g>
   <g id="patch_4">
    <path d="M 414.72 307.584 
L 414.72 41.472 
" style="fill:none;stroke:#ffffff;stroke-linecap:square;stroke-linejoin:miter;"/>
   </g>
   <g id="patch_5">
    <path d="M 57.6 307.584 
L 414.72 307.584 
" style="fill:none;stroke:#ffffff;stroke-linecap:square;stroke-linejoin:miter;"/>
   </g>
   <g id="patch_6">
    <path d="M 57.6 41.472 
L 414.72 41.472 
" style="fill:none;stroke:#ffffff;stroke-linecap:square;stroke-linejoin:miter;"/>
   </g>
   <g id="text_19">
    <!-- Daily active English Wikipedia editors -->
    <defs>
     <path d="M 19.671875 64.796875 
L 19.671875 8.109375 
L 31.59375 8.109375 
Q 46.6875 8.109375 53.6875 14.9375 
Q 60.6875 21.78125 60.6875 36.53125 
Q 60.6875 51.171875 53.6875 57.984375 
Q 46.6875 64.796875 31.59375 64.796875 
z
M 9.8125 72.90625 
L 30.078125 72.90625 
Q 51.265625 72.90625 61.171875 64.09375 
Q 71.09375 55.28125 71.09375 36.53125 
Q 71.09375 17.671875 61.125 8.828125 
Q 51.171875 0 30.078125 0 
L 9.8125 0 
z
" id="DejaVuSans-44"/>
     <path d="M 9.421875 75.984375 
L 18.40625 75.984375 
L 18.40625 0 
L 9.421875 0 
z
" id="DejaVuSans-6c"/>
     <path d="M 32.171875 -5.078125 
Q 28.375 -14.84375 24.75 -17.8125 
Q 21.140625 -20.796875 15.09375 -20.796875 
L 7.90625 -20.796875 
L 7.90625 -13.28125 
L 13.1875 -13.28125 
Q 16.890625 -13.28125 18.9375 -11.515625 
Q 21 -9.765625 23.484375 -3.21875 
L 25.09375 0.875 
L 2.984375 54.6875 
L 12.5 54.6875 
L 29.59375 11.921875 
L 46.6875 54.6875 
L 56.203125 54.6875 
z
" id="DejaVuSans-79"/>
     <path id="DejaVuSans-20"/>
     <path d="M 48.78125 52.59375 
L 48.78125 44.1875 
Q 44.96875 46.296875 41.140625 47.34375 
Q 37.3125 48.390625 33.40625 48.390625 
Q 24.65625 48.390625 19.8125 42.84375 
Q 14.984375 37.3125 14.984375 27.296875 
Q 14.984375 17.28125 19.8125 11.734375 
Q 24.65625 6.203125 33.40625 6.203125 
Q 37.3125 6.203125 41.140625 7.25 
Q 44.96875 8.296875 48.78125 10.40625 
L 48.78125 2.09375 
Q 45.015625 0.34375 40.984375 -0.53125 
Q 36.96875 -1.421875 32.421875 -1.421875 
Q 20.0625 -1.421875 12.78125 6.34375 
Q 5.515625 14.109375 5.515625 27.296875 
Q 5.515625 40.671875 12.859375 48.328125 
Q 20.21875 56 33.015625 56 
Q 37.15625 56 41.109375 55.140625 
Q 45.0625 54.296875 48.78125 52.59375 
z
" id="DejaVuSans-63"/>
     <path d="M 2.984375 54.6875 
L 12.5 54.6875 
L 29.59375 8.796875 
L 46.6875 54.6875 
L 56.203125 54.6875 
L 35.6875 0 
L 23.484375 0 
z
" id="DejaVuSans-76"/>
     <path d="M 9.8125 72.90625 
L 55.90625 72.90625 
L 55.90625 64.59375 
L 19.671875 64.59375 
L 19.671875 43.015625 
L 54.390625 43.015625 
L 54.390625 34.71875 
L 19.671875 34.71875 
L 19.671875 8.296875 
L 56.78125 8.296875 
L 56.78125 0 
L 9.8125 0 
z
" id="DejaVuSans-45"/>
     <path d="M 54.890625 33.015625 
L 54.890625 0 
L 45.90625 0 
L 45.90625 32.71875 
Q 45.90625 40.484375 42.875 44.328125 
Q 39.84375 48.1875 33.796875 48.1875 
Q 26.515625 48.1875 22.3125 43.546875 
Q 18.109375 38.921875 18.109375 30.90625 
L 18.109375 0 
L 9.078125 0 
L 9.078125 54.6875 
L 18.109375 54.6875 
L 18.109375 46.1875 
Q 21.34375 51.125 25.703125 53.5625 
Q 30.078125 56 35.796875 56 
Q 45.21875 56 50.046875 50.171875 
Q 54.890625 44.34375 54.890625 33.015625 
z
" id="DejaVuSans-6e"/>
     <path d="M 45.40625 27.984375 
Q 45.40625 37.75 41.375 43.109375 
Q 37.359375 48.484375 30.078125 48.484375 
Q 22.859375 48.484375 18.828125 43.109375 
Q 14.796875 37.75 14.796875 27.984375 
Q 14.796875 18.265625 18.828125 12.890625 
Q 22.859375 7.515625 30.078125 7.515625 
Q 37.359375 7.515625 41.375 12.890625 
Q 45.40625 18.265625 45.40625 27.984375 
z
M 54.390625 6.78125 
Q 54.390625 -7.171875 48.1875 -13.984375 
Q 42 -20.796875 29.203125 -20.796875 
Q 24.46875 -20.796875 20.265625 -20.09375 
Q 16.0625 -19.390625 12.109375 -17.921875 
L 12.109375 -9.1875 
Q 16.0625 -11.328125 19.921875 -12.34375 
Q 23.78125 -13.375 27.78125 -13.375 
Q 36.625 -13.375 41.015625 -8.765625 
Q 45.40625 -4.15625 45.40625 5.171875 
L 45.40625 9.625 
Q 42.625 4.78125 38.28125 2.390625 
Q 33.9375 0 27.875 0 
Q 17.828125 0 11.671875 7.65625 
Q 5.515625 15.328125 5.515625 27.984375 
Q 5.515625 40.671875 11.671875 48.328125 
Q 17.828125 56 27.875 56 
Q 33.9375 56 38.28125 53.609375 
Q 42.625 51.21875 45.40625 46.390625 
L 45.40625 54.6875 
L 54.390625 54.6875 
z
" id="DejaVuSans-67"/>
     <path d="M 54.890625 33.015625 
L 54.890625 0 
L 45.90625 0 
L 45.90625 32.71875 
Q 45.90625 40.484375 42.875 44.328125 
Q 39.84375 48.1875 33.796875 48.1875 
Q 26.515625 48.1875 22.3125 43.546875 
Q 18.109375 38.921875 18.109375 30.90625 
L 18.109375 0 
L 9.078125 0 
L 9.078125 75.984375 
L 18.109375 75.984375 
L 18.109375 46.1875 
Q 21.34375 51.125 25.703125 53.5625 
Q 30.078125 56 35.796875 56 
Q 45.21875 56 50.046875 50.171875 
Q 54.890625 44.34375 54.890625 33.015625 
z
" id="DejaVuSans-68"/>
     <path d="M 3.328125 72.90625 
L 13.28125 72.90625 
L 28.609375 11.28125 
L 43.890625 72.90625 
L 54.984375 72.90625 
L 70.3125 11.28125 
L 85.59375 72.90625 
L 95.609375 72.90625 
L 77.296875 0 
L 64.890625 0 
L 49.515625 63.28125 
L 33.984375 0 
L 21.578125 0 
z
" id="DejaVuSans-57"/>
     <path d="M 9.078125 75.984375 
L 18.109375 75.984375 
L 18.109375 31.109375 
L 44.921875 54.6875 
L 56.390625 54.6875 
L 27.390625 29.109375 
L 57.625 0 
L 45.90625 0 
L 18.109375 26.703125 
L 18.109375 0 
L 9.078125 0 
z
" id="DejaVuSans-6b"/>
     <path d="M 18.109375 8.203125 
L 18.109375 -20.796875 
L 9.078125 -20.796875 
L 9.078125 54.6875 
L 18.109375 54.6875 
L 18.109375 46.390625 
Q 20.953125 51.265625 25.265625 53.625 
Q 29.59375 56 35.59375 56 
Q 45.5625 56 51.78125 48.09375 
Q 58.015625 40.1875 58.015625 27.296875 
Q 58.015625 14.40625 51.78125 6.484375 
Q 45.5625 -1.421875 35.59375 -1.421875 
Q 29.59375 -1.421875 25.265625 0.953125 
Q 20.953125 3.328125 18.109375 8.203125 
z
M 48.6875 27.296875 
Q 48.6875 37.203125 44.609375 42.84375 
Q 40.53125 48.484375 33.40625 48.484375 
Q 26.265625 48.484375 22.1875 42.84375 
Q 18.109375 37.203125 18.109375 27.296875 
Q 18.109375 17.390625 22.1875 11.75 
Q 26.265625 6.109375 33.40625 6.109375 
Q 40.53125 6.109375 44.609375 11.75 
Q 48.6875 17.390625 48.6875 27.296875 
z
" id="DejaVuSans-70"/>
    </defs>
    <g transform="translate(100.69425 35.472)scale(0.144 -0.144)">
     <use xlink:href="#DejaVuSans-44"/>
     <use x="77.001953" xlink:href="#DejaVuSans-61"/>
     <use x="138.28125" xlink:href="#DejaVuSans-69"/>
     <use x="166.064453" xlink:href="#DejaVuSans-6c"/>
     <use x="193.847656" xlink:href="#DejaVuSans-79"/>
     <use x="253.027344" xlink:href="#DejaVuSans-20"/>
     <use x="284.814453" xlink:href="#DejaVuSans-61"/>
     <use x="346.09375" xlink:href="#DejaVuSans-63"/>
     <use x="401.074219" xlink:href="#DejaVuSans-74"/>
     <use x="440.283203" xlink:href="#DejaVuSans-69"/>
     <use x="468.066406" xlink:href="#DejaVuSans-76"/>
     <use x="527.246094" xlink:href="#DejaVuSans-65"/>
     <use x="588.769531" xlink:href="#DejaVuSans-20"/>
     <use x="620.556641" xlink:href="#DejaVuSans-45"/>
     <use x="683.740234" xlink:href="#DejaVuSans-6e"/>
     <use x="747.119141" xlink:href="#DejaVuSans-67"/>
     <use x="810.595703" xlink:href="#DejaVuSans-6c"/>
     <use x="838.378906" xlink:href="#DejaVuSans-69"/>
     <use x="866.162109" xlink:href="#DejaVuSans-73"/>
     <use x="918.261719" xlink:href="#DejaVuSans-68"/>
     <use x="981.640625" xlink:href="#DejaVuSans-20"/>
     <use x="1013.427734" xlink:href="#DejaVuSans-57"/>
     <use x="1112.273438" xlink:href="#DejaVuSans-69"/>
     <use x="1140.056641" xlink:href="#DejaVuSans-6b"/>
     <use x="1197.966797" xlink:href="#DejaVuSans-69"/>
     <use x="1225.75" xlink:href="#DejaVuSans-70"/>
     <use x="1289.226562" xlink:href="#DejaVuSans-65"/>
     <use x="1350.75" xlink:href="#DejaVuSans-64"/>
     <use x="1414.226562" xlink:href="#DejaVuSans-69"/>
     <use x="1442.009766" xlink:href="#DejaVuSans-61"/>
     <use x="1503.289062" xlink:href="#DejaVuSans-20"/>
     <use x="1535.076172" xlink:href="#DejaVuSans-65"/>
     <use x="1596.599609" xlink:href="#DejaVuSans-64"/>
     <use x="1660.076172" xlink:href="#DejaVuSans-69"/>
     <use x="1687.859375" xlink:href="#DejaVuSans-74"/>
     <use x="1727.068359" xlink:href="#DejaVuSans-6f"/>
     <use x="1788.25" xlink:href="#DejaVuSans-72"/>
     <use x="1829.363281" xlink:href="#DejaVuSans-73"/>
    </g>
   </g>
   <g id="legend_1">
    <g id="patch_7">
     <path d="M 64.6 302.584 
L 433.779688 302.584 
Q 435.779688 302.584 435.779688 300.584 
L 435.779688 286.905875 
Q 435.779688 284.905875 433.779688 284.905875 
L 64.6 284.905875 
Q 62.6 284.905875 62.6 286.905875 
L 62.6 300.584 
Q 62.6 302.584 64.6 302.584 
z
" style="fill:#e5e5e5;opacity:0.8;stroke:#cccccc;stroke-linejoin:miter;stroke-width:0.5;"/>
    </g>
    <g id="line2d_40">
     <path d="M 66.6 293.004312 
L 86.6 293.004312 
" style="fill:none;stroke:#e24a33;stroke-linecap:square;stroke-width:1.5;"/>
    </g>
    <g id="line2d_41"/>
    <g id="text_20">
     <!-- M -->
     <defs>
      <path d="M 9.8125 72.90625 
L 24.515625 72.90625 
L 43.109375 23.296875 
L 61.8125 72.90625 
L 76.515625 72.90625 
L 76.515625 0 
L 66.890625 0 
L 66.890625 64.015625 
L 48.09375 14.015625 
L 38.1875 14.015625 
L 19.390625 64.015625 
L 19.390625 0 
L 9.8125 0 
z
" id="DejaVuSans-4d"/>
     </defs>
     <g transform="translate(94.6 296.504312)scale(0.1 -0.1)">
      <use xlink:href="#DejaVuSans-4d"/>
     </g>
    </g>
    <g id="line2d_42">
     <path d="M 123.228125 293.004312 
L 143.228125 293.004312 
" style="fill:none;stroke:#348abd;stroke-linecap:square;stroke-width:1.5;"/>
    </g>
    <g id="line2d_43"/>
    <g id="text_21">
     <!-- T -->
     <defs>
      <path d="M -0.296875 72.90625 
L 61.375 72.90625 
L 61.375 64.59375 
L 35.5 64.59375 
L 35.5 0 
L 25.59375 0 
L 25.59375 64.59375 
L -0.296875 64.59375 
z
" id="DejaVuSans-54"/>
     </defs>
     <g transform="translate(151.228125 296.504312)scale(0.1 -0.1)">
      <use xlink:href="#DejaVuSans-54"/>
     </g>
    </g>
    <g id="line2d_44">
     <path d="M 177.335938 293.004312 
L 197.335938 293.004312 
" style="fill:none;stroke:#988ed5;stroke-linecap:square;stroke-width:1.5;"/>
    </g>
    <g id="line2d_45"/>
    <g id="text_22">
     <!-- W -->
     <g transform="translate(205.335938 296.504312)scale(0.1 -0.1)">
      <use xlink:href="#DejaVuSans-57"/>
     </g>
    </g>
    <g id="line2d_46">
     <path d="M 235.223438 293.004312 
L 255.223438 293.004312 
" style="fill:none;stroke:#777777;stroke-linecap:square;stroke-width:1.5;"/>
    </g>
    <g id="line2d_47"/>
    <g id="text_23">
     <!-- T -->
     <g transform="translate(263.223438 296.504312)scale(0.1 -0.1)">
      <use xlink:href="#DejaVuSans-54"/>
     </g>
    </g>
    <g id="line2d_48">
     <path d="M 289.33125 293.004312 
L 309.33125 293.004312 
" style="fill:none;stroke:#fbc15e;stroke-linecap:square;stroke-width:1.5;"/>
    </g>
    <g id="line2d_49"/>
    <g id="text_24">
     <!-- F -->
     <defs>
      <path d="M 9.8125 72.90625 
L 51.703125 72.90625 
L 51.703125 64.59375 
L 19.671875 64.59375 
L 19.671875 43.109375 
L 48.578125 43.109375 
L 48.578125 34.8125 
L 19.671875 34.8125 
L 19.671875 0 
L 9.8125 0 
z
" id="DejaVuSans-46"/>
     </defs>
     <g transform="translate(317.33125 296.504312)scale(0.1 -0.1)">
      <use xlink:href="#DejaVuSans-46"/>
     </g>
    </g>
    <g id="line2d_50">
     <path d="M 343.082813 293.004312 
L 363.082813 293.004312 
" style="fill:none;stroke:#8eba42;stroke-linecap:square;stroke-width:1.5;"/>
    </g>
    <g id="line2d_51"/>
    <g id="text_25">
     <!-- S -->
     <defs>
      <path d="M 53.515625 70.515625 
L 53.515625 60.890625 
Q 47.90625 63.578125 42.921875 64.890625 
Q 37.9375 66.21875 33.296875 66.21875 
Q 25.25 66.21875 20.875 63.09375 
Q 16.5 59.96875 16.5 54.203125 
Q 16.5 49.359375 19.40625 46.890625 
Q 22.3125 44.4375 30.421875 42.921875 
L 36.375 41.703125 
Q 47.40625 39.59375 52.65625 34.296875 
Q 57.90625 29 57.90625 20.125 
Q 57.90625 9.515625 50.796875 4.046875 
Q 43.703125 -1.421875 29.984375 -1.421875 
Q 24.8125 -1.421875 18.96875 -0.25 
Q 13.140625 0.921875 6.890625 3.21875 
L 6.890625 13.375 
Q 12.890625 10.015625 18.65625 8.296875 
Q 24.421875 6.59375 29.984375 6.59375 
Q 38.421875 6.59375 43.015625 9.90625 
Q 47.609375 13.234375 47.609375 19.390625 
Q 47.609375 24.75 44.3125 27.78125 
Q 41.015625 30.8125 33.5 32.328125 
L 27.484375 33.5 
Q 16.453125 35.6875 11.515625 40.375 
Q 6.59375 45.0625 6.59375 53.421875 
Q 6.59375 63.09375 13.40625 68.65625 
Q 20.21875 74.21875 32.171875 74.21875 
Q 37.3125 74.21875 42.625 73.28125 
Q 47.953125 72.359375 53.515625 70.515625 
z
" id="DejaVuSans-53"/>
     </defs>
     <g transform="translate(371.082813 296.504312)scale(0.1 -0.1)">
      <use xlink:href="#DejaVuSans-53"/>
     </g>
    </g>
    <g id="line2d_52">
     <path d="M 397.43125 293.004312 
L 417.43125 293.004312 
" style="fill:none;stroke:#ffb5b8;stroke-linecap:square;stroke-width:1.5;"/>
    </g>
    <g id="line2d_53"/>
    <g id="text_26">
     <!-- S -->
     <g transform="translate(425.43125 296.504312)scale(0.1 -0.1)">
      <use xlink:href="#DejaVuSans-53"/>
     </g>
    </g>
   </g>
  </g>
 </g>
 <defs>
  <clipPath id="p47b77133cb">
   <rect height="266.112" width="357.12" x="57.6" y="41.472"/>
  </clipPath>
 </defs>
</svg>
