<?xml version="1.0" encoding="utf-8" standalone="no"?>
<!DOCTYPE svg PUBLIC "-//W3C//DTD SVG 1.1//EN"
  "http://www.w3.org/Graphics/SVG/1.1/DTD/svg11.dtd">
<!-- Created with matplotlib (http://matplotlib.org/) -->
<svg height="345.6pt" version="1.1" viewBox="0 0 460.8 345.6" width="460.8pt" xmlns="http://www.w3.org/2000/svg" xmlns:xlink="http://www.w3.org/1999/xlink">
 <defs>
  <style type="text/css">
*{stroke-linecap:butt;stroke-linejoin:round;}
  </style>
 </defs>
 <g id="figure_1">
  <g id="patch_1">
   <path d="M 0 345.6 
L 460.8 345.6 
L 460.8 0 
L 0 0 
z
" style="fill:#ffffff;"/>
  </g>
  <g id="axes_1">
   <g id="patch_2">
    <path d="M 57.6 307.584 
L 414.72 307.584 
L 414.72 41.472 
L 57.6 41.472 
z
" style="fill:#e5e5e5;"/>
   </g>
   <g id="matplotlib.axis_1">
    <g id="xtick_1">
     <g id="line2d_1">
      <path clip-path="url(#pa1cacd0bd2)" d="M 77.918182 307.584 
L 77.918182 41.472 
" style="fill:none;stroke:#ffffff;stroke-linecap:square;stroke-width:0.8;"/>
     </g>
     <g id="line2d_2">
      <defs>
       <path d="M 0 0 
L 0 3.5 
" id="m40739bf5f7" style="stroke:#555555;stroke-width:0.8;"/>
      </defs>
      <g>
       <use style="fill:#555555;stroke:#555555;stroke-width:0.8;" x="77.918182" xlink:href="#m40739bf5f7" y="307.584"/>
      </g>
     </g>
     <g id="text_1">
      <!-- 2013 -->
      <defs>
       <path d="M 19.1875 8.296875 
L 53.609375 8.296875 
L 53.609375 0 
L 7.328125 0 
L 7.328125 8.296875 
Q 12.9375 14.109375 22.625 23.890625 
Q 32.328125 33.6875 34.8125 36.53125 
Q 39.546875 41.84375 41.421875 45.53125 
Q 43.3125 49.21875 43.3125 52.78125 
Q 43.3125 58.59375 39.234375 62.25 
Q 35.15625 65.921875 28.609375 65.921875 
Q 23.96875 65.921875 18.8125 64.3125 
Q 13.671875 62.703125 7.8125 59.421875 
L 7.8125 69.390625 
Q 13.765625 71.78125 18.9375 73 
Q 24.125 74.21875 28.421875 74.21875 
Q 39.75 74.21875 46.484375 68.546875 
Q 53.21875 62.890625 53.21875 53.421875 
Q 53.21875 48.921875 51.53125 44.890625 
Q 49.859375 40.875 45.40625 35.40625 
Q 44.1875 33.984375 37.640625 27.21875 
Q 31.109375 20.453125 19.1875 8.296875 
z
" id="DejaVuSans-32"/>
       <path d="M 31.78125 66.40625 
Q 24.171875 66.40625 20.328125 58.90625 
Q 16.5 51.421875 16.5 36.375 
Q 16.5 21.390625 20.328125 13.890625 
Q 24.171875 6.390625 31.78125 6.390625 
Q 39.453125 6.390625 43.28125 13.890625 
Q 47.125 21.390625 47.125 36.375 
Q 47.125 51.421875 43.28125 58.90625 
Q 39.453125 66.40625 31.78125 66.40625 
z
M 31.78125 74.21875 
Q 44.046875 74.21875 50.515625 64.515625 
Q 56.984375 54.828125 56.984375 36.375 
Q 56.984375 17.96875 50.515625 8.265625 
Q 44.046875 -1.421875 31.78125 -1.421875 
Q 19.53125 -1.421875 13.0625 8.265625 
Q 6.59375 17.96875 6.59375 36.375 
Q 6.59375 54.828125 13.0625 64.515625 
Q 19.53125 74.21875 31.78125 74.21875 
z
" id="DejaVuSans-30"/>
       <path d="M 12.40625 8.296875 
L 28.515625 8.296875 
L 28.515625 63.921875 
L 10.984375 60.40625 
L 10.984375 69.390625 
L 28.421875 72.90625 
L 38.28125 72.90625 
L 38.28125 8.296875 
L 54.390625 8.296875 
L 54.390625 0 
L 12.40625 0 
z
" id="DejaVuSans-31"/>
       <path d="M 40.578125 39.3125 
Q 47.65625 37.796875 51.625 33 
Q 55.609375 28.21875 55.609375 21.1875 
Q 55.609375 10.40625 48.1875 4.484375 
Q 40.765625 -1.421875 27.09375 -1.421875 
Q 22.515625 -1.421875 17.65625 -0.515625 
Q 12.796875 0.390625 7.625 2.203125 
L 7.625 11.71875 
Q 11.71875 9.328125 16.59375 8.109375 
Q 21.484375 6.890625 26.8125 6.890625 
Q 36.078125 6.890625 40.9375 10.546875 
Q 45.796875 14.203125 45.796875 21.1875 
Q 45.796875 27.640625 41.28125 31.265625 
Q 36.765625 34.90625 28.71875 34.90625 
L 20.21875 34.90625 
L 20.21875 43.015625 
L 29.109375 43.015625 
Q 36.375 43.015625 40.234375 45.921875 
Q 44.09375 48.828125 44.09375 54.296875 
Q 44.09375 59.90625 40.109375 62.90625 
Q 36.140625 65.921875 28.71875 65.921875 
Q 24.65625 65.921875 20.015625 65.03125 
Q 15.375 64.15625 9.8125 62.3125 
L 9.8125 71.09375 
Q 15.4375 72.65625 20.34375 73.4375 
Q 25.25 74.21875 29.59375 74.21875 
Q 40.828125 74.21875 47.359375 69.109375 
Q 53.90625 64.015625 53.90625 55.328125 
Q 53.90625 49.265625 50.4375 45.09375 
Q 46.96875 40.921875 40.578125 39.3125 
z
" id="DejaVuSans-33"/>
      </defs>
      <g style="fill:#555555;" transform="translate(65.193182 322.182437)scale(0.1 -0.1)">
       <use xlink:href="#DejaVuSans-32"/>
       <use x="63.623047" xlink:href="#DejaVuSans-30"/>
       <use x="127.246094" xlink:href="#DejaVuSans-31"/>
       <use x="190.869141" xlink:href="#DejaVuSans-33"/>
      </g>
     </g>
    </g>
    <g id="xtick_2">
     <g id="line2d_3">
      <path clip-path="url(#pa1cacd0bd2)" d="M 144.611506 307.584 
L 144.611506 41.472 
" style="fill:none;stroke:#ffffff;stroke-linecap:square;stroke-width:0.8;"/>
     </g>
     <g id="line2d_4">
      <g>
       <use style="fill:#555555;stroke:#555555;stroke-width:0.8;" x="144.611506" xlink:href="#m40739bf5f7" y="307.584"/>
      </g>
     </g>
     <g id="text_2">
      <!-- 2014 -->
      <defs>
       <path d="M 37.796875 64.3125 
L 12.890625 25.390625 
L 37.796875 25.390625 
z
M 35.203125 72.90625 
L 47.609375 72.90625 
L 47.609375 25.390625 
L 58.015625 25.390625 
L 58.015625 17.1875 
L 47.609375 17.1875 
L 47.609375 0 
L 37.796875 0 
L 37.796875 17.1875 
L 4.890625 17.1875 
L 4.890625 26.703125 
z
" id="DejaVuSans-34"/>
      </defs>
      <g style="fill:#555555;" transform="translate(131.886506 322.182437)scale(0.1 -0.1)">
       <use xlink:href="#DejaVuSans-32"/>
       <use x="63.623047" xlink:href="#DejaVuSans-30"/>
       <use x="127.246094" xlink:href="#DejaVuSans-31"/>
       <use x="190.869141" xlink:href="#DejaVuSans-34"/>
      </g>
     </g>
    </g>
    <g id="xtick_3">
     <g id="line2d_5">
      <path clip-path="url(#pa1cacd0bd2)" d="M 211.304831 307.584 
L 211.304831 41.472 
" style="fill:none;stroke:#ffffff;stroke-linecap:square;stroke-width:0.8;"/>
     </g>
     <g id="line2d_6">
      <g>
       <use style="fill:#555555;stroke:#555555;stroke-width:0.8;" x="211.304831" xlink:href="#m40739bf5f7" y="307.584"/>
      </g>
     </g>
     <g id="text_3">
      <!-- 2015 -->
      <defs>
       <path d="M 10.796875 72.90625 
L 49.515625 72.90625 
L 49.515625 64.59375 
L 19.828125 64.59375 
L 19.828125 46.734375 
Q 21.96875 47.46875 24.109375 47.828125 
Q 26.265625 48.1875 28.421875 48.1875 
Q 40.625 48.1875 47.75 41.5 
Q 54.890625 34.8125 54.890625 23.390625 
Q 54.890625 11.625 47.5625 5.09375 
Q 40.234375 -1.421875 26.90625 -1.421875 
Q 22.3125 -1.421875 17.546875 -0.640625 
Q 12.796875 0.140625 7.71875 1.703125 
L 7.71875 11.625 
Q 12.109375 9.234375 16.796875 8.0625 
Q 21.484375 6.890625 26.703125 6.890625 
Q 35.15625 6.890625 40.078125 11.328125 
Q 45.015625 15.765625 45.015625 23.390625 
Q 45.015625 31 40.078125 35.4375 
Q 35.15625 39.890625 26.703125 39.890625 
Q 22.75 39.890625 18.8125 39.015625 
Q 14.890625 38.140625 10.796875 36.28125 
z
" id="DejaVuSans-35"/>
      </defs>
      <g style="fill:#555555;" transform="translate(198.579831 322.182437)scale(0.1 -0.1)">
       <use xlink:href="#DejaVuSans-32"/>
       <use x="63.623047" xlink:href="#DejaVuSans-30"/>
       <use x="127.246094" xlink:href="#DejaVuSans-31"/>
       <use x="190.869141" xlink:href="#DejaVuSans-35"/>
      </g>
     </g>
    </g>
    <g id="xtick_4">
     <g id="line2d_7">
      <path clip-path="url(#pa1cacd0bd2)" d="M 277.998155 307.584 
L 277.998155 41.472 
" style="fill:none;stroke:#ffffff;stroke-linecap:square;stroke-width:0.8;"/>
     </g>
     <g id="line2d_8">
      <g>
       <use style="fill:#555555;stroke:#555555;stroke-width:0.8;" x="277.998155" xlink:href="#m40739bf5f7" y="307.584"/>
      </g>
     </g>
     <g id="text_4">
      <!-- 2016 -->
      <defs>
       <path d="M 33.015625 40.375 
Q 26.375 40.375 22.484375 35.828125 
Q 18.609375 31.296875 18.609375 23.390625 
Q 18.609375 15.53125 22.484375 10.953125 
Q 26.375 6.390625 33.015625 6.390625 
Q 39.65625 6.390625 43.53125 10.953125 
Q 47.40625 15.53125 47.40625 23.390625 
Q 47.40625 31.296875 43.53125 35.828125 
Q 39.65625 40.375 33.015625 40.375 
z
M 52.59375 71.296875 
L 52.59375 62.3125 
Q 48.875 64.0625 45.09375 64.984375 
Q 41.3125 65.921875 37.59375 65.921875 
Q 27.828125 65.921875 22.671875 59.328125 
Q 17.53125 52.734375 16.796875 39.40625 
Q 19.671875 43.65625 24.015625 45.921875 
Q 28.375 48.1875 33.59375 48.1875 
Q 44.578125 48.1875 50.953125 41.515625 
Q 57.328125 34.859375 57.328125 23.390625 
Q 57.328125 12.15625 50.6875 5.359375 
Q 44.046875 -1.421875 33.015625 -1.421875 
Q 20.359375 -1.421875 13.671875 8.265625 
Q 6.984375 17.96875 6.984375 36.375 
Q 6.984375 53.65625 15.1875 63.9375 
Q 23.390625 74.21875 37.203125 74.21875 
Q 40.921875 74.21875 44.703125 73.484375 
Q 48.484375 72.75 52.59375 71.296875 
z
" id="DejaVuSans-36"/>
      </defs>
      <g style="fill:#555555;" transform="translate(265.273155 322.182437)scale(0.1 -0.1)">
       <use xlink:href="#DejaVuSans-32"/>
       <use x="63.623047" xlink:href="#DejaVuSans-30"/>
       <use x="127.246094" xlink:href="#DejaVuSans-31"/>
       <use x="190.869141" xlink:href="#DejaVuSans-36"/>
      </g>
     </g>
    </g>
    <g id="xtick_5">
     <g id="line2d_9">
      <path clip-path="url(#pa1cacd0bd2)" d="M 344.874201 307.584 
L 344.874201 41.472 
" style="fill:none;stroke:#ffffff;stroke-linecap:square;stroke-width:0.8;"/>
     </g>
     <g id="line2d_10">
      <g>
       <use style="fill:#555555;stroke:#555555;stroke-width:0.8;" x="344.874201" xlink:href="#m40739bf5f7" y="307.584"/>
      </g>
     </g>
     <g id="text_5">
      <!-- 2017 -->
      <defs>
       <path d="M 8.203125 72.90625 
L 55.078125 72.90625 
L 55.078125 68.703125 
L 28.609375 0 
L 18.3125 0 
L 43.21875 64.59375 
L 8.203125 64.59375 
z
" id="DejaVuSans-37"/>
      </defs>
      <g style="fill:#555555;" transform="translate(332.149201 322.182437)scale(0.1 -0.1)">
       <use xlink:href="#DejaVuSans-32"/>
       <use x="63.623047" xlink:href="#DejaVuSans-30"/>
       <use x="127.246094" xlink:href="#DejaVuSans-31"/>
       <use x="190.869141" xlink:href="#DejaVuSans-37"/>
      </g>
     </g>
    </g>
    <g id="xtick_6">
     <g id="line2d_11">
      <path clip-path="url(#pa1cacd0bd2)" d="M 411.567525 307.584 
L 411.567525 41.472 
" style="fill:none;stroke:#ffffff;stroke-linecap:square;stroke-width:0.8;"/>
     </g>
     <g id="line2d_12">
      <g>
       <use style="fill:#555555;stroke:#555555;stroke-width:0.8;" x="411.567525" xlink:href="#m40739bf5f7" y="307.584"/>
      </g>
     </g>
     <g id="text_6">
      <!-- 2018 -->
      <defs>
       <path d="M 31.78125 34.625 
Q 24.75 34.625 20.71875 30.859375 
Q 16.703125 27.09375 16.703125 20.515625 
Q 16.703125 13.921875 20.71875 10.15625 
Q 24.75 6.390625 31.78125 6.390625 
Q 38.8125 6.390625 42.859375 10.171875 
Q 46.921875 13.96875 46.921875 20.515625 
Q 46.921875 27.09375 42.890625 30.859375 
Q 38.875 34.625 31.78125 34.625 
z
M 21.921875 38.8125 
Q 15.578125 40.375 12.03125 44.71875 
Q 8.5 49.078125 8.5 55.328125 
Q 8.5 64.0625 14.71875 69.140625 
Q 20.953125 74.21875 31.78125 74.21875 
Q 42.671875 74.21875 48.875 69.140625 
Q 55.078125 64.0625 55.078125 55.328125 
Q 55.078125 49.078125 51.53125 44.71875 
Q 48 40.375 41.703125 38.8125 
Q 48.828125 37.15625 52.796875 32.3125 
Q 56.78125 27.484375 56.78125 20.515625 
Q 56.78125 9.90625 50.3125 4.234375 
Q 43.84375 -1.421875 31.78125 -1.421875 
Q 19.734375 -1.421875 13.25 4.234375 
Q 6.78125 9.90625 6.78125 20.515625 
Q 6.78125 27.484375 10.78125 32.3125 
Q 14.796875 37.15625 21.921875 38.8125 
z
M 18.3125 54.390625 
Q 18.3125 48.734375 21.84375 45.5625 
Q 25.390625 42.390625 31.78125 42.390625 
Q 38.140625 42.390625 41.71875 45.5625 
Q 45.3125 48.734375 45.3125 54.390625 
Q 45.3125 60.0625 41.71875 63.234375 
Q 38.140625 66.40625 31.78125 66.40625 
Q 25.390625 66.40625 21.84375 63.234375 
Q 18.3125 60.0625 18.3125 54.390625 
z
" id="DejaVuSans-38"/>
      </defs>
      <g style="fill:#555555;" transform="translate(398.842525 322.182437)scale(0.1 -0.1)">
       <use xlink:href="#DejaVuSans-32"/>
       <use x="63.623047" xlink:href="#DejaVuSans-30"/>
       <use x="127.246094" xlink:href="#DejaVuSans-31"/>
       <use x="190.869141" xlink:href="#DejaVuSans-38"/>
      </g>
     </g>
    </g>
    <g id="text_7">
     <!-- date -->
     <defs>
      <path d="M 45.40625 46.390625 
L 45.40625 75.984375 
L 54.390625 75.984375 
L 54.390625 0 
L 45.40625 0 
L 45.40625 8.203125 
Q 42.578125 3.328125 38.25 0.953125 
Q 33.9375 -1.421875 27.875 -1.421875 
Q 17.96875 -1.421875 11.734375 6.484375 
Q 5.515625 14.40625 5.515625 27.296875 
Q 5.515625 40.1875 11.734375 48.09375 
Q 17.96875 56 27.875 56 
Q 33.9375 56 38.25 53.625 
Q 42.578125 51.265625 45.40625 46.390625 
z
M 14.796875 27.296875 
Q 14.796875 17.390625 18.875 11.75 
Q 22.953125 6.109375 30.078125 6.109375 
Q 37.203125 6.109375 41.296875 11.75 
Q 45.40625 17.390625 45.40625 27.296875 
Q 45.40625 37.203125 41.296875 42.84375 
Q 37.203125 48.484375 30.078125 48.484375 
Q 22.953125 48.484375 18.875 42.84375 
Q 14.796875 37.203125 14.796875 27.296875 
z
" id="DejaVuSans-64"/>
      <path d="M 34.28125 27.484375 
Q 23.390625 27.484375 19.1875 25 
Q 14.984375 22.515625 14.984375 16.5 
Q 14.984375 11.71875 18.140625 8.90625 
Q 21.296875 6.109375 26.703125 6.109375 
Q 34.1875 6.109375 38.703125 11.40625 
Q 43.21875 16.703125 43.21875 25.484375 
L 43.21875 27.484375 
z
M 52.203125 31.203125 
L 52.203125 0 
L 43.21875 0 
L 43.21875 8.296875 
Q 40.140625 3.328125 35.546875 0.953125 
Q 30.953125 -1.421875 24.3125 -1.421875 
Q 15.921875 -1.421875 10.953125 3.296875 
Q 6 8.015625 6 15.921875 
Q 6 25.140625 12.171875 29.828125 
Q 18.359375 34.515625 30.609375 34.515625 
L 43.21875 34.515625 
L 43.21875 35.40625 
Q 43.21875 41.609375 39.140625 45 
Q 35.0625 48.390625 27.6875 48.390625 
Q 23 48.390625 18.546875 47.265625 
Q 14.109375 46.140625 10.015625 43.890625 
L 10.015625 52.203125 
Q 14.9375 54.109375 19.578125 55.046875 
Q 24.21875 56 28.609375 56 
Q 40.484375 56 46.34375 49.84375 
Q 52.203125 43.703125 52.203125 31.203125 
z
" id="DejaVuSans-61"/>
      <path d="M 18.3125 70.21875 
L 18.3125 54.6875 
L 36.8125 54.6875 
L 36.8125 47.703125 
L 18.3125 47.703125 
L 18.3125 18.015625 
Q 18.3125 11.328125 20.140625 9.421875 
Q 21.96875 7.515625 27.59375 7.515625 
L 36.8125 7.515625 
L 36.8125 0 
L 27.59375 0 
Q 17.1875 0 13.234375 3.875 
Q 9.28125 7.765625 9.28125 18.015625 
L 9.28125 47.703125 
L 2.6875 47.703125 
L 2.6875 54.6875 
L 9.28125 54.6875 
L 9.28125 70.21875 
z
" id="DejaVuSans-74"/>
      <path d="M 56.203125 29.59375 
L 56.203125 25.203125 
L 14.890625 25.203125 
Q 15.484375 15.921875 20.484375 11.0625 
Q 25.484375 6.203125 34.421875 6.203125 
Q 39.59375 6.203125 44.453125 7.46875 
Q 49.3125 8.734375 54.109375 11.28125 
L 54.109375 2.78125 
Q 49.265625 0.734375 44.1875 -0.34375 
Q 39.109375 -1.421875 33.890625 -1.421875 
Q 20.796875 -1.421875 13.15625 6.1875 
Q 5.515625 13.8125 5.515625 26.8125 
Q 5.515625 40.234375 12.765625 48.109375 
Q 20.015625 56 32.328125 56 
Q 43.359375 56 49.78125 48.890625 
Q 56.203125 41.796875 56.203125 29.59375 
z
M 47.21875 32.234375 
Q 47.125 39.59375 43.09375 43.984375 
Q 39.0625 48.390625 32.421875 48.390625 
Q 24.90625 48.390625 20.390625 44.140625 
Q 15.875 39.890625 15.1875 32.171875 
z
" id="DejaVuSans-65"/>
     </defs>
     <g style="fill:#555555;" transform="translate(222.63 337.38025)scale(0.12 -0.12)">
      <use xlink:href="#DejaVuSans-64"/>
      <use x="63.476562" xlink:href="#DejaVuSans-61"/>
      <use x="124.755859" xlink:href="#DejaVuSans-74"/>
      <use x="163.964844" xlink:href="#DejaVuSans-65"/>
     </g>
    </g>
   </g>
   <g id="matplotlib.axis_2">
    <g id="ytick_1">
     <g id="line2d_13">
      <path clip-path="url(#pa1cacd0bd2)" d="M 57.6 278.72056 
L 414.72 278.72056 
" style="fill:none;stroke:#ffffff;stroke-linecap:square;stroke-width:0.8;"/>
     </g>
     <g id="line2d_14">
      <defs>
       <path d="M 0 0 
L -3.5 0 
" id="m511930025b" style="stroke:#555555;stroke-width:0.8;"/>
      </defs>
      <g>
       <use style="fill:#555555;stroke:#555555;stroke-width:0.8;" x="57.6" xlink:href="#m511930025b" y="278.72056"/>
      </g>
     </g>
     <g id="text_8">
      <!-- 1800 -->
      <g style="fill:#555555;" transform="translate(25.15 282.519779)scale(0.1 -0.1)">
       <use xlink:href="#DejaVuSans-31"/>
       <use x="63.623047" xlink:href="#DejaVuSans-38"/>
       <use x="127.246094" xlink:href="#DejaVuSans-30"/>
       <use x="190.869141" xlink:href="#DejaVuSans-30"/>
      </g>
     </g>
    </g>
    <g id="ytick_2">
     <g id="line2d_15">
      <path clip-path="url(#pa1cacd0bd2)" d="M 57.6 229.007793 
L 414.72 229.007793 
" style="fill:none;stroke:#ffffff;stroke-linecap:square;stroke-width:0.8;"/>
     </g>
     <g id="line2d_16">
      <g>
       <use style="fill:#555555;stroke:#555555;stroke-width:0.8;" x="57.6" xlink:href="#m511930025b" y="229.007793"/>
      </g>
     </g>
     <g id="text_9">
      <!-- 2000 -->
      <g style="fill:#555555;" transform="translate(25.15 232.807011)scale(0.1 -0.1)">
       <use xlink:href="#DejaVuSans-32"/>
       <use x="63.623047" xlink:href="#DejaVuSans-30"/>
       <use x="127.246094" xlink:href="#DejaVuSans-30"/>
       <use x="190.869141" xlink:href="#DejaVuSans-30"/>
      </g>
     </g>
    </g>
    <g id="ytick_3">
     <g id="line2d_17">
      <path clip-path="url(#pa1cacd0bd2)" d="M 57.6 179.295025 
L 414.72 179.295025 
" style="fill:none;stroke:#ffffff;stroke-linecap:square;stroke-width:0.8;"/>
     </g>
     <g id="line2d_18">
      <g>
       <use style="fill:#555555;stroke:#555555;stroke-width:0.8;" x="57.6" xlink:href="#m511930025b" y="179.295025"/>
      </g>
     </g>
     <g id="text_10">
      <!-- 2200 -->
      <g style="fill:#555555;" transform="translate(25.15 183.094244)scale(0.1 -0.1)">
       <use xlink:href="#DejaVuSans-32"/>
       <use x="63.623047" xlink:href="#DejaVuSans-32"/>
       <use x="127.246094" xlink:href="#DejaVuSans-30"/>
       <use x="190.869141" xlink:href="#DejaVuSans-30"/>
      </g>
     </g>
    </g>
    <g id="ytick_4">
     <g id="line2d_19">
      <path clip-path="url(#pa1cacd0bd2)" d="M 57.6 129.582258 
L 414.72 129.582258 
" style="fill:none;stroke:#ffffff;stroke-linecap:square;stroke-width:0.8;"/>
     </g>
     <g id="line2d_20">
      <g>
       <use style="fill:#555555;stroke:#555555;stroke-width:0.8;" x="57.6" xlink:href="#m511930025b" y="129.582258"/>
      </g>
     </g>
     <g id="text_11">
      <!-- 2400 -->
      <g style="fill:#555555;" transform="translate(25.15 133.381477)scale(0.1 -0.1)">
       <use xlink:href="#DejaVuSans-32"/>
       <use x="63.623047" xlink:href="#DejaVuSans-34"/>
       <use x="127.246094" xlink:href="#DejaVuSans-30"/>
       <use x="190.869141" xlink:href="#DejaVuSans-30"/>
      </g>
     </g>
    </g>
    <g id="ytick_5">
     <g id="line2d_21">
      <path clip-path="url(#pa1cacd0bd2)" d="M 57.6 79.869491 
L 414.72 79.869491 
" style="fill:none;stroke:#ffffff;stroke-linecap:square;stroke-width:0.8;"/>
     </g>
     <g id="line2d_22">
      <g>
       <use style="fill:#555555;stroke:#555555;stroke-width:0.8;" x="57.6" xlink:href="#m511930025b" y="79.869491"/>
      </g>
     </g>
     <g id="text_12">
      <!-- 2600 -->
      <g style="fill:#555555;" transform="translate(25.15 83.668709)scale(0.1 -0.1)">
       <use xlink:href="#DejaVuSans-32"/>
       <use x="63.623047" xlink:href="#DejaVuSans-36"/>
       <use x="127.246094" xlink:href="#DejaVuSans-30"/>
       <use x="190.869141" xlink:href="#DejaVuSans-30"/>
      </g>
     </g>
    </g>
    <g id="text_13">
     <!-- editors -->
     <defs>
      <path d="M 9.421875 54.6875 
L 18.40625 54.6875 
L 18.40625 0 
L 9.421875 0 
z
M 9.421875 75.984375 
L 18.40625 75.984375 
L 18.40625 64.59375 
L 9.421875 64.59375 
z
" id="DejaVuSans-69"/>
      <path d="M 30.609375 48.390625 
Q 23.390625 48.390625 19.1875 42.75 
Q 14.984375 37.109375 14.984375 27.296875 
Q 14.984375 17.484375 19.15625 11.84375 
Q 23.34375 6.203125 30.609375 6.203125 
Q 37.796875 6.203125 41.984375 11.859375 
Q 46.1875 17.53125 46.1875 27.296875 
Q 46.1875 37.015625 41.984375 42.703125 
Q 37.796875 48.390625 30.609375 48.390625 
z
M 30.609375 56 
Q 42.328125 56 49.015625 48.375 
Q 55.71875 40.765625 55.71875 27.296875 
Q 55.71875 13.875 49.015625 6.21875 
Q 42.328125 -1.421875 30.609375 -1.421875 
Q 18.84375 -1.421875 12.171875 6.21875 
Q 5.515625 13.875 5.515625 27.296875 
Q 5.515625 40.765625 12.171875 48.375 
Q 18.84375 56 30.609375 56 
z
" id="DejaVuSans-6f"/>
      <path d="M 41.109375 46.296875 
Q 39.59375 47.171875 37.8125 47.578125 
Q 36.03125 48 33.890625 48 
Q 26.265625 48 22.1875 43.046875 
Q 18.109375 38.09375 18.109375 28.8125 
L 18.109375 0 
L 9.078125 0 
L 9.078125 54.6875 
L 18.109375 54.6875 
L 18.109375 46.1875 
Q 20.953125 51.171875 25.484375 53.578125 
Q 30.03125 56 36.53125 56 
Q 37.453125 56 38.578125 55.875 
Q 39.703125 55.765625 41.0625 55.515625 
z
" id="DejaVuSans-72"/>
      <path d="M 44.28125 53.078125 
L 44.28125 44.578125 
Q 40.484375 46.53125 36.375 47.5 
Q 32.28125 48.484375 27.875 48.484375 
Q 21.1875 48.484375 17.84375 46.4375 
Q 14.5 44.390625 14.5 40.28125 
Q 14.5 37.15625 16.890625 35.375 
Q 19.28125 33.59375 26.515625 31.984375 
L 29.59375 31.296875 
Q 39.15625 29.25 43.1875 25.515625 
Q 47.21875 21.78125 47.21875 15.09375 
Q 47.21875 7.46875 41.1875 3.015625 
Q 35.15625 -1.421875 24.609375 -1.421875 
Q 20.21875 -1.421875 15.453125 -0.5625 
Q 10.6875 0.296875 5.421875 2 
L 5.421875 11.28125 
Q 10.40625 8.6875 15.234375 7.390625 
Q 20.0625 6.109375 24.8125 6.109375 
Q 31.15625 6.109375 34.5625 8.28125 
Q 37.984375 10.453125 37.984375 14.40625 
Q 37.984375 18.0625 35.515625 20.015625 
Q 33.0625 21.96875 24.703125 23.78125 
L 21.578125 24.515625 
Q 13.234375 26.265625 9.515625 29.90625 
Q 5.8125 33.546875 5.8125 39.890625 
Q 5.8125 47.609375 11.28125 51.796875 
Q 16.75 56 26.8125 56 
Q 31.78125 56 36.171875 55.265625 
Q 40.578125 54.546875 44.28125 53.078125 
z
" id="DejaVuSans-73"/>
     </defs>
     <g style="fill:#555555;" transform="translate(18.654375 195.311437)rotate(-90)scale(0.12 -0.12)">
      <use xlink:href="#DejaVuSans-65"/>
      <use x="61.523438" xlink:href="#DejaVuSans-64"/>
      <use x="125" xlink:href="#DejaVuSans-69"/>
      <use x="152.783203" xlink:href="#DejaVuSans-74"/>
      <use x="191.992188" xlink:href="#DejaVuSans-6f"/>
      <use x="253.173828" xlink:href="#DejaVuSans-72"/>
      <use x="294.287109" xlink:href="#DejaVuSans-73"/>
     </g>
    </g>
   </g>
   <g id="line2d_23">
    <path clip-path="url(#pa1cacd0bd2)" d="M -1 136.096492 
L -0.286593 143.99896 
L 0.992457 155.930025 
L 2.271507 165.37545 
L 3.550557 180.040717 
L 4.829607 171.340983 
L 6.108658 179.046461 
L 7.387708 161.895557 
L 8.666758 198.434441 
L 9.945808 179.543589 
L 11.224858 175.318004 
L 12.503908 132.067896 
L 13.782958 184.76343 
L 15.062008 147.23029 
L 16.341058 139.524811 
L 17.620108 140.270503 
L 18.899158 124.113854 
L 20.178208 178.30077 
L 21.457258 197.191622 
L 22.736308 123.119598 
L 24.015358 172.583802 
L 25.294408 102.985927 
L 26.573458 126.848056 
L 27.852508 88.072097 
L 29.131559 131.570769 
L 30.410609 168.358216 
L 31.689659 171.589546 
L 32.968709 118.645449 
L 34.247759 192.717473 
L 35.526809 168.60678 
L 36.805859 176.560823 
L 38.084909 179.046461 
L 39.363959 184.266302 
L 40.643009 178.549334 
L 41.922059 169.8496 
L 43.201109 171.589546 
L 44.480159 180.289281 
L 45.759209 179.792153 
L 47.038259 120.385396 
L 48.317309 150.958748 
L 49.596359 195.700239 
L 50.875409 216.579601 
L 52.15446 169.8496 
L 53.43351 157.172844 
L 54.71256 169.103908 
L 55.99161 163.884067 
L 57.27066 166.866833 
L 58.54971 122.373907 
L 59.82876 162.641248 
L 61.10781 105.223002 
L 62.38686 74.898214 
L 63.66591 160.15561 
L 64.94496 167.363961 
L 66.22401 169.352472 
L 67.50306 169.103908 
L 68.78211 175.815132 
L 70.06116 192.717473 
L 71.34021 183.272047 
L 72.61926 166.369706 
L 73.89831 219.810931 
L 75.17736 172.086674 
L 76.456411 165.126887 
L 77.735461 232.73625 
L 79.014511 152.201567 
L 80.293561 97.268959 
L 81.572611 187.249068 
L 82.851661 191.474653 
L 84.130711 147.975982 
L 85.409761 134.553535 
L 86.688811 158.664227 
L 87.967861 178.797898 
L 89.246911 172.335238 
L 90.525961 178.549334 
L 91.805011 137.784865 
L 93.084061 182.774919 
L 94.363111 115.414119 
L 95.642161 151.455876 
L 96.921211 177.057951 
L 98.200261 197.937313 
L 99.479312 137.784865 
L 100.758362 125.108109 
L 102.037412 196.44593 
L 103.316462 190.977526 
L 104.595512 210.365505 
L 105.874562 196.44593 
L 107.153612 213.348271 
L 108.432662 205.642792 
L 109.711712 204.648537 
L 110.990762 202.660026 
L 112.269812 230.250612 
L 113.548862 218.319548 
L 114.827912 219.562367 
L 116.106962 176.312259 
L 117.386012 211.35976 
L 118.665062 200.671515 
L 119.944112 216.828165 
L 121.223162 223.787952 
L 122.502213 205.642792 
L 123.781263 247.65008 
L 125.060313 173.329493 
L 126.339363 194.457419 
L 127.618413 213.348271 
L 128.897463 210.365505 
L 130.176513 187.249068 
L 131.455563 245.910134 
L 132.734613 250.632847 
L 134.013663 196.943058 
L 135.292713 271.015081 
L 136.571763 240.193165 
L 137.850813 216.331037 
L 139.129863 249.638591 
L 140.408913 239.696038 
L 141.687963 272.2579 
L 142.967013 212.354016 
L 144.246063 253.367049 
L 145.525114 236.216144 
L 146.804164 180.289281 
L 148.083214 226.522154 
L 149.362264 208.376994 
L 150.641314 221.799441 
L 151.920364 230.002048 
L 153.199414 262.812475 
L 154.478464 230.002048 
L 155.757514 217.82242 
L 157.036564 238.701782 
L 158.315614 223.290824 
L 159.594664 218.568112 
L 160.873714 211.856888 
L 162.152764 226.522154 
L 163.431814 253.118485 
L 164.710864 224.036516 
L 165.989914 205.394228 
L 167.268964 173.826621 
L 168.548015 226.025027 
L 169.827065 245.164442 
L 171.106115 249.887155 
L 172.385165 225.030771 
L 173.664215 232.984814 
L 174.943265 252.372793 
L 176.222315 251.378538 
L 177.501365 233.233378 
L 178.780415 223.290824 
L 180.059465 225.030771 
L 181.338515 201.665771 
L 182.617565 232.239123 
L 183.896615 226.770718 
L 185.175665 220.059495 
L 187.733765 233.730506 
L 189.012815 217.573856 
L 190.291865 240.690293 
L 191.570915 206.388484 
L 192.849966 236.961836 
L 194.129016 206.637047 
L 195.408066 205.394228 
L 196.687116 144.496088 
L 197.966166 250.632847 
L 199.245216 253.864176 
L 200.524266 212.105452 
L 201.803316 248.644336 
L 203.082366 260.823964 
L 204.361416 226.025027 
L 206.919516 261.321092 
L 208.198566 262.315347 
L 209.477616 250.384283 
L 210.756666 230.250612 
L 212.035716 219.810931 
L 213.314766 171.092419 
L 214.593816 241.435985 
L 215.872867 228.013537 
L 217.151917 221.799441 
L 218.430967 242.43024 
L 219.710017 236.216144 
L 220.989067 207.879867 
L 222.268117 217.82242 
L 223.547167 212.602579 
L 224.826217 179.543589 
L 226.105267 190.231834 
L 227.384317 164.132631 
L 228.663367 158.664227 
L 229.942417 200.671515 
L 231.221467 205.642792 
L 232.500517 193.711728 
L 233.779567 174.572312 
L 235.058617 230.996303 
L 236.337667 208.12843 
L 237.616717 246.158697 
L 238.895768 214.839654 
L 240.174818 225.527899 
L 241.453868 241.187421 
L 242.732918 231.741995 
L 244.011968 217.573856 
L 245.291018 214.342526 
L 246.570068 211.856888 
L 247.849118 173.578057 
L 249.128168 212.354016 
L 250.407218 216.331037 
L 251.686268 197.440185 
L 252.965318 197.688749 
L 254.244368 194.705983 
L 255.523418 172.832366 
L 256.802468 197.191622 
L 258.081518 218.070984 
L 259.360568 177.555078 
L 260.639618 195.700239 
L 261.918669 187.249068 
L 263.197719 138.033428 
L 264.476769 183.272047 
L 265.755819 214.839654 
L 267.034869 169.352472 
L 268.313919 172.583802 
L 269.592969 175.318004 
L 270.872019 109.945715 
L 272.151069 197.191622 
L 273.430119 174.572312 
L 274.709169 186.254813 
L 275.988219 195.948802 
L 277.267269 203.902845 
L 278.546319 104.974438 
L 279.825369 116.159811 
L 281.104419 212.602579 
L 282.383469 192.468909 
L 283.662519 164.381195 
L 284.941569 194.705983 
L 286.22062 183.023483 
L 287.49967 185.260557 
L 288.77872 200.920079 
L 290.05777 162.889812 
L 291.33682 152.698695 
L 292.61587 126.102364 
L 293.89492 128.339439 
L 295.17397 76.389597 
L 296.45302 172.832366 
L 297.73207 198.434441 
L 299.01112 205.642792 
L 300.29017 158.912791 
L 301.56922 190.977526 
L 302.84827 199.925824 
L 304.12732 213.099707 
L 305.40637 222.048005 
L 306.68542 217.325292 
L 307.96447 188.989015 
L 309.243521 193.463164 
L 310.522571 195.948802 
L 311.801621 196.943058 
L 313.080671 201.665771 
L 314.359721 132.565024 
L 315.638771 212.354016 
L 316.917821 185.260557 
L 318.196871 214.093963 
L 319.475921 165.126887 
L 320.754971 152.698695 
L 322.034021 149.218801 
L 323.313071 170.346727 
L 324.592121 200.671515 
L 325.871171 127.842311 
L 327.150221 169.601036 
L 328.429271 143.99896 
L 329.708321 114.916992 
L 330.987371 166.61827 
L 332.266422 158.167099 
L 333.545472 181.283536 
L 334.824522 193.711728 
L 336.103572 169.8496 
L 337.382622 178.30077 
L 338.661672 175.815132 
L 339.940722 190.728962 
L 341.219772 191.474653 
L 342.498822 178.052206 
L 343.777872 196.943058 
L 345.056922 178.30077 
L 346.335972 108.702896 
L 347.615022 163.635504 
L 348.894072 159.161355 
L 350.173122 152.201567 
L 351.452172 179.046461 
L 352.731222 184.266302 
L 354.010272 171.589546 
L 355.289323 182.277791 
L 356.568373 166.866833 
L 357.847423 175.06944 
L 359.126473 135.050662 
L 360.405523 135.050662 
L 361.684573 109.945715 
L 362.963623 187.497632 
L 364.242673 165.126887 
L 365.521723 181.5321 
L 366.800773 177.555078 
L 368.079823 172.086674 
L 369.358873 169.352472 
L 370.637923 165.872578 
L 371.916973 177.555078 
L 373.196023 180.040717 
L 374.475073 161.646993 
L 375.754123 162.144121 
L 377.033173 162.889812 
L 378.312224 197.440185 
L 379.591274 166.866833 
L 380.870324 141.513322 
L 382.149374 163.635504 
L 383.428424 175.06944 
L 384.707474 138.530556 
L 385.986524 135.54779 
L 387.265574 151.207312 
L 388.544624 158.167099 
L 389.823674 192.966036 
L 391.102724 154.935769 
L 392.381774 135.050662 
L 393.660824 148.721673 
L 394.939874 136.293482 
L 396.218924 115.662683 
L 397.497974 186.006249 
L 398.777024 158.415663 
L 400.056074 187.249068 
L 401.335124 173.826621 
L 402.614175 186.254813 
L 403.893225 183.272047 
L 405.172275 181.283536 
L 406.451325 156.178588 
L 407.730375 182.526355 
L 409.009425 185.260557 
L 410.288475 175.815132 
L 410.288475 175.815132 
" style="fill:none;stroke:#e24a33;stroke-linecap:square;stroke-width:1.5;"/>
   </g>
   <g id="line2d_24">
    <path clip-path="url(#pa1cacd0bd2)" d="M -1 143.373054 
L -0.103871 120.385396 
L 1.175179 178.797898 
L 2.454229 187.746196 
L 3.733279 154.935769 
L 5.012329 178.052206 
L 6.291379 188.989015 
L 7.570429 189.734706 
L 8.849479 201.914334 
L 10.128529 180.786408 
L 11.407579 169.601036 
L 12.686629 161.895557 
L 13.965679 166.121142 
L 15.244729 155.681461 
L 16.523779 157.918535 
L 17.802829 143.750397 
L 19.08188 140.270503 
L 20.36093 170.346727 
L 21.63998 149.218801 
L 22.91903 167.363961 
L 24.19808 173.578057 
L 25.47713 75.892469 
L 26.75618 143.501833 
L 28.03523 107.70864 
L 29.31428 172.086674 
L 30.59333 172.335238 
L 31.87238 180.289281 
L 33.15143 149.964493 
L 34.43048 186.254813 
L 35.70953 145.738907 
L 36.98858 172.086674 
L 38.26763 169.352472 
L 39.54668 160.15561 
L 40.82573 177.306515 
L 42.104781 168.855344 
L 43.383831 193.711728 
L 44.662881 151.455876 
L 45.941931 165.872578 
L 47.220981 181.780664 
L 48.500031 176.809387 
L 49.779081 168.60678 
L 51.058131 180.040717 
L 52.337181 165.872578 
L 53.616231 148.970237 
L 54.895281 176.560823 
L 56.174331 166.866833 
L 57.453381 155.930025 
L 60.011481 175.318004 
L 61.290531 136.542045 
L 62.569581 139.773375 
L 63.848631 173.329493 
L 65.127681 179.543589 
L 66.406732 187.000504 
L 67.685782 184.266302 
L 68.964832 188.243323 
L 70.243882 204.399973 
L 71.522932 191.723217 
L 72.801982 203.654281 
L 74.081032 201.417207 
L 75.360082 196.943058 
L 76.639132 210.862633 
L 77.918182 235.470452 
L 79.197232 146.236035 
L 80.476282 182.526355 
L 81.755332 187.746196 
L 83.034382 179.046461 
L 84.313432 167.115397 
L 85.592482 173.080929 
L 86.871532 153.444386 
L 88.150582 170.346727 
L 89.429633 190.728962 
L 90.708683 199.428696 
L 91.987733 159.907046 
L 93.266783 171.092419 
L 94.545833 81.609437 
L 95.824883 169.8496 
L 97.103933 192.717473 
L 98.382983 192.220345 
L 99.662033 184.76343 
L 100.941083 194.208856 
L 102.220133 189.98327 
L 103.499183 211.35976 
L 104.778233 203.157154 
L 106.057283 191.474653 
L 107.336333 198.434441 
L 108.615383 213.845399 
L 111.173483 208.625558 
L 112.452534 205.145664 
L 113.731584 232.239123 
L 115.010634 207.134175 
L 116.289684 212.602579 
L 117.568734 193.711728 
L 118.847784 238.204655 
L 120.126834 205.394228 
L 121.405884 212.354016 
L 122.684934 215.585346 
L 123.963984 254.858432 
L 126.522084 223.290824 
L 127.801134 229.007793 
L 129.080184 226.025027 
L 130.359234 244.667314 
L 132.917334 217.076729 
L 134.196384 256.101251 
L 135.475435 263.558166 
L 136.754485 230.74774 
L 138.033535 241.435985 
L 139.312585 254.609868 
L 140.591635 229.007793 
L 141.870685 257.095506 
L 143.149735 267.286624 
L 144.428785 275.240666 
L 145.707835 210.116941 
L 146.986885 236.713272 
L 148.265935 243.673059 
L 149.544985 216.579601 
L 150.824035 218.816675 
L 152.103085 193.463164 
L 153.382135 238.204655 
L 154.661185 237.707527 
L 155.940235 211.111196 
L 157.219285 221.550878 
L 158.498336 228.262101 
L 159.777386 218.319548 
L 161.056436 196.694494 
L 162.335486 227.019282 
L 163.614536 247.65008 
L 164.893586 240.690293 
L 166.172636 182.277791 
L 167.451686 178.052206 
L 168.730736 235.96758 
L 170.009786 255.106996 
L 171.288836 221.302314 
L 173.846936 226.273591 
L 175.125986 242.43024 
L 176.405036 241.684548 
L 177.684086 220.805186 
L 178.963136 228.759229 
L 180.242186 239.447474 
L 181.521236 229.50492 
L 182.800287 243.424495 
L 184.079337 236.713272 
L 185.358387 221.799441 
L 186.637437 254.858432 
L 187.916487 250.384283 
L 189.195537 229.007793 
L 190.474587 236.464708 
L 191.753637 246.158697 
L 193.032687 219.562367 
L 194.311737 217.82242 
L 195.590787 231.244867 
L 196.869837 238.453219 
L 198.148887 249.141464 
L 199.427937 252.12423 
L 200.706987 250.632847 
L 201.986037 262.563911 
L 203.265087 251.627102 
L 204.544137 243.921623 
L 205.823188 269.275134 
L 207.102238 272.2579 
L 208.381288 244.667314 
L 209.660338 222.048005 
L 210.939388 230.996303 
L 212.218438 200.174388 
L 213.497488 229.50492 
L 214.776538 221.302314 
L 216.055588 226.770718 
L 217.334638 224.036516 
L 218.613688 223.290824 
L 219.892738 228.510665 
L 221.171788 218.070984 
L 222.450838 214.342526 
L 223.729888 225.279335 
L 225.008938 216.331037 
L 226.287988 198.683005 
L 227.567038 168.855344 
L 228.846089 198.683005 
L 230.125139 194.954547 
L 231.404189 207.382739 
L 232.683239 81.360874 
L 233.962289 170.843855 
L 235.241339 223.539388 
L 236.520389 223.539388 
L 237.799439 252.12423 
L 239.078489 267.286624 
L 240.357539 259.332581 
L 241.636589 227.267846 
L 242.915639 215.833909 
L 244.194689 238.950346 
L 245.473739 205.642792 
L 248.031839 230.002048 
L 249.310889 193.463164 
L 250.589939 213.596835 
L 251.86899 211.608324 
L 253.14804 210.862633 
L 254.42709 192.717473 
L 255.70614 195.451675 
L 256.98519 183.023483 
L 258.26424 235.221889 
L 259.54329 172.832366 
L 260.82234 203.405718 
L 262.10139 171.589546 
L 263.38044 190.977526 
L 264.65949 182.526355 
L 265.93854 167.612525 
L 267.21759 144.993216 
L 268.49664 174.572312 
L 269.77569 165.624014 
L 271.05474 168.855344 
L 272.33379 164.878323 
L 273.61284 185.757685 
L 274.89189 187.000504 
L 276.170941 186.006249 
L 277.449991 184.76343 
L 278.729041 123.616726 
L 280.008091 186.503377 
L 281.287141 208.12843 
L 282.566191 170.098163 
L 283.845241 197.440185 
L 285.124291 185.011994 
L 286.403341 178.797898 
L 287.682391 167.363961 
L 288.961441 195.948802 
L 290.240491 175.318004 
L 291.519541 189.486143 
L 292.798591 181.5321 
L 294.077641 130.079386 
L 295.356691 143.99896 
L 296.635741 183.272047 
L 297.914791 231.493431 
L 299.193842 206.388484 
L 300.472892 123.86529 
L 301.751942 193.711728 
L 303.030992 180.537845 
L 304.310042 208.376994 
L 305.589092 224.533644 
L 306.868142 191.474653 
L 308.147192 212.602579 
L 309.426242 200.920079 
L 310.705292 205.891356 
L 311.984342 195.948802 
L 313.263392 206.13992 
L 314.542442 203.654281 
L 315.821492 197.191622 
L 317.100542 167.861089 
L 318.379592 209.37125 
L 319.658642 166.61827 
L 320.937692 103.731619 
L 322.216743 173.578057 
L 323.495793 182.029228 
L 324.774843 181.5321 
L 326.053893 146.484599 
L 327.332943 153.195822 
L 328.611993 152.450131 
L 329.891043 193.2146 
L 331.170093 194.954547 
L 332.449143 163.635504 
L 333.728193 199.67726 
L 335.007243 191.474653 
L 336.286293 156.178588 
L 337.565343 171.83811 
L 340.123443 214.093963 
L 341.402493 190.231834 
L 342.681543 181.283536 
L 343.960593 170.595291 
L 345.239644 165.624014 
L 346.518694 192.966036 
L 347.797744 189.98327 
L 349.076794 177.306515 
L 350.355844 152.947259 
L 351.634894 157.669972 
L 352.913944 159.907046 
L 354.192994 170.346727 
L 355.472044 188.491887 
L 356.751094 169.352472 
L 358.030144 172.583802 
L 359.309194 157.172844 
L 360.588244 151.953003 
L 361.867294 136.293482 
L 363.146344 154.687205 
L 365.704444 197.191622 
L 366.983494 138.77912 
L 368.262544 179.295025 
L 369.541595 182.526355 
L 370.820645 178.549334 
L 372.099695 182.526355 
L 374.657795 155.184333 
L 375.936845 174.572312 
L 377.215895 178.797898 
L 378.494945 172.832366 
L 379.773995 185.509121 
L 381.053045 191.226089 
L 382.332095 169.601036 
L 383.611145 172.086674 
L 384.890195 161.895557 
L 386.169245 137.536301 
L 387.448295 156.92428 
L 388.727345 155.432897 
L 390.006395 204.151409 
L 391.285445 149.467365 
L 392.564496 176.312259 
L 393.843546 172.335238 
L 395.122596 169.352472 
L 396.401646 159.907046 
L 397.680696 207.879867 
L 398.959746 144.496088 
L 400.238796 211.35976 
L 401.517846 184.017738 
L 402.796896 166.121142 
L 404.075946 193.711728 
L 405.354996 184.76343 
L 406.634046 144.247524 
L 407.913096 200.671515 
L 409.192146 212.105452 
L 410.471196 181.780664 
L 410.471196 181.780664 
" style="fill:none;stroke:#348abd;stroke-linecap:square;stroke-width:1.5;"/>
   </g>
   <g id="line2d_25">
    <path clip-path="url(#pa1cacd0bd2)" d="M -1 152.275011 
L 0.07885 91.054863 
L 1.3579 168.109653 
L 2.63695 182.277791 
L 3.916 116.656938 
L 5.19505 159.658482 
L 6.4741 181.034972 
L 7.75315 176.809387 
L 9.032201 218.816675 
L 10.311251 201.417207 
L 11.590301 115.662683 
L 12.869351 191.971781 
L 14.148401 157.421408 
L 15.427451 166.121142 
L 16.706501 155.930025 
L 17.985551 129.333694 
L 19.264601 141.513322 
L 20.543651 181.780664 
L 21.822701 149.964493 
L 23.101751 156.427152 
L 24.380801 170.098163 
L 25.659851 136.293482 
L 26.938901 129.333694 
L 28.217951 96.523268 
L 29.497001 135.050662 
L 30.776051 179.792153 
L 32.055102 169.103908 
L 33.334152 141.761886 
L 34.613202 181.034972 
L 35.892252 174.075185 
L 37.171302 174.820876 
L 38.450352 183.769174 
L 39.729402 174.323749 
L 41.008452 166.61827 
L 42.287502 162.641248 
L 43.566552 185.260557 
L 44.845602 166.121142 
L 46.124652 186.503377 
L 47.403702 189.734706 
L 48.682752 172.832366 
L 49.961802 163.635504 
L 51.240852 172.335238 
L 52.519902 165.872578 
L 53.798952 166.61827 
L 55.078002 140.519067 
L 57.636103 167.612525 
L 58.915153 168.358216 
L 60.194203 172.086674 
L 61.473253 121.876779 
L 62.752303 158.415663 
L 64.031353 171.092419 
L 65.310403 174.820876 
L 66.589453 175.815132 
L 67.868503 189.486143 
L 69.147553 191.971781 
L 70.426603 207.631303 
L 71.705653 191.723217 
L 72.984703 209.868377 
L 74.263753 202.162898 
L 75.542803 202.90859 
L 76.821853 180.040717 
L 78.100903 197.191622 
L 79.379954 186.254813 
L 80.659004 176.809387 
L 81.938054 172.832366 
L 83.217104 160.652738 
L 84.496154 161.646993 
L 85.775204 178.30077 
L 87.054254 161.149865 
L 88.333304 168.855344 
L 89.612354 158.415663 
L 90.891404 162.889812 
L 92.170454 119.639704 
L 93.449504 168.358216 
L 94.728554 105.72013 
L 96.007604 190.728962 
L 97.286654 188.491887 
L 98.565704 184.76343 
L 99.844754 176.809387 
L 101.123804 191.723217 
L 102.402855 219.562367 
L 103.681905 216.579601 
L 104.960955 195.203111 
L 106.240005 222.296569 
L 107.519055 207.879867 
L 108.798105 190.728962 
L 110.077155 197.440185 
L 111.356205 205.394228 
L 112.635255 208.874122 
L 113.914305 217.82242 
L 115.193355 211.608324 
L 116.472405 203.654281 
L 117.751455 200.422951 
L 119.030505 220.059495 
L 120.309555 219.810931 
L 121.588605 225.776463 
L 122.867655 241.435985 
L 124.146705 222.793697 
L 125.425756 235.719016 
L 126.704806 240.938857 
L 127.983856 216.828165 
L 129.262906 220.805186 
L 130.541956 225.279335 
L 131.821006 244.915878 
L 133.100056 245.413006 
L 134.379106 248.644336 
L 135.658156 272.755028 
L 136.937206 245.164442 
L 139.495306 224.782207 
L 140.774356 246.904389 
L 142.053406 249.390027 
L 143.332456 256.349815 
L 144.611506 302.334125 
L 145.890556 221.799441 
L 147.169606 229.50492 
L 148.448656 221.05375 
L 149.727707 233.233378 
L 151.006757 228.510665 
L 152.285807 235.221889 
L 153.564857 228.759229 
L 154.843907 233.233378 
L 156.122957 216.331037 
L 157.402007 242.927368 
L 158.681057 226.522154 
L 159.960107 196.197366 
L 161.239157 182.029228 
L 162.518207 244.170187 
L 163.797257 250.632847 
L 165.076307 250.88141 
L 166.355357 242.927368 
L 167.634407 242.927368 
L 168.913457 222.048005 
L 170.192507 248.644336 
L 171.471557 241.684548 
L 172.750608 225.279335 
L 174.029658 220.805186 
L 176.587758 264.800985 
L 177.866808 236.713272 
L 179.145858 240.690293 
L 180.424908 246.158697 
L 181.703958 238.950346 
L 182.983008 235.96758 
L 184.262058 237.956091 
L 185.541108 239.447474 
L 186.820158 240.690293 
L 188.099208 230.74774 
L 189.378258 216.331037 
L 190.657308 228.759229 
L 191.936358 256.101251 
L 193.215408 230.996303 
L 194.494458 194.705983 
L 195.773509 235.719016 
L 197.052559 241.435985 
L 198.331609 231.741995 
L 199.610659 252.869921 
L 200.889709 250.88141 
L 202.168759 262.563911 
L 203.447809 246.904389 
L 204.726859 261.321092 
L 206.005909 248.8929 
L 207.284959 280.460507 
L 209.843059 261.818219 
L 211.122109 274.246411 
L 212.401159 219.065239 
L 213.680209 222.793697 
L 214.959259 223.042261 
L 216.238309 217.076729 
L 217.517359 229.753484 
L 218.79641 191.971781 
L 220.07546 214.342526 
L 221.35451 226.273591 
L 222.63356 213.596835 
L 223.91261 223.290824 
L 225.19166 191.723217 
L 226.47071 195.451675 
L 227.74976 140.767631 
L 229.02881 207.134175 
L 230.30786 230.996303 
L 231.58691 180.786408 
L 232.86596 181.283536 
L 234.14501 165.37545 
L 235.42406 225.776463 
L 236.70311 228.510665 
L 237.98216 236.961836 
L 239.26121 239.19891 
L 240.54026 239.447474 
L 241.819311 216.331037 
L 243.098361 214.342526 
L 244.377411 193.711728 
L 245.656461 210.614069 
L 246.935511 221.799441 
L 248.214561 190.977526 
L 249.493611 214.59109 
L 250.772661 207.631303 
L 252.051711 213.845399 
L 253.330761 217.076729 
L 254.609811 182.526355 
L 255.888861 204.399973 
L 257.167911 184.514866 
L 258.446961 232.239123 
L 259.726011 158.664227 
L 261.005061 187.99476 
L 262.284111 159.409918 
L 263.563161 199.180132 
L 264.842211 174.572312 
L 266.121262 191.474653 
L 267.400312 172.583802 
L 268.679362 181.283536 
L 269.958412 157.172844 
L 271.237462 180.537845 
L 272.516512 155.432897 
L 273.795562 201.665771 
L 275.074612 212.105452 
L 276.353662 154.190078 
L 277.632712 200.422951 
L 278.911762 122.373907 
L 280.190812 188.740451 
L 281.469862 210.116941 
L 282.748912 176.560823 
L 284.027962 183.272047 
L 285.307012 182.029228 
L 286.586062 147.975982 
L 287.865112 184.266302 
L 289.144163 201.417207 
L 290.423213 177.306515 
L 291.702263 198.434441 
L 292.981313 170.595291 
L 294.260363 128.588003 
L 295.539413 142.507577 
L 296.818463 189.237579 
L 298.097513 200.671515 
L 299.376563 182.774919 
L 300.655613 126.848056 
L 301.934663 207.382739 
L 303.213713 226.522154 
L 304.492763 193.2146 
L 305.771813 222.048005 
L 307.050863 205.394228 
L 308.329913 233.730506 
L 309.608963 191.723217 
L 310.888013 198.931568 
L 312.167064 208.376994 
L 313.446114 216.331037 
L 314.725164 188.243323 
L 316.004214 197.440185 
L 317.283264 167.115397 
L 318.562314 208.625558 
L 319.841364 163.884067 
L 321.120414 161.646993 
L 322.399464 183.272047 
L 323.678514 189.98327 
L 324.957564 219.313803 
L 326.236614 192.717473 
L 327.515664 176.312259 
L 328.794714 187.99476 
L 330.073764 219.065239 
L 331.352814 183.520611 
L 332.631864 188.243323 
L 333.910914 173.826621 
L 335.189965 222.296569 
L 336.469015 186.75194 
L 337.748065 143.99896 
L 340.306165 214.59109 
L 342.864265 189.98327 
L 344.143315 195.948802 
L 345.422365 154.190078 
L 346.701415 199.180132 
L 347.980465 187.249068 
L 349.259515 171.092419 
L 350.538565 166.369706 
L 351.817615 154.438642 
L 353.096665 185.757685 
L 354.375715 182.774919 
L 355.654765 176.312259 
L 356.933815 171.092419 
L 358.212865 176.809387 
L 360.770966 162.144121 
L 362.050016 138.281992 
L 363.329066 208.12843 
L 364.608116 185.509121 
L 365.887166 201.168643 
L 367.166216 153.69295 
L 368.445266 176.063695 
L 369.724316 206.13992 
L 371.003366 176.063695 
L 372.282416 187.000504 
L 373.561466 144.247524 
L 374.840516 168.109653 
L 376.119566 158.664227 
L 377.398616 160.901301 
L 378.677666 172.335238 
L 379.956716 197.688749 
L 381.235766 174.572312 
L 382.514817 175.318004 
L 383.793867 173.826621 
L 385.072917 178.30077 
L 386.351967 136.293482 
L 387.631017 168.358216 
L 388.910067 171.340983 
L 390.189117 189.734706 
L 391.468167 188.491887 
L 392.747217 178.797898 
L 394.026267 170.346727 
L 395.305317 160.15561 
L 396.584367 162.889812 
L 397.863417 199.67726 
L 399.142467 169.103908 
L 400.421517 183.272047 
L 401.700567 169.103908 
L 402.979617 190.977526 
L 404.258667 179.295025 
L 405.537718 152.201567 
L 406.816768 167.861089 
L 408.095818 200.174388 
L 409.374868 208.874122 
L 410.653918 195.451675 
L 410.653918 195.451675 
" style="fill:none;stroke:#988ed5;stroke-linecap:square;stroke-width:1.5;"/>
   </g>
   <g id="line2d_26">
    <path clip-path="url(#pa1cacd0bd2)" d="M -1 177.19964 
L 0.261572 115.662683 
L 1.540622 169.601036 
L 2.819672 196.44593 
L 4.098722 186.75194 
L 5.377772 166.121142 
L 6.656822 200.920079 
L 7.935872 183.769174 
L 9.214922 204.897101 
L 10.493972 192.468909 
L 11.773022 143.253269 
L 13.052072 163.884067 
L 14.331122 169.601036 
L 15.610172 165.872578 
L 16.889222 161.149865 
L 18.168272 143.99896 
L 19.447322 171.092419 
L 20.726372 142.01045 
L 22.005423 150.958748 
L 23.284473 165.872578 
L 24.563523 168.358216 
L 25.842573 151.704439 
L 27.121623 120.63396 
L 28.400673 120.385396 
L 29.679723 178.052206 
L 30.958773 182.029228 
L 32.237823 178.797898 
L 33.516873 98.014651 
L 34.795923 198.683005 
L 36.074973 174.820876 
L 37.354023 180.537845 
L 38.633073 185.260557 
L 39.912123 176.809387 
L 41.191173 205.394228 
L 42.470223 176.063695 
L 43.749273 172.335238 
L 45.028323 182.526355 
L 46.307374 178.30077 
L 47.586424 181.5321 
L 48.865474 165.126887 
L 50.144524 197.688749 
L 51.423574 182.029228 
L 52.702624 152.201567 
L 53.981674 149.467365 
L 55.260724 147.23029 
L 56.539774 160.652738 
L 57.818824 165.624014 
L 59.097874 171.83811 
L 60.376924 176.312259 
L 61.655974 158.167099 
L 62.935024 172.832366 
L 64.214074 174.075185 
L 65.493124 173.080929 
L 66.772174 190.977526 
L 68.051224 189.98327 
L 69.330275 208.376994 
L 70.609325 194.954547 
L 71.888375 209.37125 
L 73.167425 199.428696 
L 74.446475 205.642792 
L 75.725525 218.319548 
L 77.004575 187.249068 
L 78.283625 159.658482 
L 80.841725 192.717473 
L 82.120775 198.185877 
L 83.399825 161.149865 
L 84.678875 152.947259 
L 85.957925 161.895557 
L 87.236975 174.820876 
L 88.516025 150.46162 
L 89.795075 170.595291 
L 91.074125 173.578057 
L 92.353176 179.543589 
L 94.911276 121.131087 
L 96.190326 197.688749 
L 97.469376 187.000504 
L 98.748426 211.608324 
L 100.027476 151.207312 
L 101.306526 202.660026 
L 102.585576 192.468909 
L 103.864626 209.868377 
L 105.143676 168.855344 
L 106.422726 211.608324 
L 107.701776 202.162898 
L 108.980826 189.98327 
L 110.259876 204.897101 
L 111.538926 183.520611 
L 112.817976 232.239123 
L 114.097026 228.510665 
L 115.376077 206.13992 
L 117.934177 228.262101 
L 119.213227 211.111196 
L 120.492277 215.585346 
L 121.771327 224.036516 
L 123.050377 230.74774 
L 124.329427 225.279335 
L 125.608477 266.789496 
L 126.887527 270.766517 
L 128.166577 235.221889 
L 129.445627 225.030771 
L 130.724677 264.055294 
L 132.003727 229.753484 
L 133.282777 254.858432 
L 134.561827 250.88141 
L 135.840877 276.980613 
L 137.119927 245.413006 
L 138.398977 254.609868 
L 139.678028 251.129974 
L 140.957078 268.032315 
L 142.236128 251.129974 
L 143.515178 258.089762 
L 144.794228 252.372793 
L 146.073278 232.239123 
L 147.352328 235.470452 
L 148.631378 234.476197 
L 149.910428 221.799441 
L 151.189478 240.193165 
L 152.468528 242.181676 
L 153.747578 241.933112 
L 155.026628 223.042261 
L 156.305678 243.673059 
L 158.863778 219.065239 
L 160.142828 222.048005 
L 161.421878 177.057951 
L 162.700929 252.621357 
L 163.979979 234.724761 
L 165.259029 248.395772 
L 166.538079 228.013537 
L 167.817129 231.493431 
L 169.096179 245.164442 
L 170.375229 255.604123 
L 171.654279 244.418751 
L 172.933329 215.088218 
L 174.212379 242.43024 
L 175.491429 253.615613 
L 176.770479 253.864176 
L 178.049529 250.384283 
L 179.328579 231.741995 
L 180.607629 253.864176 
L 181.886679 231.493431 
L 183.165729 214.839654 
L 184.444779 249.141464 
L 185.72383 230.250612 
L 187.00288 243.424495 
L 188.28193 234.724761 
L 189.56098 230.499176 
L 190.84003 247.152953 
L 192.11908 247.401517 
L 193.39813 218.816675 
L 194.67718 224.28508 
L 195.95623 243.921623 
L 197.23528 254.609868 
L 198.51433 250.88141 
L 199.79338 258.835453 
L 201.07243 252.869921 
L 202.35148 271.263645 
L 203.63053 265.298113 
L 204.90958 263.309602 
L 206.18863 261.818219 
L 207.46768 262.315347 
L 208.746731 268.280879 
L 210.025781 262.066783 
L 211.304831 275.240666 
L 212.583881 224.28508 
L 213.862931 216.828165 
L 215.141981 223.787952 
L 216.421031 236.961836 
L 217.700081 243.175931 
L 218.979131 242.43024 
L 220.258181 236.961836 
L 222.816281 228.262101 
L 224.095331 239.944602 
L 225.374381 192.220345 
L 226.653431 171.83811 
L 227.932481 155.930025 
L 229.211531 243.175931 
L 230.490581 220.556622 
L 231.769632 203.902845 
L 233.048682 249.141464 
L 234.327732 216.579601 
L 235.606782 243.175931 
L 236.885832 257.34407 
L 238.164882 224.28508 
L 239.443932 265.049549 
L 240.722982 244.915878 
L 242.002032 209.868377 
L 243.281082 252.12423 
L 245.839182 195.948802 
L 247.118232 211.35976 
L 248.397282 216.331037 
L 249.676332 207.134175 
L 252.234432 228.510665 
L 253.513482 206.388484 
L 254.792532 199.67726 
L 256.071583 191.723217 
L 257.350633 237.707527 
L 258.629683 228.013537 
L 259.908733 211.856888 
L 261.187783 169.8496 
L 263.745883 205.145664 
L 265.024933 211.111196 
L 266.303983 208.12843 
L 267.583033 201.168643 
L 268.862083 214.342526 
L 270.141133 179.543589 
L 271.420183 196.694494 
L 272.699233 186.006249 
L 273.978283 202.90859 
L 275.257333 186.503377 
L 276.536383 221.799441 
L 277.815433 240.690293 
L 279.094484 156.675716 
L 280.373534 197.440185 
L 281.652584 185.260557 
L 282.931634 182.526355 
L 284.210684 183.272047 
L 285.489734 138.77912 
L 286.768784 145.987471 
L 288.047834 190.977526 
L 289.326884 199.428696 
L 290.605934 189.237579 
L 291.884984 190.728962 
L 293.164034 182.029228 
L 294.443084 118.396885 
L 295.722134 123.616726 
L 297.001184 195.948802 
L 298.280234 202.411462 
L 299.559284 185.757685 
L 300.838334 132.067896 
L 302.117385 205.394228 
L 303.396435 206.13992 
L 304.675485 212.851143 
L 305.954535 217.573856 
L 307.233585 204.151409 
L 308.512635 213.348271 
L 309.791685 203.902845 
L 311.070735 199.925824 
L 312.349785 214.839654 
L 313.628835 211.35976 
L 314.907885 171.340983 
L 316.186935 184.514866 
L 317.465985 213.099707 
L 318.745035 199.180132 
L 320.024085 165.37545 
L 321.303135 116.656938 
L 322.582185 143.501833 
L 325.140286 226.522154 
L 326.419336 109.945715 
L 327.698386 175.06944 
L 328.977436 174.075185 
L 330.256486 209.868377 
L 331.535536 198.683005 
L 332.814586 195.203111 
L 334.093636 122.125343 
L 335.372686 209.122686 
L 336.651736 207.631303 
L 337.930786 222.048005 
L 339.209836 195.203111 
L 340.488886 194.705983 
L 341.767936 216.579601 
L 343.046986 183.023483 
L 344.326036 181.780664 
L 345.605086 152.947259 
L 346.884136 177.803642 
L 348.163186 183.272047 
L 349.442237 196.44593 
L 350.721287 171.589546 
L 352.000337 162.641248 
L 353.279387 187.746196 
L 354.558437 185.011994 
L 355.837487 165.624014 
L 357.116537 162.889812 
L 358.395587 177.057951 
L 359.674637 178.549334 
L 360.953687 143.004705 
L 362.232737 142.01045 
L 363.511787 204.151409 
L 364.790837 180.040717 
L 366.069887 177.555078 
L 367.348937 148.970237 
L 368.627987 187.497632 
L 369.907037 178.30077 
L 371.186087 161.398429 
L 372.465138 170.595291 
L 373.744188 155.184333 
L 375.023238 171.092419 
L 376.302288 170.346727 
L 377.581338 184.514866 
L 378.860388 187.99476 
L 380.139438 200.174388 
L 381.418488 199.67726 
L 382.697538 182.277791 
L 383.976588 176.312259 
L 385.255638 185.509121 
L 386.534688 144.496088 
L 387.813738 176.063695 
L 389.092788 153.941514 
L 390.371838 171.589546 
L 391.650888 186.254813 
L 392.929938 192.717473 
L 394.208988 201.168643 
L 395.488039 183.023483 
L 396.767089 186.75194 
L 398.046139 172.583802 
L 399.325189 180.537845 
L 400.604239 196.44593 
L 401.883289 173.578057 
L 403.162339 196.44593 
L 404.441389 146.484599 
L 405.720439 174.323749 
L 406.999489 171.83811 
L 408.278539 218.319548 
L 409.557589 212.602579 
L 410.836639 209.37125 
L 410.836639 209.37125 
" style="fill:none;stroke:#777777;stroke-linecap:square;stroke-width:1.5;"/>
   </g>
   <g id="line2d_27">
    <path clip-path="url(#pa1cacd0bd2)" d="M -1 158.630884 
L -0.834757 159.658482 
L 0.444293 96.523268 
L 1.723343 171.340983 
L 3.002393 142.756141 
L 4.281443 192.220345 
L 5.560493 166.121142 
L 6.839543 206.388484 
L 8.118593 209.122686 
L 9.397643 160.652738 
L 10.676693 192.220345 
L 11.955744 123.616726 
L 13.234794 162.144121 
L 14.513844 158.415663 
L 15.792894 142.01045 
L 17.071944 133.807843 
L 18.350994 140.021939 
L 19.630044 153.444386 
L 20.909094 135.796354 
L 22.188144 133.559279 
L 23.467194 135.54779 
L 24.746244 154.687205 
L 26.025294 106.714385 
L 27.304344 100.003161 
L 28.583394 111.188534 
L 29.862444 168.60678 
L 31.141494 164.629759 
L 32.420544 170.595291 
L 33.699594 116.159811 
L 34.978644 161.149865 
L 36.257695 169.103908 
L 37.536745 153.444386 
L 38.815795 184.017738 
L 40.094845 193.2146 
L 41.373895 171.092419 
L 42.652945 153.195822 
L 43.931995 155.432897 
L 45.211045 175.318004 
L 46.490095 164.381195 
L 47.769145 160.652738 
L 49.048195 184.266302 
L 50.327245 173.826621 
L 51.606295 186.006249 
L 52.885345 134.802099 
L 54.164395 156.178588 
L 55.443445 123.616726 
L 56.722495 150.213056 
L 58.001545 171.092419 
L 59.280596 171.340983 
L 60.559646 151.953003 
L 61.838696 141.264758 
L 63.117746 172.335238 
L 64.396796 183.023483 
L 65.675846 171.83811 
L 66.954896 188.491887 
L 68.233946 178.797898 
L 69.512996 197.440185 
L 70.792046 137.039173 
L 72.071096 188.740451 
L 73.350146 233.233378 
L 74.629196 220.805186 
L 75.908246 217.82242 
L 78.466346 152.698695 
L 79.745396 170.595291 
L 81.024446 158.167099 
L 82.303497 154.935769 
L 83.582547 139.276248 
L 84.861597 178.30077 
L 86.140647 167.363961 
L 87.419697 162.144121 
L 88.698747 134.056407 
L 89.977797 180.537845 
L 91.256847 175.815132 
L 92.535897 172.335238 
L 93.814947 161.895557 
L 95.093997 128.588003 
L 96.373047 187.249068 
L 97.652097 204.897101 
L 98.931147 193.960292 
L 100.210197 155.681461 
L 101.489247 191.723217 
L 102.768297 194.954547 
L 104.047347 199.925824 
L 105.326398 203.902845 
L 106.605448 196.197366 
L 107.884498 220.059495 
L 109.163548 202.411462 
L 110.442598 234.973325 
L 111.721648 192.966036 
L 113.000698 232.984814 
L 114.279748 220.308058 
L 115.558798 214.342526 
L 116.837848 216.082473 
L 118.116898 242.927368 
L 119.395948 211.35976 
L 120.674998 216.828165 
L 121.954048 196.44593 
L 123.233098 239.944602 
L 124.512148 246.407261 
L 125.791198 263.80673 
L 127.070248 232.73625 
L 128.349298 220.805186 
L 130.907399 254.858432 
L 132.186449 208.12843 
L 133.465499 233.979069 
L 134.744549 241.435985 
L 136.023599 262.315347 
L 137.302649 231.990559 
L 138.581699 261.569655 
L 139.860749 241.435985 
L 141.139799 258.338325 
L 142.418849 269.02657 
L 143.697899 256.846942 
L 144.976949 218.816675 
L 146.255999 239.19891 
L 147.535049 225.527899 
L 148.814099 217.82242 
L 150.093149 231.493431 
L 151.372199 224.036516 
L 152.65125 240.193165 
L 153.9303 220.059495 
L 155.20935 214.342526 
L 156.4884 220.805186 
L 157.76745 230.74774 
L 159.0465 217.325292 
L 160.32555 218.070984 
L 161.6046 180.040717 
L 162.88365 231.741995 
L 164.1627 240.690293 
L 165.44175 242.181676 
L 166.7208 216.828165 
L 167.99985 243.921623 
L 169.2789 246.158697 
L 170.55795 244.170187 
L 171.837 253.615613 
L 173.11605 222.545133 
L 174.3951 243.175931 
L 175.674151 249.638591 
L 176.953201 231.741995 
L 178.232251 223.042261 
L 179.511301 234.476197 
L 180.790351 239.944602 
L 182.069401 237.210399 
L 183.348451 232.487686 
L 184.627501 251.129974 
L 185.906551 235.719016 
L 187.185601 242.43024 
L 188.464651 213.099707 
L 189.743701 237.458963 
L 191.022751 240.441729 
L 192.301801 248.644336 
L 193.580851 234.476197 
L 194.859901 209.619813 
L 196.138951 238.701782 
L 197.418001 259.332581 
L 198.697052 259.084017 
L 199.976102 238.453219 
L 202.534202 269.772262 
L 203.813252 257.34407 
L 205.092302 270.517953 
L 206.371352 254.609868 
L 207.650402 276.234922 
L 208.929452 272.506464 
L 210.208502 260.326836 
L 211.487552 261.818219 
L 212.766602 227.51641 
L 214.045652 226.770718 
L 215.324702 225.030771 
L 216.603752 221.550878 
L 217.882802 243.175931 
L 219.161852 246.158697 
L 220.440902 229.007793 
L 221.719952 226.522154 
L 222.999003 200.174388 
L 224.278053 209.868377 
L 225.557103 215.585346 
L 226.836153 189.237579 
L 228.115203 166.121142 
L 229.394253 222.793697 
L 230.673303 203.902845 
L 231.952353 231.493431 
L 233.231403 246.407261 
L 234.510453 205.394228 
L 235.789503 230.74774 
L 237.068553 251.627102 
L 238.347603 246.904389 
L 239.626653 240.193165 
L 240.905703 228.510665 
L 242.184753 235.719016 
L 243.463803 227.019282 
L 244.742853 195.451675 
L 246.021904 213.099707 
L 247.300954 199.180132 
L 248.580004 211.35976 
L 249.859054 214.839654 
L 251.138104 231.990559 
L 252.417154 220.308058 
L 253.696204 188.491887 
L 254.975254 203.654281 
L 256.254304 206.388484 
L 257.533354 217.82242 
L 258.812404 226.522154 
L 260.091454 183.023483 
L 261.370504 177.555078 
L 262.649554 205.394228 
L 263.928604 183.769174 
L 265.207654 192.717473 
L 266.486704 214.342526 
L 267.765754 190.977526 
L 269.044805 202.411462 
L 270.323855 185.757685 
L 271.602905 189.486143 
L 272.881955 176.809387 
L 274.161005 172.335238 
L 275.440055 210.614069 
L 276.719105 192.966036 
L 277.998155 224.533644 
L 279.277205 152.698695 
L 280.556255 198.185877 
L 281.835305 214.093963 
L 282.958982 -1 
M 283.296983 -1 
L 284.393405 177.555078 
L 285.672455 171.340983 
L 286.951505 147.23029 
L 288.230555 187.497632 
L 289.509605 190.480398 
L 290.788655 158.167099 
L 292.067706 176.560823 
L 293.346756 145.738907 
L 294.625806 92.79481 
L 295.904856 165.37545 
L 297.183906 186.503377 
L 298.462956 198.185877 
L 299.742006 163.38694 
L 301.021056 144.247524 
L 302.300106 224.036516 
L 303.579156 203.902845 
L 304.858206 229.753484 
L 306.137256 224.28508 
L 307.416306 196.44593 
L 308.695356 213.596835 
L 309.974406 193.711728 
L 311.253456 181.5321 
L 312.532506 210.614069 
L 313.811556 211.111196 
L 315.090607 220.308058 
L 316.369657 190.977526 
L 317.648707 205.394228 
L 318.927757 176.063695 
L 320.206807 188.740451 
L 321.485857 140.519067 
L 324.043957 202.660026 
L 325.323007 205.145664 
L 326.602057 182.774919 
L 327.881107 184.266302 
L 329.160157 168.109653 
L 330.439207 211.856888 
L 331.718257 192.468909 
L 332.997307 195.948802 
L 334.276357 198.683005 
L 335.555407 186.006249 
L 336.834457 187.746196 
L 338.113507 217.573856 
L 339.392558 190.480398 
L 340.671608 199.67726 
L 341.950658 230.002048 
L 343.229708 172.335238 
L 344.508758 191.971781 
L 345.787808 142.01045 
L 347.066858 178.797898 
L 348.345908 180.040717 
L 349.624958 177.555078 
L 350.904008 180.040717 
L 352.183058 167.612525 
L 353.462108 164.629759 
L 354.741158 182.774919 
L 356.020208 180.040717 
L 357.299258 178.549334 
L 358.578308 180.289281 
L 359.857358 175.815132 
L 361.136408 108.951459 
L 362.415459 123.616726 
L 363.694509 195.203111 
L 364.973559 175.06944 
L 366.252609 170.098163 
L 367.531659 148.47311 
L 368.810709 192.468909 
L 370.089759 179.543589 
L 371.368809 193.711728 
L 372.647859 184.266302 
L 373.926909 169.8496 
L 375.205959 175.566568 
L 376.485009 180.289281 
L 377.764059 184.017738 
L 379.043109 180.786408 
L 380.322159 200.920079 
L 381.601209 196.197366 
L 382.880259 179.543589 
L 384.159309 175.318004 
L 385.43836 144.993216 
L 386.71741 155.184333 
L 387.99646 193.2146 
L 389.27551 181.780664 
L 390.55456 192.717473 
L 391.83361 201.914334 
L 393.11266 193.711728 
L 394.39171 188.740451 
L 395.67076 188.989015 
L 396.94981 166.121142 
L 398.22886 175.566568 
L 399.50791 172.086674 
L 400.78696 133.807843 
L 402.06601 171.092419 
L 403.34506 178.797898 
L 404.62411 214.59109 
L 405.90316 188.243323 
L 407.18221 192.966036 
L 408.461261 215.088218 
L 409.740311 201.665771 
L 411.019361 190.480398 
L 411.019361 190.480398 
" style="fill:none;stroke:#fbc15e;stroke-linecap:square;stroke-width:1.5;"/>
   </g>
   <g id="line2d_28">
    <path clip-path="url(#pa1cacd0bd2)" d="M -1 91.89937 
L -0.652036 95.280448 
L 0.627014 92.546246 
L 1.906064 114.668428 
L 3.185115 80.366618 
L 4.464165 146.733163 
L 5.743215 121.876779 
L 7.022265 154.190078 
L 8.301315 180.537845 
L 9.580365 198.683005 
L 10.859415 227.019282 
L 12.138465 134.553535 
L 13.417515 110.93997 
L 14.696565 77.383852 
L 15.975615 91.800555 
L 17.254665 76.886724 
L 18.533715 87.326406 
L 19.812765 115.662683 
L 21.091815 80.863746 
L 22.370865 99.25747 
L 23.649915 140.021939 
L 24.928965 73.903958 
L 26.208016 125.8538 
L 27.487066 73.655395 
L 28.766116 88.072097 
L 30.045166 64.458533 
L 31.324216 99.754597 
L 32.603266 123.368162 
L 33.882316 119.391141 
L 35.161366 142.756141 
L 36.440416 122.373907 
L 37.719466 129.830822 
L 38.998516 119.639704 
L 40.277566 105.72013 
L 41.556616 109.448587 
L 42.835666 133.062152 
L 44.114716 117.154066 
L 45.393766 105.72013 
L 46.672816 135.796354 
L 47.951866 142.259014 
L 49.230917 181.283536 
L 50.509967 177.555078 
L 51.789017 160.15561 
L 53.068067 129.08513 
L 54.347117 147.23029 
L 55.626167 109.200023 
L 56.905217 111.188534 
L 58.184267 148.970237 
L 59.463317 115.414119 
L 60.742367 120.63396 
L 62.021417 101.743108 
L 63.300467 118.645449 
L 64.579517 142.259014 
L 65.858567 130.327949 
L 68.416667 141.513322 
L 69.695717 119.391141 
L 70.974767 137.784865 
L 72.253818 150.213056 
L 73.532868 144.496088 
L 74.811918 140.767631 
L 76.090968 135.796354 
L 77.370018 184.76343 
L 78.649068 117.154066 
L 79.928118 119.391141 
L 82.486218 128.588003 
L 83.765268 100.997417 
L 85.044318 135.050662 
L 86.323368 132.813588 
L 87.602418 133.310715 
L 88.881468 94.534757 
L 90.160518 104.228747 
L 91.439568 111.685662 
L 92.718618 139.524811 
L 93.997668 138.033428 
L 95.276719 78.378108 
L 96.555769 148.970237 
L 97.834819 118.148321 
L 99.113869 145.738907 
L 100.392919 157.918535 
L 101.671969 107.460076 
L 102.951019 146.733163 
L 104.230069 153.69295 
L 105.509119 123.616726 
L 106.788169 176.312259 
L 108.067219 158.664227 
L 109.346269 132.813588 
L 110.625319 161.646993 
L 111.904369 167.115397 
L 113.183419 185.757685 
L 114.462469 186.503377 
L 115.741519 173.826621 
L 118.299619 222.048005 
L 119.57867 197.937313 
L 120.85772 198.434441 
L 122.13677 169.352472 
L 123.41582 194.705983 
L 124.69487 228.013537 
L 125.97392 218.070984 
L 127.25297 203.654281 
L 128.53202 178.30077 
L 129.81107 211.608324 
L 131.09012 203.157154 
L 132.36917 192.220345 
L 133.64822 213.596835 
L 134.92727 216.828165 
L 136.20632 225.279335 
L 137.48537 214.093963 
L 138.76442 224.782207 
L 140.04347 222.793697 
L 141.32252 230.002048 
L 142.601571 236.216144 
L 143.880621 239.447474 
L 145.159671 169.352472 
L 146.438721 195.700239 
L 147.717771 180.040717 
L 148.996821 172.335238 
L 150.275871 180.040717 
L 151.554921 181.034972 
L 152.833971 190.231834 
L 154.113021 206.637047 
L 155.392071 190.977526 
L 156.671121 205.891356 
L 157.950171 202.411462 
L 159.229221 217.076729 
L 160.508271 190.728962 
L 161.787321 157.172844 
L 163.066371 201.417207 
L 164.345421 214.093963 
L 165.624472 204.648537 
L 166.903522 219.810931 
L 168.182572 176.560823 
L 169.461622 191.971781 
L 170.740672 204.648537 
L 172.019722 185.757685 
L 173.298772 195.451675 
L 174.577822 210.365505 
L 175.856872 206.885611 
L 177.135922 191.971781 
L 178.414972 198.931568 
L 179.694022 200.422951 
L 180.973072 197.688749 
L 182.252122 220.556622 
L 183.531172 234.227633 
L 184.810222 213.099707 
L 186.089272 221.799441 
L 187.368322 239.19891 
L 188.647373 220.308058 
L 189.926423 198.931568 
L 191.205473 228.759229 
L 192.484523 223.290824 
L 193.763573 211.35976 
L 195.042623 184.017738 
L 196.321673 217.325292 
L 197.600723 224.036516 
L 198.879773 204.648537 
L 200.158823 219.065239 
L 201.437873 225.279335 
L 202.716923 248.8929 
L 203.995973 229.007793 
L 205.275023 226.522154 
L 206.554073 237.707527 
L 207.833123 241.187421 
L 209.112173 219.065239 
L 210.391223 243.673059 
L 211.670273 257.34407 
L 212.949324 179.792153 
L 214.228374 201.914334 
L 215.507424 178.549334 
L 216.786474 193.711728 
L 218.065524 175.815132 
L 219.344574 217.325292 
L 220.623624 220.059495 
L 221.902674 196.694494 
L 223.181724 183.769174 
L 224.460774 175.06944 
L 225.739824 198.434441 
L 227.018874 188.243323 
L 228.297924 153.941514 
L 229.576974 161.398429 
L 230.856024 182.277791 
L 232.135074 196.44593 
L 233.414124 196.943058 
L 234.693174 172.832366 
L 235.972225 172.086674 
L 237.251275 197.191622 
L 238.530325 212.354016 
L 239.809375 206.637047 
L 241.088425 208.376994 
L 242.367475 193.711728 
L 243.646525 172.086674 
L 244.925575 155.681461 
L 246.204625 196.694494 
L 247.483675 183.023483 
L 248.762725 205.642792 
L 250.041775 206.637047 
L 251.320825 228.262101 
L 252.599875 219.562367 
L 253.878925 192.220345 
L 255.157975 174.075185 
L 256.437025 139.027684 
L 257.716075 199.428696 
L 258.995126 209.37125 
L 260.274176 151.207312 
L 261.553226 105.223002 
L 262.832276 166.866833 
L 264.111326 129.08513 
L 265.390376 159.409918 
L 266.669426 171.092419 
L 267.948476 134.304971 
L 269.227526 147.727418 
L 270.506576 153.69295 
L 271.785626 163.635504 
L 273.064676 142.507577 
L 274.343726 148.721673 
L 275.622776 175.815132 
L 276.901826 187.746196 
L 278.180876 195.948802 
L 279.459926 139.027684 
L 280.738976 134.802099 
L 282.018027 134.802099 
L 283.297077 149.964493 
L 284.576127 136.044918 
L 287.134227 93.043374 
L 288.413277 147.23029 
L 289.692327 137.039173 
L 290.971377 136.044918 
L 292.250427 128.836566 
L 293.529477 120.882524 
L 294.808527 66.944171 
L 296.087577 93.540502 
L 297.366627 153.195822 
L 298.645677 158.167099 
L 299.924727 156.675716 
L 301.203777 154.190078 
L 302.482827 152.201567 
L 303.761877 173.826621 
L 305.040928 186.503377 
L 306.319978 168.358216 
L 307.599028 172.335238 
L 308.878078 192.468909 
L 310.157128 172.335238 
L 311.436178 154.935769 
L 313.994278 181.5321 
L 315.273328 192.220345 
L 316.552378 180.786408 
L 317.831428 196.943058 
L 319.110478 205.891356 
L 320.389528 160.901301 
L 321.668578 148.721673 
L 322.947628 163.884067 
L 324.226678 181.034972 
L 325.505728 167.115397 
L 326.784778 141.761886 
L 328.063828 99.25747 
L 329.342879 138.530556 
L 330.621929 162.144121 
L 331.900979 152.201567 
L 333.180029 173.826621 
L 334.459079 140.021939 
L 335.738129 154.438642 
L 337.017179 141.016194 
L 338.296229 154.190078 
L 339.575279 140.519067 
L 340.854329 150.213056 
L 342.133379 174.323749 
L 343.412429 186.254813 
L 344.691479 231.990559 
L 345.970529 127.345183 
L 347.249579 133.310715 
L 348.528629 131.819332 
L 349.807679 136.044918 
L 351.086729 138.530556 
L 352.36578 111.934226 
L 353.64483 126.848056 
L 354.92388 130.576513 
L 356.20293 120.136832 
L 357.48198 143.501833 
L 358.76103 139.276248 
L 360.04008 129.830822 
L 361.31913 83.597948 
L 362.59818 79.869491 
L 363.87723 137.039173 
L 365.15628 128.836566 
L 366.43533 123.616726 
L 367.71438 102.985927 
L 368.99343 113.425609 
L 370.27248 153.941514 
L 371.55153 150.46162 
L 372.83058 122.871034 
L 374.10963 135.050662 
L 375.388681 128.339439 
L 376.667731 152.698695 
L 377.946781 139.027684 
L 379.225831 153.195822 
L 380.504881 153.941514 
L 381.783931 153.69295 
L 383.062981 149.715929 
L 384.342031 143.99896 
L 385.621081 183.272047 
L 386.900131 146.981727 
L 388.179181 159.907046 
L 389.458231 108.454332 
L 390.737281 153.941514 
L 392.016331 160.901301 
L 393.295381 174.075185 
L 394.574431 144.993216 
L 395.853481 132.813588 
L 397.132531 122.871034 
L 398.411582 129.582258 
L 399.690632 132.067896 
L 400.969682 142.01045 
L 402.248732 132.31646 
L 403.527782 126.599492 
L 404.806832 161.646993 
L 406.085882 154.687205 
L 407.364932 164.381195 
L 408.643982 189.98327 
L 409.923032 161.646993 
L 411.202082 180.537845 
L 411.202082 180.537845 
" style="fill:none;stroke:#8eba42;stroke-linecap:square;stroke-width:1.5;"/>
   </g>
   <g id="line2d_29">
    <path clip-path="url(#pa1cacd0bd2)" d="M -1 89.359697 
L -0.469314 95.031885 
L 0.809736 90.557736 
L 2.088786 137.287737 
L 3.367836 133.310715 
L 4.646886 140.021939 
L 5.925936 132.067896 
L 7.204986 141.761886 
L 8.484036 145.738907 
L 9.763086 163.635504 
L 11.042136 238.453219 
L 12.321186 133.310715 
L 13.600236 123.86529 
L 14.879286 97.020395 
L 16.158337 102.4888 
L 17.437387 95.777576 
L 18.716437 95.280448 
L 19.995487 123.86529 
L 21.274537 105.968693 
L 22.553587 81.858001 
L 23.832637 136.790609 
L 25.111687 66.944171 
L 26.390737 98.263214 
L 27.669787 58.493001 
L 28.948837 105.471566 
L 30.227887 113.177045 
L 31.506937 83.10082 
L 32.785987 129.582258 
L 34.065037 112.431353 
L 35.344087 99.754597 
L 36.623137 123.616726 
L 37.902187 141.513322 
L 39.181238 103.980183 
L 40.460288 99.008906 
L 41.739338 136.293482 
L 43.018388 127.345183 
L 44.297438 124.113854 
L 45.576488 114.668428 
L 46.855538 143.99896 
L 48.134588 124.362417 
L 49.413638 161.398429 
L 50.692688 160.652738 
L 51.971738 174.075185 
L 53.250788 120.63396 
L 54.529838 137.039173 
L 55.808888 133.310715 
L 57.087938 98.263214 
L 58.366988 112.431353 
L 59.646038 109.448587 
L 60.925088 75.892469 
L 62.204139 120.882524 
L 63.483189 95.529012 
L 64.762239 134.304971 
L 66.041289 117.899758 
L 67.320339 149.715929 
L 68.599389 122.62247 
L 69.878439 126.350928 
L 71.157489 142.01045 
L 72.436539 117.651194 
L 73.715589 139.524811 
L 74.994639 155.681461 
L 76.273689 154.438642 
L 77.552739 160.404174 
L 78.831789 100.251725 
L 80.110839 108.205768 
L 81.389889 127.842311 
L 82.668939 116.408375 
L 83.947989 103.731619 
L 85.22704 101.743108 
L 86.50609 105.471566 
L 87.78514 145.987471 
L 90.34324 129.08513 
L 91.62229 107.211513 
L 92.90134 112.182789 
L 94.18039 96.523268 
L 95.45944 105.223002 
L 96.73849 109.200023 
L 98.01754 120.63396 
L 99.29659 143.750397 
L 100.57564 154.687205 
L 101.85469 139.773375 
L 103.13374 120.385396 
L 104.41279 151.704439 
L 105.69184 134.553535 
L 106.97089 131.819332 
L 108.24994 176.063695 
L 109.528991 164.132631 
L 110.808041 173.329493 
L 112.087091 156.178588 
L 113.366141 174.323749 
L 114.645191 206.388484 
L 115.924241 181.780664 
L 118.482341 214.839654 
L 119.761391 192.966036 
L 121.040441 198.434441 
L 122.319491 166.61827 
L 123.598541 188.243323 
L 124.877591 182.277791 
L 126.156641 204.151409 
L 127.435691 180.786408 
L 128.714741 172.086674 
L 129.993791 195.451675 
L 131.272841 175.815132 
L 132.551892 200.422951 
L 133.830942 215.585346 
L 135.109992 177.306515 
L 136.389042 200.920079 
L 137.668092 186.75194 
L 138.947142 199.180132 
L 140.226192 195.203111 
L 141.505242 206.13992 
L 142.784292 212.354016 
L 144.063342 248.147208 
L 145.342392 173.080929 
L 146.621442 145.987471 
L 147.900492 172.583802 
L 149.179542 167.612525 
L 150.458592 149.715929 
L 151.737642 201.168643 
L 153.016692 192.717473 
L 154.295742 205.394228 
L 155.574793 170.595291 
L 156.853843 204.399973 
L 158.132893 191.723217 
L 159.411943 184.017738 
L 160.690993 159.907046 
L 161.970043 161.398429 
L 163.249093 178.052206 
L 164.528143 178.797898 
L 167.086243 196.943058 
L 168.365293 196.943058 
L 169.644343 175.06944 
L 170.923393 173.329493 
L 172.202443 184.266302 
L 173.481493 173.578057 
L 174.760543 217.573856 
L 176.039593 198.683005 
L 177.318643 214.59109 
L 178.597694 198.434441 
L 179.876744 180.289281 
L 181.155794 198.931568 
L 182.434844 210.365505 
L 183.713894 223.787952 
L 184.992944 196.197366 
L 186.271994 213.348271 
L 187.551044 214.59109 
L 188.830094 196.694494 
L 190.109144 171.83811 
L 191.388194 213.596835 
L 192.667244 195.948802 
L 193.946294 201.417207 
L 195.225344 149.467365 
L 196.504394 211.608324 
L 197.783444 230.74774 
L 199.062494 238.701782 
L 200.341544 213.596835 
L 201.620594 205.394228 
L 202.899645 212.105452 
L 204.178695 214.839654 
L 205.457745 203.405718 
L 206.736795 222.545133 
L 208.015845 273.252156 
L 209.294895 212.602579 
L 210.573945 242.43024 
L 213.132045 169.103908 
L 214.411095 171.83811 
L 215.690145 195.451675 
L 216.969195 173.826621 
L 218.248245 169.8496 
L 219.527295 199.67726 
L 220.806345 157.172844 
L 222.085395 169.8496 
L 223.364445 156.92428 
L 224.643495 166.866833 
L 225.922546 145.490343 
L 227.201596 149.964493 
L 228.480646 134.553535 
L 229.759696 164.629759 
L 231.038746 140.519067 
L 232.317796 151.953003 
L 233.596846 204.151409 
L 234.875896 187.746196 
L 236.154946 192.468909 
L 237.433996 171.83811 
L 238.713046 199.67726 
L 239.992096 202.162898 
L 241.271146 184.76343 
L 242.550196 172.583802 
L 243.829246 189.734706 
L 245.108296 163.138376 
L 246.387346 177.803642 
L 247.666396 167.115397 
L 248.945447 203.405718 
L 250.224497 207.879867 
L 251.503547 193.960292 
L 252.782597 187.497632 
L 254.061647 187.746196 
L 255.340697 157.172844 
L 256.619747 136.542045 
L 257.898797 165.624014 
L 259.177847 184.266302 
L 260.456897 145.490343 
L 261.735947 145.490343 
L 263.014997 126.599492 
L 264.294047 142.259014 
L 265.573097 170.098163 
L 266.852147 176.063695 
L 268.131197 123.368162 
L 269.410247 130.079386 
L 270.689297 121.131087 
L 271.968348 146.484599 
L 273.247398 142.01045 
L 274.526448 132.813588 
L 275.805498 174.075185 
L 277.084548 137.039173 
L 278.363598 148.970237 
L 279.642648 120.385396 
L 280.921698 128.836566 
L 281.410081 -1 
M 282.982839 -1 
L 283.479798 132.565024 
L 284.758848 129.830822 
L 286.037898 84.840767 
L 287.316948 114.668428 
L 288.595998 149.964493 
L 289.875048 115.662683 
L 291.154098 158.415663 
L 292.433148 149.964493 
L 293.712198 102.737364 
L 294.991248 74.152522 
L 296.270299 124.113854 
L 297.549349 131.073641 
L 298.828399 122.373907 
L 300.107449 132.565024 
L 301.386499 126.599492 
L 302.665549 160.652738 
L 303.944599 144.247524 
L 305.223649 173.080929 
L 306.502699 163.38694 
L 307.781749 173.578057 
L 309.060799 186.006249 
L 310.339849 185.260557 
L 311.618899 159.409918 
L 312.897949 185.011994 
L 314.176999 155.432897 
L 315.456049 196.44593 
L 316.735099 154.190078 
L 318.014149 183.272047 
L 319.2932 223.787952 
L 320.57225 146.733163 
L 321.8513 120.136832 
L 323.13035 143.253269 
L 324.4094 146.236035 
L 325.68845 133.310715 
L 326.9675 126.848056 
L 328.24655 107.70864 
L 329.5256 128.588003 
L 330.80465 135.299226 
L 332.0837 114.419864 
L 333.36275 137.536301 
L 334.6418 152.947259 
L 335.92085 127.09662 
L 337.1999 131.073641 
L 338.47895 144.993216 
L 339.758 125.108109 
L 341.03705 151.207312 
L 342.316101 160.15561 
L 343.595151 162.144121 
L 344.874201 235.470452 
L 346.153251 103.483055 
L 347.432301 133.807843 
L 348.711351 119.391141 
L 349.990401 101.991672 
L 351.269451 114.1713 
L 352.548501 139.773375 
L 353.827551 118.148321 
L 355.106601 118.894013 
L 356.385651 106.217257 
L 357.664701 133.807843 
L 358.943751 112.928481 
L 360.222801 89.812044 
L 361.501851 84.592203 
L 362.780901 75.395341 
L 364.059951 114.419864 
L 365.339002 108.454332 
L 366.618052 137.039173 
L 367.897102 108.205768 
L 369.176152 123.86529 
L 370.455202 123.86529 
L 371.734252 135.050662 
L 373.013302 140.270503 
L 374.292352 111.685662 
L 375.571402 129.830822 
L 376.850452 111.934226 
L 378.129502 126.350928 
L 379.408552 146.981727 
L 380.687602 143.004705 
L 381.966652 124.610981 
L 383.245702 157.669972 
L 384.524752 123.616726 
L 385.803802 169.103908 
L 387.082852 139.027684 
L 388.361903 133.310715 
L 389.640953 156.92428 
L 390.920003 124.362417 
L 392.199053 83.846512 
L 393.478103 148.224546 
L 394.757153 121.131087 
L 396.036203 125.356673 
L 397.315253 125.8538 
L 398.594303 100.003161 
L 399.873353 78.378108 
L 401.152403 145.24178 
L 402.431453 132.565024 
L 403.710503 146.484599 
L 404.989553 144.744652 
L 406.268603 123.119598 
L 407.547653 140.519067 
L 408.826703 153.69295 
L 410.105753 158.167099 
L 411.384803 197.688749 
L 411.384803 197.688749 
" style="fill:none;stroke:#ffb5b8;stroke-linecap:square;stroke-width:1.5;"/>
   </g>
   <g id="patch_3">
    <path d="M 57.6 307.584 
L 57.6 41.472 
" style="fill:none;stroke:#ffffff;stroke-linecap:square;stroke-linejoin:miter;"/>
   </g>
   <g id="patch_4">
    <path d="M 414.72 307.584 
L 414.72 41.472 
" style="fill:none;stroke:#ffffff;stroke-linecap:square;stroke-linejoin:miter;"/>
   </g>
   <g id="patch_5">
    <path d="M 57.6 307.584 
L 414.72 307.584 
" style="fill:none;stroke:#ffffff;stroke-linecap:square;stroke-linejoin:miter;"/>
   </g>
   <g id="patch_6">
    <path d="M 57.6 41.472 
L 414.72 41.472 
" style="fill:none;stroke:#ffffff;stroke-linecap:square;stroke-linejoin:miter;"/>
   </g>
   <g id="text_14">
    <!-- Daily active Japanese Wikipedia editors -->
    <defs>
     <path d="M 19.671875 64.796875 
L 19.671875 8.109375 
L 31.59375 8.109375 
Q 46.6875 8.109375 53.6875 14.9375 
Q 60.6875 21.78125 60.6875 36.53125 
Q 60.6875 51.171875 53.6875 57.984375 
Q 46.6875 64.796875 31.59375 64.796875 
z
M 9.8125 72.90625 
L 30.078125 72.90625 
Q 51.265625 72.90625 61.171875 64.09375 
Q 71.09375 55.28125 71.09375 36.53125 
Q 71.09375 17.671875 61.125 8.828125 
Q 51.171875 0 30.078125 0 
L 9.8125 0 
z
" id="DejaVuSans-44"/>
     <path d="M 9.421875 75.984375 
L 18.40625 75.984375 
L 18.40625 0 
L 9.421875 0 
z
" id="DejaVuSans-6c"/>
     <path d="M 32.171875 -5.078125 
Q 28.375 -14.84375 24.75 -17.8125 
Q 21.140625 -20.796875 15.09375 -20.796875 
L 7.90625 -20.796875 
L 7.90625 -13.28125 
L 13.1875 -13.28125 
Q 16.890625 -13.28125 18.9375 -11.515625 
Q 21 -9.765625 23.484375 -3.21875 
L 25.09375 0.875 
L 2.984375 54.6875 
L 12.5 54.6875 
L 29.59375 11.921875 
L 46.6875 54.6875 
L 56.203125 54.6875 
z
" id="DejaVuSans-79"/>
     <path id="DejaVuSans-20"/>
     <path d="M 48.78125 52.59375 
L 48.78125 44.1875 
Q 44.96875 46.296875 41.140625 47.34375 
Q 37.3125 48.390625 33.40625 48.390625 
Q 24.65625 48.390625 19.8125 42.84375 
Q 14.984375 37.3125 14.984375 27.296875 
Q 14.984375 17.28125 19.8125 11.734375 
Q 24.65625 6.203125 33.40625 6.203125 
Q 37.3125 6.203125 41.140625 7.25 
Q 44.96875 8.296875 48.78125 10.40625 
L 48.78125 2.09375 
Q 45.015625 0.34375 40.984375 -0.53125 
Q 36.96875 -1.421875 32.421875 -1.421875 
Q 20.0625 -1.421875 12.78125 6.34375 
Q 5.515625 14.109375 5.515625 27.296875 
Q 5.515625 40.671875 12.859375 48.328125 
Q 20.21875 56 33.015625 56 
Q 37.15625 56 41.109375 55.140625 
Q 45.0625 54.296875 48.78125 52.59375 
z
" id="DejaVuSans-63"/>
     <path d="M 2.984375 54.6875 
L 12.5 54.6875 
L 29.59375 8.796875 
L 46.6875 54.6875 
L 56.203125 54.6875 
L 35.6875 0 
L 23.484375 0 
z
" id="DejaVuSans-76"/>
     <path d="M 9.8125 72.90625 
L 19.671875 72.90625 
L 19.671875 5.078125 
Q 19.671875 -8.109375 14.671875 -14.0625 
Q 9.671875 -20.015625 -1.421875 -20.015625 
L -5.171875 -20.015625 
L -5.171875 -11.71875 
L -2.09375 -11.71875 
Q 4.4375 -11.71875 7.125 -8.046875 
Q 9.8125 -4.390625 9.8125 5.078125 
z
" id="DejaVuSans-4a"/>
     <path d="M 18.109375 8.203125 
L 18.109375 -20.796875 
L 9.078125 -20.796875 
L 9.078125 54.6875 
L 18.109375 54.6875 
L 18.109375 46.390625 
Q 20.953125 51.265625 25.265625 53.625 
Q 29.59375 56 35.59375 56 
Q 45.5625 56 51.78125 48.09375 
Q 58.015625 40.1875 58.015625 27.296875 
Q 58.015625 14.40625 51.78125 6.484375 
Q 45.5625 -1.421875 35.59375 -1.421875 
Q 29.59375 -1.421875 25.265625 0.953125 
Q 20.953125 3.328125 18.109375 8.203125 
z
M 48.6875 27.296875 
Q 48.6875 37.203125 44.609375 42.84375 
Q 40.53125 48.484375 33.40625 48.484375 
Q 26.265625 48.484375 22.1875 42.84375 
Q 18.109375 37.203125 18.109375 27.296875 
Q 18.109375 17.390625 22.1875 11.75 
Q 26.265625 6.109375 33.40625 6.109375 
Q 40.53125 6.109375 44.609375 11.75 
Q 48.6875 17.390625 48.6875 27.296875 
z
" id="DejaVuSans-70"/>
     <path d="M 54.890625 33.015625 
L 54.890625 0 
L 45.90625 0 
L 45.90625 32.71875 
Q 45.90625 40.484375 42.875 44.328125 
Q 39.84375 48.1875 33.796875 48.1875 
Q 26.515625 48.1875 22.3125 43.546875 
Q 18.109375 38.921875 18.109375 30.90625 
L 18.109375 0 
L 9.078125 0 
L 9.078125 54.6875 
L 18.109375 54.6875 
L 18.109375 46.1875 
Q 21.34375 51.125 25.703125 53.5625 
Q 30.078125 56 35.796875 56 
Q 45.21875 56 50.046875 50.171875 
Q 54.890625 44.34375 54.890625 33.015625 
z
" id="DejaVuSans-6e"/>
     <path d="M 3.328125 72.90625 
L 13.28125 72.90625 
L 28.609375 11.28125 
L 43.890625 72.90625 
L 54.984375 72.90625 
L 70.3125 11.28125 
L 85.59375 72.90625 
L 95.609375 72.90625 
L 77.296875 0 
L 64.890625 0 
L 49.515625 63.28125 
L 33.984375 0 
L 21.578125 0 
z
" id="DejaVuSans-57"/>
     <path d="M 9.078125 75.984375 
L 18.109375 75.984375 
L 18.109375 31.109375 
L 44.921875 54.6875 
L 56.390625 54.6875 
L 27.390625 29.109375 
L 57.625 0 
L 45.90625 0 
L 18.109375 26.703125 
L 18.109375 0 
L 9.078125 0 
z
" id="DejaVuSans-6b"/>
    </defs>
    <g transform="translate(93.99825 35.472)scale(0.144 -0.144)">
     <use xlink:href="#DejaVuSans-44"/>
     <use x="77.001953" xlink:href="#DejaVuSans-61"/>
     <use x="138.28125" xlink:href="#DejaVuSans-69"/>
     <use x="166.064453" xlink:href="#DejaVuSans-6c"/>
     <use x="193.847656" xlink:href="#DejaVuSans-79"/>
     <use x="253.027344" xlink:href="#DejaVuSans-20"/>
     <use x="284.814453" xlink:href="#DejaVuSans-61"/>
     <use x="346.09375" xlink:href="#DejaVuSans-63"/>
     <use x="401.074219" xlink:href="#DejaVuSans-74"/>
     <use x="440.283203" xlink:href="#DejaVuSans-69"/>
     <use x="468.066406" xlink:href="#DejaVuSans-76"/>
     <use x="527.246094" xlink:href="#DejaVuSans-65"/>
     <use x="588.769531" xlink:href="#DejaVuSans-20"/>
     <use x="620.556641" xlink:href="#DejaVuSans-4a"/>
     <use x="650.048828" xlink:href="#DejaVuSans-61"/>
     <use x="711.328125" xlink:href="#DejaVuSans-70"/>
     <use x="774.804688" xlink:href="#DejaVuSans-61"/>
     <use x="836.083984" xlink:href="#DejaVuSans-6e"/>
     <use x="899.462891" xlink:href="#DejaVuSans-65"/>
     <use x="960.986328" xlink:href="#DejaVuSans-73"/>
     <use x="1013.085938" xlink:href="#DejaVuSans-65"/>
     <use x="1074.609375" xlink:href="#DejaVuSans-20"/>
     <use x="1106.396484" xlink:href="#DejaVuSans-57"/>
     <use x="1205.242188" xlink:href="#DejaVuSans-69"/>
     <use x="1233.025391" xlink:href="#DejaVuSans-6b"/>
     <use x="1290.935547" xlink:href="#DejaVuSans-69"/>
     <use x="1318.71875" xlink:href="#DejaVuSans-70"/>
     <use x="1382.195312" xlink:href="#DejaVuSans-65"/>
     <use x="1443.71875" xlink:href="#DejaVuSans-64"/>
     <use x="1507.195312" xlink:href="#DejaVuSans-69"/>
     <use x="1534.978516" xlink:href="#DejaVuSans-61"/>
     <use x="1596.257812" xlink:href="#DejaVuSans-20"/>
     <use x="1628.044922" xlink:href="#DejaVuSans-65"/>
     <use x="1689.568359" xlink:href="#DejaVuSans-64"/>
     <use x="1753.044922" xlink:href="#DejaVuSans-69"/>
     <use x="1780.828125" xlink:href="#DejaVuSans-74"/>
     <use x="1820.037109" xlink:href="#DejaVuSans-6f"/>
     <use x="1881.21875" xlink:href="#DejaVuSans-72"/>
     <use x="1922.332031" xlink:href="#DejaVuSans-73"/>
    </g>
   </g>
   <g id="legend_1">
    <g id="patch_7">
     <path d="M 190.921719 152.218875 
L 281.398281 152.218875 
Q 283.398281 152.218875 283.398281 150.218875 
L 283.398281 48.472 
Q 283.398281 46.472 281.398281 46.472 
L 190.921719 46.472 
Q 188.921719 46.472 188.921719 48.472 
L 188.921719 150.218875 
Q 188.921719 152.218875 190.921719 152.218875 
z
" style="fill:#e5e5e5;opacity:0.8;stroke:#cccccc;stroke-linejoin:miter;stroke-width:0.5;"/>
    </g>
    <g id="line2d_30">
     <path d="M 192.921719 54.570438 
L 212.921719 54.570438 
" style="fill:none;stroke:#e24a33;stroke-linecap:square;stroke-width:1.5;"/>
    </g>
    <g id="line2d_31"/>
    <g id="text_15">
     <!-- Monday -->
     <defs>
      <path d="M 9.8125 72.90625 
L 24.515625 72.90625 
L 43.109375 23.296875 
L 61.8125 72.90625 
L 76.515625 72.90625 
L 76.515625 0 
L 66.890625 0 
L 66.890625 64.015625 
L 48.09375 14.015625 
L 38.1875 14.015625 
L 19.390625 64.015625 
L 19.390625 0 
L 9.8125 0 
z
" id="DejaVuSans-4d"/>
     </defs>
     <g transform="translate(220.921719 58.070438)scale(0.1 -0.1)">
      <use xlink:href="#DejaVuSans-4d"/>
      <use x="86.279297" xlink:href="#DejaVuSans-6f"/>
      <use x="147.460938" xlink:href="#DejaVuSans-6e"/>
      <use x="210.839844" xlink:href="#DejaVuSans-64"/>
      <use x="274.316406" xlink:href="#DejaVuSans-61"/>
      <use x="335.595703" xlink:href="#DejaVuSans-79"/>
     </g>
    </g>
    <g id="line2d_32">
     <path d="M 192.921719 69.248563 
L 212.921719 69.248563 
" style="fill:none;stroke:#348abd;stroke-linecap:square;stroke-width:1.5;"/>
    </g>
    <g id="line2d_33"/>
    <g id="text_16">
     <!-- Tuesday -->
     <defs>
      <path d="M -0.296875 72.90625 
L 61.375 72.90625 
L 61.375 64.59375 
L 35.5 64.59375 
L 35.5 0 
L 25.59375 0 
L 25.59375 64.59375 
L -0.296875 64.59375 
z
" id="DejaVuSans-54"/>
      <path d="M 8.5 21.578125 
L 8.5 54.6875 
L 17.484375 54.6875 
L 17.484375 21.921875 
Q 17.484375 14.15625 20.5 10.265625 
Q 23.53125 6.390625 29.59375 6.390625 
Q 36.859375 6.390625 41.078125 11.03125 
Q 45.3125 15.671875 45.3125 23.6875 
L 45.3125 54.6875 
L 54.296875 54.6875 
L 54.296875 0 
L 45.3125 0 
L 45.3125 8.40625 
Q 42.046875 3.421875 37.71875 1 
Q 33.40625 -1.421875 27.6875 -1.421875 
Q 18.265625 -1.421875 13.375 4.4375 
Q 8.5 10.296875 8.5 21.578125 
z
M 31.109375 56 
z
" id="DejaVuSans-75"/>
     </defs>
     <g transform="translate(220.921719 72.748563)scale(0.1 -0.1)">
      <use xlink:href="#DejaVuSans-54"/>
      <use x="60.849609" xlink:href="#DejaVuSans-75"/>
      <use x="124.228516" xlink:href="#DejaVuSans-65"/>
      <use x="185.751953" xlink:href="#DejaVuSans-73"/>
      <use x="237.851562" xlink:href="#DejaVuSans-64"/>
      <use x="301.328125" xlink:href="#DejaVuSans-61"/>
      <use x="362.607422" xlink:href="#DejaVuSans-79"/>
     </g>
    </g>
    <g id="line2d_34">
     <path d="M 192.921719 83.926688 
L 212.921719 83.926688 
" style="fill:none;stroke:#988ed5;stroke-linecap:square;stroke-width:1.5;"/>
    </g>
    <g id="line2d_35"/>
    <g id="text_17">
     <!-- Wednesday -->
     <g transform="translate(220.921719 87.426688)scale(0.1 -0.1)">
      <use xlink:href="#DejaVuSans-57"/>
      <use x="98.798828" xlink:href="#DejaVuSans-65"/>
      <use x="160.322266" xlink:href="#DejaVuSans-64"/>
      <use x="223.798828" xlink:href="#DejaVuSans-6e"/>
      <use x="287.177734" xlink:href="#DejaVuSans-65"/>
      <use x="348.701172" xlink:href="#DejaVuSans-73"/>
      <use x="400.800781" xlink:href="#DejaVuSans-64"/>
      <use x="464.277344" xlink:href="#DejaVuSans-61"/>
      <use x="525.556641" xlink:href="#DejaVuSans-79"/>
     </g>
    </g>
    <g id="line2d_36">
     <path d="M 192.921719 98.604813 
L 212.921719 98.604813 
" style="fill:none;stroke:#777777;stroke-linecap:square;stroke-width:1.5;"/>
    </g>
    <g id="line2d_37"/>
    <g id="text_18">
     <!-- Thursday -->
     <defs>
      <path d="M 54.890625 33.015625 
L 54.890625 0 
L 45.90625 0 
L 45.90625 32.71875 
Q 45.90625 40.484375 42.875 44.328125 
Q 39.84375 48.1875 33.796875 48.1875 
Q 26.515625 48.1875 22.3125 43.546875 
Q 18.109375 38.921875 18.109375 30.90625 
L 18.109375 0 
L 9.078125 0 
L 9.078125 75.984375 
L 18.109375 75.984375 
L 18.109375 46.1875 
Q 21.34375 51.125 25.703125 53.5625 
Q 30.078125 56 35.796875 56 
Q 45.21875 56 50.046875 50.171875 
Q 54.890625 44.34375 54.890625 33.015625 
z
" id="DejaVuSans-68"/>
     </defs>
     <g transform="translate(220.921719 102.104813)scale(0.1 -0.1)">
      <use xlink:href="#DejaVuSans-54"/>
      <use x="61.083984" xlink:href="#DejaVuSans-68"/>
      <use x="124.462891" xlink:href="#DejaVuSans-75"/>
      <use x="187.841797" xlink:href="#DejaVuSans-72"/>
      <use x="228.955078" xlink:href="#DejaVuSans-73"/>
      <use x="281.054688" xlink:href="#DejaVuSans-64"/>
      <use x="344.53125" xlink:href="#DejaVuSans-61"/>
      <use x="405.810547" xlink:href="#DejaVuSans-79"/>
     </g>
    </g>
    <g id="line2d_38">
     <path d="M 192.921719 113.282938 
L 212.921719 113.282938 
" style="fill:none;stroke:#fbc15e;stroke-linecap:square;stroke-width:1.5;"/>
    </g>
    <g id="line2d_39"/>
    <g id="text_19">
     <!-- Friday -->
     <defs>
      <path d="M 9.8125 72.90625 
L 51.703125 72.90625 
L 51.703125 64.59375 
L 19.671875 64.59375 
L 19.671875 43.109375 
L 48.578125 43.109375 
L 48.578125 34.8125 
L 19.671875 34.8125 
L 19.671875 0 
L 9.8125 0 
z
" id="DejaVuSans-46"/>
     </defs>
     <g transform="translate(220.921719 116.782938)scale(0.1 -0.1)">
      <use xlink:href="#DejaVuSans-46"/>
      <use x="57.410156" xlink:href="#DejaVuSans-72"/>
      <use x="98.523438" xlink:href="#DejaVuSans-69"/>
      <use x="126.306641" xlink:href="#DejaVuSans-64"/>
      <use x="189.783203" xlink:href="#DejaVuSans-61"/>
      <use x="251.0625" xlink:href="#DejaVuSans-79"/>
     </g>
    </g>
    <g id="line2d_40">
     <path d="M 192.921719 127.961063 
L 212.921719 127.961063 
" style="fill:none;stroke:#8eba42;stroke-linecap:square;stroke-width:1.5;"/>
    </g>
    <g id="line2d_41"/>
    <g id="text_20">
     <!-- Saturday -->
     <defs>
      <path d="M 53.515625 70.515625 
L 53.515625 60.890625 
Q 47.90625 63.578125 42.921875 64.890625 
Q 37.9375 66.21875 33.296875 66.21875 
Q 25.25 66.21875 20.875 63.09375 
Q 16.5 59.96875 16.5 54.203125 
Q 16.5 49.359375 19.40625 46.890625 
Q 22.3125 44.4375 30.421875 42.921875 
L 36.375 41.703125 
Q 47.40625 39.59375 52.65625 34.296875 
Q 57.90625 29 57.90625 20.125 
Q 57.90625 9.515625 50.796875 4.046875 
Q 43.703125 -1.421875 29.984375 -1.421875 
Q 24.8125 -1.421875 18.96875 -0.25 
Q 13.140625 0.921875 6.890625 3.21875 
L 6.890625 13.375 
Q 12.890625 10.015625 18.65625 8.296875 
Q 24.421875 6.59375 29.984375 6.59375 
Q 38.421875 6.59375 43.015625 9.90625 
Q 47.609375 13.234375 47.609375 19.390625 
Q 47.609375 24.75 44.3125 27.78125 
Q 41.015625 30.8125 33.5 32.328125 
L 27.484375 33.5 
Q 16.453125 35.6875 11.515625 40.375 
Q 6.59375 45.0625 6.59375 53.421875 
Q 6.59375 63.09375 13.40625 68.65625 
Q 20.21875 74.21875 32.171875 74.21875 
Q 37.3125 74.21875 42.625 73.28125 
Q 47.953125 72.359375 53.515625 70.515625 
z
" id="DejaVuSans-53"/>
     </defs>
     <g transform="translate(220.921719 131.461063)scale(0.1 -0.1)">
      <use xlink:href="#DejaVuSans-53"/>
      <use x="63.476562" xlink:href="#DejaVuSans-61"/>
      <use x="124.755859" xlink:href="#DejaVuSans-74"/>
      <use x="163.964844" xlink:href="#DejaVuSans-75"/>
      <use x="227.34375" xlink:href="#DejaVuSans-72"/>
      <use x="268.441406" xlink:href="#DejaVuSans-64"/>
      <use x="331.917969" xlink:href="#DejaVuSans-61"/>
      <use x="393.197266" xlink:href="#DejaVuSans-79"/>
     </g>
    </g>
    <g id="line2d_42">
     <path d="M 192.921719 142.639188 
L 212.921719 142.639188 
" style="fill:none;stroke:#ffb5b8;stroke-linecap:square;stroke-width:1.5;"/>
    </g>
    <g id="line2d_43"/>
    <g id="text_21">
     <!-- Sunday -->
     <g transform="translate(220.921719 146.139188)scale(0.1 -0.1)">
      <use xlink:href="#DejaVuSans-53"/>
      <use x="63.476562" xlink:href="#DejaVuSans-75"/>
      <use x="126.855469" xlink:href="#DejaVuSans-6e"/>
      <use x="190.234375" xlink:href="#DejaVuSans-64"/>
      <use x="253.710938" xlink:href="#DejaVuSans-61"/>
      <use x="314.990234" xlink:href="#DejaVuSans-79"/>
     </g>
    </g>
   </g>
  </g>
 </g>
 <defs>
  <clipPath id="pa1cacd0bd2">
   <rect height="266.112" width="357.12" x="57.6" y="41.472"/>
  </clipPath>
 </defs>
</svg>
