<?xml version="1.0" encoding="utf-8" standalone="no"?>
<!DOCTYPE svg PUBLIC "-//W3C//DTD SVG 1.1//EN"
  "http://www.w3.org/Graphics/SVG/1.1/DTD/svg11.dtd">
<!-- Created with matplotlib (http://matplotlib.org/) -->
<svg height="345.6pt" version="1.1" viewBox="0 0 460.8 345.6" width="460.8pt" xmlns="http://www.w3.org/2000/svg" xmlns:xlink="http://www.w3.org/1999/xlink">
 <defs>
  <style type="text/css">
*{stroke-linecap:butt;stroke-linejoin:round;}
  </style>
 </defs>
 <g id="figure_1">
  <g id="patch_1">
   <path d="M 0 345.6 
L 460.8 345.6 
L 460.8 0 
L 0 0 
z
" style="fill:#ffffff;"/>
  </g>
  <g id="axes_1">
   <g id="patch_2">
    <path d="M 57.6 307.584 
L 414.72 307.584 
L 414.72 41.472 
L 57.6 41.472 
z
" style="fill:#e5e5e5;"/>
   </g>
   <g id="matplotlib.axis_1">
    <g id="xtick_1">
     <g id="line2d_1">
      <path clip-path="url(#p1372a18dce)" d="M 77.467577 307.584 
L 77.467577 41.472 
" style="fill:none;stroke:#ffffff;stroke-linecap:square;stroke-width:0.8;"/>
     </g>
     <g id="line2d_2">
      <defs>
       <path d="M 0 0 
L 0 3.5 
" id="m143a9edaa9" style="stroke:#555555;stroke-width:0.8;"/>
      </defs>
      <g>
       <use style="fill:#555555;stroke:#555555;stroke-width:0.8;" x="77.467577" xlink:href="#m143a9edaa9" y="307.584"/>
      </g>
     </g>
     <g id="text_1">
      <!-- 2013 -->
      <defs>
       <path d="M 19.1875 8.296875 
L 53.609375 8.296875 
L 53.609375 0 
L 7.328125 0 
L 7.328125 8.296875 
Q 12.9375 14.109375 22.625 23.890625 
Q 32.328125 33.6875 34.8125 36.53125 
Q 39.546875 41.84375 41.421875 45.53125 
Q 43.3125 49.21875 43.3125 52.78125 
Q 43.3125 58.59375 39.234375 62.25 
Q 35.15625 65.921875 28.609375 65.921875 
Q 23.96875 65.921875 18.8125 64.3125 
Q 13.671875 62.703125 7.8125 59.421875 
L 7.8125 69.390625 
Q 13.765625 71.78125 18.9375 73 
Q 24.125 74.21875 28.421875 74.21875 
Q 39.75 74.21875 46.484375 68.546875 
Q 53.21875 62.890625 53.21875 53.421875 
Q 53.21875 48.921875 51.53125 44.890625 
Q 49.859375 40.875 45.40625 35.40625 
Q 44.1875 33.984375 37.640625 27.21875 
Q 31.109375 20.453125 19.1875 8.296875 
z
" id="DejaVuSans-32"/>
       <path d="M 31.78125 66.40625 
Q 24.171875 66.40625 20.328125 58.90625 
Q 16.5 51.421875 16.5 36.375 
Q 16.5 21.390625 20.328125 13.890625 
Q 24.171875 6.390625 31.78125 6.390625 
Q 39.453125 6.390625 43.28125 13.890625 
Q 47.125 21.390625 47.125 36.375 
Q 47.125 51.421875 43.28125 58.90625 
Q 39.453125 66.40625 31.78125 66.40625 
z
M 31.78125 74.21875 
Q 44.046875 74.21875 50.515625 64.515625 
Q 56.984375 54.828125 56.984375 36.375 
Q 56.984375 17.96875 50.515625 8.265625 
Q 44.046875 -1.421875 31.78125 -1.421875 
Q 19.53125 -1.421875 13.0625 8.265625 
Q 6.59375 17.96875 6.59375 36.375 
Q 6.59375 54.828125 13.0625 64.515625 
Q 19.53125 74.21875 31.78125 74.21875 
z
" id="DejaVuSans-30"/>
       <path d="M 12.40625 8.296875 
L 28.515625 8.296875 
L 28.515625 63.921875 
L 10.984375 60.40625 
L 10.984375 69.390625 
L 28.421875 72.90625 
L 38.28125 72.90625 
L 38.28125 8.296875 
L 54.390625 8.296875 
L 54.390625 0 
L 12.40625 0 
z
" id="DejaVuSans-31"/>
       <path d="M 40.578125 39.3125 
Q 47.65625 37.796875 51.625 33 
Q 55.609375 28.21875 55.609375 21.1875 
Q 55.609375 10.40625 48.1875 4.484375 
Q 40.765625 -1.421875 27.09375 -1.421875 
Q 22.515625 -1.421875 17.65625 -0.515625 
Q 12.796875 0.390625 7.625 2.203125 
L 7.625 11.71875 
Q 11.71875 9.328125 16.59375 8.109375 
Q 21.484375 6.890625 26.8125 6.890625 
Q 36.078125 6.890625 40.9375 10.546875 
Q 45.796875 14.203125 45.796875 21.1875 
Q 45.796875 27.640625 41.28125 31.265625 
Q 36.765625 34.90625 28.71875 34.90625 
L 20.21875 34.90625 
L 20.21875 43.015625 
L 29.109375 43.015625 
Q 36.375 43.015625 40.234375 45.921875 
Q 44.09375 48.828125 44.09375 54.296875 
Q 44.09375 59.90625 40.109375 62.90625 
Q 36.140625 65.921875 28.71875 65.921875 
Q 24.65625 65.921875 20.015625 65.03125 
Q 15.375 64.15625 9.8125 62.3125 
L 9.8125 71.09375 
Q 15.4375 72.65625 20.34375 73.4375 
Q 25.25 74.21875 29.59375 74.21875 
Q 40.828125 74.21875 47.359375 69.109375 
Q 53.90625 64.015625 53.90625 55.328125 
Q 53.90625 49.265625 50.4375 45.09375 
Q 46.96875 40.921875 40.578125 39.3125 
z
" id="DejaVuSans-33"/>
      </defs>
      <g style="fill:#555555;" transform="translate(64.742577 322.182437)scale(0.1 -0.1)">
       <use xlink:href="#DejaVuSans-32"/>
       <use x="63.623047" xlink:href="#DejaVuSans-30"/>
       <use x="127.246094" xlink:href="#DejaVuSans-31"/>
       <use x="190.869141" xlink:href="#DejaVuSans-33"/>
      </g>
     </g>
    </g>
    <g id="xtick_2">
     <g id="line2d_3">
      <path clip-path="url(#p1372a18dce)" d="M 142.681816 307.584 
L 142.681816 41.472 
" style="fill:none;stroke:#ffffff;stroke-linecap:square;stroke-width:0.8;"/>
     </g>
     <g id="line2d_4">
      <g>
       <use style="fill:#555555;stroke:#555555;stroke-width:0.8;" x="142.681816" xlink:href="#m143a9edaa9" y="307.584"/>
      </g>
     </g>
     <g id="text_2">
      <!-- 2014 -->
      <defs>
       <path d="M 37.796875 64.3125 
L 12.890625 25.390625 
L 37.796875 25.390625 
z
M 35.203125 72.90625 
L 47.609375 72.90625 
L 47.609375 25.390625 
L 58.015625 25.390625 
L 58.015625 17.1875 
L 47.609375 17.1875 
L 47.609375 0 
L 37.796875 0 
L 37.796875 17.1875 
L 4.890625 17.1875 
L 4.890625 26.703125 
z
" id="DejaVuSans-34"/>
      </defs>
      <g style="fill:#555555;" transform="translate(129.956816 322.182437)scale(0.1 -0.1)">
       <use xlink:href="#DejaVuSans-32"/>
       <use x="63.623047" xlink:href="#DejaVuSans-30"/>
       <use x="127.246094" xlink:href="#DejaVuSans-31"/>
       <use x="190.869141" xlink:href="#DejaVuSans-34"/>
      </g>
     </g>
    </g>
    <g id="xtick_3">
     <g id="line2d_5">
      <path clip-path="url(#p1372a18dce)" d="M 207.896054 307.584 
L 207.896054 41.472 
" style="fill:none;stroke:#ffffff;stroke-linecap:square;stroke-width:0.8;"/>
     </g>
     <g id="line2d_6">
      <g>
       <use style="fill:#555555;stroke:#555555;stroke-width:0.8;" x="207.896054" xlink:href="#m143a9edaa9" y="307.584"/>
      </g>
     </g>
     <g id="text_3">
      <!-- 2015 -->
      <defs>
       <path d="M 10.796875 72.90625 
L 49.515625 72.90625 
L 49.515625 64.59375 
L 19.828125 64.59375 
L 19.828125 46.734375 
Q 21.96875 47.46875 24.109375 47.828125 
Q 26.265625 48.1875 28.421875 48.1875 
Q 40.625 48.1875 47.75 41.5 
Q 54.890625 34.8125 54.890625 23.390625 
Q 54.890625 11.625 47.5625 5.09375 
Q 40.234375 -1.421875 26.90625 -1.421875 
Q 22.3125 -1.421875 17.546875 -0.640625 
Q 12.796875 0.140625 7.71875 1.703125 
L 7.71875 11.625 
Q 12.109375 9.234375 16.796875 8.0625 
Q 21.484375 6.890625 26.703125 6.890625 
Q 35.15625 6.890625 40.078125 11.328125 
Q 45.015625 15.765625 45.015625 23.390625 
Q 45.015625 31 40.078125 35.4375 
Q 35.15625 39.890625 26.703125 39.890625 
Q 22.75 39.890625 18.8125 39.015625 
Q 14.890625 38.140625 10.796875 36.28125 
z
" id="DejaVuSans-35"/>
      </defs>
      <g style="fill:#555555;" transform="translate(195.171054 322.182437)scale(0.1 -0.1)">
       <use xlink:href="#DejaVuSans-32"/>
       <use x="63.623047" xlink:href="#DejaVuSans-30"/>
       <use x="127.246094" xlink:href="#DejaVuSans-31"/>
       <use x="190.869141" xlink:href="#DejaVuSans-35"/>
      </g>
     </g>
    </g>
    <g id="xtick_4">
     <g id="line2d_7">
      <path clip-path="url(#p1372a18dce)" d="M 273.110293 307.584 
L 273.110293 41.472 
" style="fill:none;stroke:#ffffff;stroke-linecap:square;stroke-width:0.8;"/>
     </g>
     <g id="line2d_8">
      <g>
       <use style="fill:#555555;stroke:#555555;stroke-width:0.8;" x="273.110293" xlink:href="#m143a9edaa9" y="307.584"/>
      </g>
     </g>
     <g id="text_4">
      <!-- 2016 -->
      <defs>
       <path d="M 33.015625 40.375 
Q 26.375 40.375 22.484375 35.828125 
Q 18.609375 31.296875 18.609375 23.390625 
Q 18.609375 15.53125 22.484375 10.953125 
Q 26.375 6.390625 33.015625 6.390625 
Q 39.65625 6.390625 43.53125 10.953125 
Q 47.40625 15.53125 47.40625 23.390625 
Q 47.40625 31.296875 43.53125 35.828125 
Q 39.65625 40.375 33.015625 40.375 
z
M 52.59375 71.296875 
L 52.59375 62.3125 
Q 48.875 64.0625 45.09375 64.984375 
Q 41.3125 65.921875 37.59375 65.921875 
Q 27.828125 65.921875 22.671875 59.328125 
Q 17.53125 52.734375 16.796875 39.40625 
Q 19.671875 43.65625 24.015625 45.921875 
Q 28.375 48.1875 33.59375 48.1875 
Q 44.578125 48.1875 50.953125 41.515625 
Q 57.328125 34.859375 57.328125 23.390625 
Q 57.328125 12.15625 50.6875 5.359375 
Q 44.046875 -1.421875 33.015625 -1.421875 
Q 20.359375 -1.421875 13.671875 8.265625 
Q 6.984375 17.96875 6.984375 36.375 
Q 6.984375 53.65625 15.1875 63.9375 
Q 23.390625 74.21875 37.203125 74.21875 
Q 40.921875 74.21875 44.703125 73.484375 
Q 48.484375 72.75 52.59375 71.296875 
z
" id="DejaVuSans-36"/>
      </defs>
      <g style="fill:#555555;" transform="translate(260.385293 322.182437)scale(0.1 -0.1)">
       <use xlink:href="#DejaVuSans-32"/>
       <use x="63.623047" xlink:href="#DejaVuSans-30"/>
       <use x="127.246094" xlink:href="#DejaVuSans-31"/>
       <use x="190.869141" xlink:href="#DejaVuSans-36"/>
      </g>
     </g>
    </g>
    <g id="xtick_5">
     <g id="line2d_9">
      <path clip-path="url(#p1372a18dce)" d="M 338.5032 307.584 
L 338.5032 41.472 
" style="fill:none;stroke:#ffffff;stroke-linecap:square;stroke-width:0.8;"/>
     </g>
     <g id="line2d_10">
      <g>
       <use style="fill:#555555;stroke:#555555;stroke-width:0.8;" x="338.5032" xlink:href="#m143a9edaa9" y="307.584"/>
      </g>
     </g>
     <g id="text_5">
      <!-- 2017 -->
      <defs>
       <path d="M 8.203125 72.90625 
L 55.078125 72.90625 
L 55.078125 68.703125 
L 28.609375 0 
L 18.3125 0 
L 43.21875 64.59375 
L 8.203125 64.59375 
z
" id="DejaVuSans-37"/>
      </defs>
      <g style="fill:#555555;" transform="translate(325.7782 322.182437)scale(0.1 -0.1)">
       <use xlink:href="#DejaVuSans-32"/>
       <use x="63.623047" xlink:href="#DejaVuSans-30"/>
       <use x="127.246094" xlink:href="#DejaVuSans-31"/>
       <use x="190.869141" xlink:href="#DejaVuSans-37"/>
      </g>
     </g>
    </g>
    <g id="xtick_6">
     <g id="line2d_11">
      <path clip-path="url(#p1372a18dce)" d="M 403.717439 307.584 
L 403.717439 41.472 
" style="fill:none;stroke:#ffffff;stroke-linecap:square;stroke-width:0.8;"/>
     </g>
     <g id="line2d_12">
      <g>
       <use style="fill:#555555;stroke:#555555;stroke-width:0.8;" x="403.717439" xlink:href="#m143a9edaa9" y="307.584"/>
      </g>
     </g>
     <g id="text_6">
      <!-- 2018 -->
      <defs>
       <path d="M 31.78125 34.625 
Q 24.75 34.625 20.71875 30.859375 
Q 16.703125 27.09375 16.703125 20.515625 
Q 16.703125 13.921875 20.71875 10.15625 
Q 24.75 6.390625 31.78125 6.390625 
Q 38.8125 6.390625 42.859375 10.171875 
Q 46.921875 13.96875 46.921875 20.515625 
Q 46.921875 27.09375 42.890625 30.859375 
Q 38.875 34.625 31.78125 34.625 
z
M 21.921875 38.8125 
Q 15.578125 40.375 12.03125 44.71875 
Q 8.5 49.078125 8.5 55.328125 
Q 8.5 64.0625 14.71875 69.140625 
Q 20.953125 74.21875 31.78125 74.21875 
Q 42.671875 74.21875 48.875 69.140625 
Q 55.078125 64.0625 55.078125 55.328125 
Q 55.078125 49.078125 51.53125 44.71875 
Q 48 40.375 41.703125 38.8125 
Q 48.828125 37.15625 52.796875 32.3125 
Q 56.78125 27.484375 56.78125 20.515625 
Q 56.78125 9.90625 50.3125 4.234375 
Q 43.84375 -1.421875 31.78125 -1.421875 
Q 19.734375 -1.421875 13.25 4.234375 
Q 6.78125 9.90625 6.78125 20.515625 
Q 6.78125 27.484375 10.78125 32.3125 
Q 14.796875 37.15625 21.921875 38.8125 
z
M 18.3125 54.390625 
Q 18.3125 48.734375 21.84375 45.5625 
Q 25.390625 42.390625 31.78125 42.390625 
Q 38.140625 42.390625 41.71875 45.5625 
Q 45.3125 48.734375 45.3125 54.390625 
Q 45.3125 60.0625 41.71875 63.234375 
Q 38.140625 66.40625 31.78125 66.40625 
Q 25.390625 66.40625 21.84375 63.234375 
Q 18.3125 60.0625 18.3125 54.390625 
z
" id="DejaVuSans-38"/>
      </defs>
      <g style="fill:#555555;" transform="translate(390.992439 322.182437)scale(0.1 -0.1)">
       <use xlink:href="#DejaVuSans-32"/>
       <use x="63.623047" xlink:href="#DejaVuSans-30"/>
       <use x="127.246094" xlink:href="#DejaVuSans-31"/>
       <use x="190.869141" xlink:href="#DejaVuSans-38"/>
      </g>
     </g>
    </g>
    <g id="text_7">
     <!-- date -->
     <defs>
      <path d="M 45.40625 46.390625 
L 45.40625 75.984375 
L 54.390625 75.984375 
L 54.390625 0 
L 45.40625 0 
L 45.40625 8.203125 
Q 42.578125 3.328125 38.25 0.953125 
Q 33.9375 -1.421875 27.875 -1.421875 
Q 17.96875 -1.421875 11.734375 6.484375 
Q 5.515625 14.40625 5.515625 27.296875 
Q 5.515625 40.1875 11.734375 48.09375 
Q 17.96875 56 27.875 56 
Q 33.9375 56 38.25 53.625 
Q 42.578125 51.265625 45.40625 46.390625 
z
M 14.796875 27.296875 
Q 14.796875 17.390625 18.875 11.75 
Q 22.953125 6.109375 30.078125 6.109375 
Q 37.203125 6.109375 41.296875 11.75 
Q 45.40625 17.390625 45.40625 27.296875 
Q 45.40625 37.203125 41.296875 42.84375 
Q 37.203125 48.484375 30.078125 48.484375 
Q 22.953125 48.484375 18.875 42.84375 
Q 14.796875 37.203125 14.796875 27.296875 
z
" id="DejaVuSans-64"/>
      <path d="M 34.28125 27.484375 
Q 23.390625 27.484375 19.1875 25 
Q 14.984375 22.515625 14.984375 16.5 
Q 14.984375 11.71875 18.140625 8.90625 
Q 21.296875 6.109375 26.703125 6.109375 
Q 34.1875 6.109375 38.703125 11.40625 
Q 43.21875 16.703125 43.21875 25.484375 
L 43.21875 27.484375 
z
M 52.203125 31.203125 
L 52.203125 0 
L 43.21875 0 
L 43.21875 8.296875 
Q 40.140625 3.328125 35.546875 0.953125 
Q 30.953125 -1.421875 24.3125 -1.421875 
Q 15.921875 -1.421875 10.953125 3.296875 
Q 6 8.015625 6 15.921875 
Q 6 25.140625 12.171875 29.828125 
Q 18.359375 34.515625 30.609375 34.515625 
L 43.21875 34.515625 
L 43.21875 35.40625 
Q 43.21875 41.609375 39.140625 45 
Q 35.0625 48.390625 27.6875 48.390625 
Q 23 48.390625 18.546875 47.265625 
Q 14.109375 46.140625 10.015625 43.890625 
L 10.015625 52.203125 
Q 14.9375 54.109375 19.578125 55.046875 
Q 24.21875 56 28.609375 56 
Q 40.484375 56 46.34375 49.84375 
Q 52.203125 43.703125 52.203125 31.203125 
z
" id="DejaVuSans-61"/>
      <path d="M 18.3125 70.21875 
L 18.3125 54.6875 
L 36.8125 54.6875 
L 36.8125 47.703125 
L 18.3125 47.703125 
L 18.3125 18.015625 
Q 18.3125 11.328125 20.140625 9.421875 
Q 21.96875 7.515625 27.59375 7.515625 
L 36.8125 7.515625 
L 36.8125 0 
L 27.59375 0 
Q 17.1875 0 13.234375 3.875 
Q 9.28125 7.765625 9.28125 18.015625 
L 9.28125 47.703125 
L 2.6875 47.703125 
L 2.6875 54.6875 
L 9.28125 54.6875 
L 9.28125 70.21875 
z
" id="DejaVuSans-74"/>
      <path d="M 56.203125 29.59375 
L 56.203125 25.203125 
L 14.890625 25.203125 
Q 15.484375 15.921875 20.484375 11.0625 
Q 25.484375 6.203125 34.421875 6.203125 
Q 39.59375 6.203125 44.453125 7.46875 
Q 49.3125 8.734375 54.109375 11.28125 
L 54.109375 2.78125 
Q 49.265625 0.734375 44.1875 -0.34375 
Q 39.109375 -1.421875 33.890625 -1.421875 
Q 20.796875 -1.421875 13.15625 6.1875 
Q 5.515625 13.8125 5.515625 26.8125 
Q 5.515625 40.234375 12.765625 48.109375 
Q 20.015625 56 32.328125 56 
Q 43.359375 56 49.78125 48.890625 
Q 56.203125 41.796875 56.203125 29.59375 
z
M 47.21875 32.234375 
Q 47.125 39.59375 43.09375 43.984375 
Q 39.0625 48.390625 32.421875 48.390625 
Q 24.90625 48.390625 20.390625 44.140625 
Q 15.875 39.890625 15.1875 32.171875 
z
" id="DejaVuSans-65"/>
     </defs>
     <g style="fill:#555555;" transform="translate(222.63 337.38025)scale(0.12 -0.12)">
      <use xlink:href="#DejaVuSans-64"/>
      <use x="63.476562" xlink:href="#DejaVuSans-61"/>
      <use x="124.755859" xlink:href="#DejaVuSans-74"/>
      <use x="163.964844" xlink:href="#DejaVuSans-65"/>
     </g>
    </g>
   </g>
   <g id="matplotlib.axis_2">
    <g id="ytick_1">
     <g id="line2d_13">
      <path clip-path="url(#p1372a18dce)" d="M 57.6 287.760708 
L 414.72 287.760708 
" style="fill:none;stroke:#ffffff;stroke-linecap:square;stroke-width:0.8;"/>
     </g>
     <g id="line2d_14">
      <defs>
       <path d="M 0 0 
L -3.5 0 
" id="mf2a89ac135" style="stroke:#555555;stroke-width:0.8;"/>
      </defs>
      <g>
       <use style="fill:#555555;stroke:#555555;stroke-width:0.8;" x="57.6" xlink:href="#mf2a89ac135" y="287.760708"/>
      </g>
     </g>
     <g id="text_8">
      <!-- 14000 -->
      <g style="fill:#555555;" transform="translate(18.7875 291.559927)scale(0.1 -0.1)">
       <use xlink:href="#DejaVuSans-31"/>
       <use x="63.623047" xlink:href="#DejaVuSans-34"/>
       <use x="127.246094" xlink:href="#DejaVuSans-30"/>
       <use x="190.869141" xlink:href="#DejaVuSans-30"/>
       <use x="254.492188" xlink:href="#DejaVuSans-30"/>
      </g>
     </g>
    </g>
    <g id="ytick_2">
     <g id="line2d_15">
      <path clip-path="url(#p1372a18dce)" d="M 57.6 252.501148 
L 414.72 252.501148 
" style="fill:none;stroke:#ffffff;stroke-linecap:square;stroke-width:0.8;"/>
     </g>
     <g id="line2d_16">
      <g>
       <use style="fill:#555555;stroke:#555555;stroke-width:0.8;" x="57.6" xlink:href="#mf2a89ac135" y="252.501148"/>
      </g>
     </g>
     <g id="text_9">
      <!-- 16000 -->
      <g style="fill:#555555;" transform="translate(18.7875 256.300367)scale(0.1 -0.1)">
       <use xlink:href="#DejaVuSans-31"/>
       <use x="63.623047" xlink:href="#DejaVuSans-36"/>
       <use x="127.246094" xlink:href="#DejaVuSans-30"/>
       <use x="190.869141" xlink:href="#DejaVuSans-30"/>
       <use x="254.492188" xlink:href="#DejaVuSans-30"/>
      </g>
     </g>
    </g>
    <g id="ytick_3">
     <g id="line2d_17">
      <path clip-path="url(#p1372a18dce)" d="M 57.6 217.241588 
L 414.72 217.241588 
" style="fill:none;stroke:#ffffff;stroke-linecap:square;stroke-width:0.8;"/>
     </g>
     <g id="line2d_18">
      <g>
       <use style="fill:#555555;stroke:#555555;stroke-width:0.8;" x="57.6" xlink:href="#mf2a89ac135" y="217.241588"/>
      </g>
     </g>
     <g id="text_10">
      <!-- 18000 -->
      <g style="fill:#555555;" transform="translate(18.7875 221.040806)scale(0.1 -0.1)">
       <use xlink:href="#DejaVuSans-31"/>
       <use x="63.623047" xlink:href="#DejaVuSans-38"/>
       <use x="127.246094" xlink:href="#DejaVuSans-30"/>
       <use x="190.869141" xlink:href="#DejaVuSans-30"/>
       <use x="254.492188" xlink:href="#DejaVuSans-30"/>
      </g>
     </g>
    </g>
    <g id="ytick_4">
     <g id="line2d_19">
      <path clip-path="url(#p1372a18dce)" d="M 57.6 181.982028 
L 414.72 181.982028 
" style="fill:none;stroke:#ffffff;stroke-linecap:square;stroke-width:0.8;"/>
     </g>
     <g id="line2d_20">
      <g>
       <use style="fill:#555555;stroke:#555555;stroke-width:0.8;" x="57.6" xlink:href="#mf2a89ac135" y="181.982028"/>
      </g>
     </g>
     <g id="text_11">
      <!-- 20000 -->
      <g style="fill:#555555;" transform="translate(18.7875 185.781246)scale(0.1 -0.1)">
       <use xlink:href="#DejaVuSans-32"/>
       <use x="63.623047" xlink:href="#DejaVuSans-30"/>
       <use x="127.246094" xlink:href="#DejaVuSans-30"/>
       <use x="190.869141" xlink:href="#DejaVuSans-30"/>
       <use x="254.492188" xlink:href="#DejaVuSans-30"/>
      </g>
     </g>
    </g>
    <g id="ytick_5">
     <g id="line2d_21">
      <path clip-path="url(#p1372a18dce)" d="M 57.6 146.722467 
L 414.72 146.722467 
" style="fill:none;stroke:#ffffff;stroke-linecap:square;stroke-width:0.8;"/>
     </g>
     <g id="line2d_22">
      <g>
       <use style="fill:#555555;stroke:#555555;stroke-width:0.8;" x="57.6" xlink:href="#mf2a89ac135" y="146.722467"/>
      </g>
     </g>
     <g id="text_12">
      <!-- 22000 -->
      <g style="fill:#555555;" transform="translate(18.7875 150.521686)scale(0.1 -0.1)">
       <use xlink:href="#DejaVuSans-32"/>
       <use x="63.623047" xlink:href="#DejaVuSans-32"/>
       <use x="127.246094" xlink:href="#DejaVuSans-30"/>
       <use x="190.869141" xlink:href="#DejaVuSans-30"/>
       <use x="254.492188" xlink:href="#DejaVuSans-30"/>
      </g>
     </g>
    </g>
    <g id="ytick_6">
     <g id="line2d_23">
      <path clip-path="url(#p1372a18dce)" d="M 57.6 111.462907 
L 414.72 111.462907 
" style="fill:none;stroke:#ffffff;stroke-linecap:square;stroke-width:0.8;"/>
     </g>
     <g id="line2d_24">
      <g>
       <use style="fill:#555555;stroke:#555555;stroke-width:0.8;" x="57.6" xlink:href="#mf2a89ac135" y="111.462907"/>
      </g>
     </g>
     <g id="text_13">
      <!-- 24000 -->
      <g style="fill:#555555;" transform="translate(18.7875 115.262126)scale(0.1 -0.1)">
       <use xlink:href="#DejaVuSans-32"/>
       <use x="63.623047" xlink:href="#DejaVuSans-34"/>
       <use x="127.246094" xlink:href="#DejaVuSans-30"/>
       <use x="190.869141" xlink:href="#DejaVuSans-30"/>
       <use x="254.492188" xlink:href="#DejaVuSans-30"/>
      </g>
     </g>
    </g>
    <g id="ytick_7">
     <g id="line2d_25">
      <path clip-path="url(#p1372a18dce)" d="M 57.6 76.203347 
L 414.72 76.203347 
" style="fill:none;stroke:#ffffff;stroke-linecap:square;stroke-width:0.8;"/>
     </g>
     <g id="line2d_26">
      <g>
       <use style="fill:#555555;stroke:#555555;stroke-width:0.8;" x="57.6" xlink:href="#mf2a89ac135" y="76.203347"/>
      </g>
     </g>
     <g id="text_14">
      <!-- 26000 -->
      <g style="fill:#555555;" transform="translate(18.7875 80.002566)scale(0.1 -0.1)">
       <use xlink:href="#DejaVuSans-32"/>
       <use x="63.623047" xlink:href="#DejaVuSans-36"/>
       <use x="127.246094" xlink:href="#DejaVuSans-30"/>
       <use x="190.869141" xlink:href="#DejaVuSans-30"/>
       <use x="254.492188" xlink:href="#DejaVuSans-30"/>
      </g>
     </g>
    </g>
    <g id="text_15">
     <!-- editors -->
     <defs>
      <path d="M 9.421875 54.6875 
L 18.40625 54.6875 
L 18.40625 0 
L 9.421875 0 
z
M 9.421875 75.984375 
L 18.40625 75.984375 
L 18.40625 64.59375 
L 9.421875 64.59375 
z
" id="DejaVuSans-69"/>
      <path d="M 30.609375 48.390625 
Q 23.390625 48.390625 19.1875 42.75 
Q 14.984375 37.109375 14.984375 27.296875 
Q 14.984375 17.484375 19.15625 11.84375 
Q 23.34375 6.203125 30.609375 6.203125 
Q 37.796875 6.203125 41.984375 11.859375 
Q 46.1875 17.53125 46.1875 27.296875 
Q 46.1875 37.015625 41.984375 42.703125 
Q 37.796875 48.390625 30.609375 48.390625 
z
M 30.609375 56 
Q 42.328125 56 49.015625 48.375 
Q 55.71875 40.765625 55.71875 27.296875 
Q 55.71875 13.875 49.015625 6.21875 
Q 42.328125 -1.421875 30.609375 -1.421875 
Q 18.84375 -1.421875 12.171875 6.21875 
Q 5.515625 13.875 5.515625 27.296875 
Q 5.515625 40.765625 12.171875 48.375 
Q 18.84375 56 30.609375 56 
z
" id="DejaVuSans-6f"/>
      <path d="M 41.109375 46.296875 
Q 39.59375 47.171875 37.8125 47.578125 
Q 36.03125 48 33.890625 48 
Q 26.265625 48 22.1875 43.046875 
Q 18.109375 38.09375 18.109375 28.8125 
L 18.109375 0 
L 9.078125 0 
L 9.078125 54.6875 
L 18.109375 54.6875 
L 18.109375 46.1875 
Q 20.953125 51.171875 25.484375 53.578125 
Q 30.03125 56 36.53125 56 
Q 37.453125 56 38.578125 55.875 
Q 39.703125 55.765625 41.0625 55.515625 
z
" id="DejaVuSans-72"/>
      <path d="M 44.28125 53.078125 
L 44.28125 44.578125 
Q 40.484375 46.53125 36.375 47.5 
Q 32.28125 48.484375 27.875 48.484375 
Q 21.1875 48.484375 17.84375 46.4375 
Q 14.5 44.390625 14.5 40.28125 
Q 14.5 37.15625 16.890625 35.375 
Q 19.28125 33.59375 26.515625 31.984375 
L 29.59375 31.296875 
Q 39.15625 29.25 43.1875 25.515625 
Q 47.21875 21.78125 47.21875 15.09375 
Q 47.21875 7.46875 41.1875 3.015625 
Q 35.15625 -1.421875 24.609375 -1.421875 
Q 20.21875 -1.421875 15.453125 -0.5625 
Q 10.6875 0.296875 5.421875 2 
L 5.421875 11.28125 
Q 10.40625 8.6875 15.234375 7.390625 
Q 20.0625 6.109375 24.8125 6.109375 
Q 31.15625 6.109375 34.5625 8.28125 
Q 37.984375 10.453125 37.984375 14.40625 
Q 37.984375 18.0625 35.515625 20.015625 
Q 33.0625 21.96875 24.703125 23.78125 
L 21.578125 24.515625 
Q 13.234375 26.265625 9.515625 29.90625 
Q 5.8125 33.546875 5.8125 39.890625 
Q 5.8125 47.609375 11.28125 51.796875 
Q 16.75 56 26.8125 56 
Q 31.78125 56 36.171875 55.265625 
Q 40.578125 54.546875 44.28125 53.078125 
z
" id="DejaVuSans-73"/>
     </defs>
     <g style="fill:#555555;" transform="translate(12.291875 195.311437)rotate(-90)scale(0.12 -0.12)">
      <use xlink:href="#DejaVuSans-65"/>
      <use x="61.523438" xlink:href="#DejaVuSans-64"/>
      <use x="125" xlink:href="#DejaVuSans-69"/>
      <use x="152.783203" xlink:href="#DejaVuSans-74"/>
      <use x="191.992188" xlink:href="#DejaVuSans-6f"/>
      <use x="253.173828" xlink:href="#DejaVuSans-72"/>
      <use x="294.287109" xlink:href="#DejaVuSans-73"/>
     </g>
    </g>
   </g>
   <g id="line2d_27">
    <path clip-path="url(#p1372a18dce)" d="M -1 39.32128 
L -0.253502 35.848781 
L 0.997183 51.398247 
L 2.247867 25.817436 
L 3.498551 37.082865 
L 4.749235 45.086785 
L 5.999919 42.124982 
L 7.250603 32.939867 
L 8.501287 44.557892 
L 9.751971 89.055457 
L 11.002655 191.572628 
L 12.253339 87.556925 
L 13.504023 55.241539 
L 14.754707 38.510877 
L 16.005391 40.397264 
L 17.256075 29.343392 
L 18.506759 53.972194 
L 19.757443 35.10833 
L 21.008127 53.337522 
L 22.258811 34.526547 
L 23.509495 51.028021 
L 24.760179 60.107358 
L 26.010863 65.978075 
L 27.261547 53.672488 
L 28.512231 71.637234 
L 29.762915 60.266026 
L 31.013599 58.009414 
L 32.264283 39.797851 
L 33.514967 63.033901 
L 34.765651 52.932037 
L 36.016335 67.846831 
L 37.267019 59.331648 
L 38.517703 93.956536 
L 39.768387 87.292479 
L 41.019071 90.536358 
L 42.269755 96.213147 
L 43.520439 105.750859 
L 44.771123 106.932054 
L 46.021807 95.684254 
L 47.272491 95.120101 
L 48.523175 93.709719 
L 51.024544 125.831178 
L 52.275228 106.068195 
L 53.525912 103.018243 
L 54.776596 102.260162 
L 56.02728 119.660755 
L 57.277964 102.718536 
L 58.528648 96.742041 
L 59.779332 94.362021 
L 61.030016 82.779255 
L 62.2807 73.788067 
L 63.531384 78.019214 
L 64.782068 60.318915 
L 66.032752 69.627439 
L 67.283436 76.890909 
L 68.53412 66.859564 
L 69.784804 66.030964 
L 71.035488 59.402167 
L 72.286172 64.849769 
L 73.536856 61.041736 
L 74.78754 100.162218 
L 76.038224 202.60887 
L 77.288908 157.635301 
L 78.539592 68.587282 
L 79.790276 68.146538 
L 81.04096 82.267991 
L 82.291644 64.796879 
L 83.542328 76.855649 
L 84.793012 64.003539 
L 86.043696 74.563778 
L 87.29438 63.404127 
L 88.545064 69.715588 
L 89.795748 85.370833 
L 91.046432 87.292479 
L 92.297116 90.37769 
L 93.5478 101.66075 
L 94.798484 79.799822 
L 96.049168 89.319903 
L 97.299852 86.798845 
L 98.550536 81.509911 
L 99.801221 58.908533 
L 101.051905 53.302263 
L 102.302589 67.705793 
L 103.553273 110.563788 
L 104.803957 83.449187 
L 106.054641 93.62157 
L 107.305325 106.861535 
L 108.556009 115.535386 
L 111.057377 123.962421 
L 112.308061 133.041758 
L 113.558745 139.582406 
L 114.809429 147.709735 
L 116.060113 150.51287 
L 117.310797 145.223936 
L 118.561481 152.804742 
L 119.812165 165.533443 
L 121.062849 157.652931 
L 122.313533 161.090738 
L 123.564217 146.352242 
L 124.814901 150.089755 
L 126.065585 112.591213 
L 127.316269 109.153406 
L 128.566953 128.84587 
L 129.817637 100.162218 
L 132.319005 110.669567 
L 133.569689 113.790038 
L 134.820373 107.002573 
L 136.071057 111.850762 
L 137.321741 112.555954 
L 138.572425 91.611775 
L 139.823109 126.853705 
L 141.073793 192.859602 
L 142.324477 166.009447 
L 143.575161 129.180836 
L 144.825845 109.893857 
L 146.076529 125.584361 
L 147.327213 99.633325 
L 148.577898 126.219033 
L 149.828582 111.850762 
L 151.079266 121.582401 
L 152.32995 108.624513 
L 153.580634 114.794936 
L 154.831318 117.527552 
L 156.082002 120.542244 
L 157.332686 109.946746 
L 158.58337 123.627456 
L 159.834054 124.385536 
L 161.084738 137.66076 
L 162.335422 144.836081 
L 163.586106 123.504047 
L 164.83679 127.347339 
L 166.087474 127.364969 
L 167.338158 149.75479 
L 168.588842 177.891919 
L 169.839526 145.69994 
L 171.09021 160.456066 
L 172.340894 169.200437 
L 173.591578 180.659794 
L 174.842262 181.294466 
L 176.092946 171.598087 
L 177.34363 194.287614 
L 178.594314 177.186727 
L 179.844998 174.57752 
L 181.095682 166.5736 
L 182.346366 164.440396 
L 183.59705 166.044706 
L 184.847734 169.887998 
L 186.098418 171.774385 
L 187.349102 166.221004 
L 188.599786 162.078006 
L 189.85047 158.904645 
L 191.101154 163.682316 
L 192.351838 156.13677 
L 193.602522 150.125015 
L 194.853206 148.732262 
L 196.10389 146.440391 
L 197.354574 142.315022 
L 198.605259 147.357139 
L 199.855943 142.138725 
L 201.106627 152.363997 
L 202.357311 154.708758 
L 203.607995 153.122078 
L 204.858679 165.533443 
L 206.109363 211.229833 
L 207.360047 198.342463 
L 208.610731 162.783197 
L 209.861415 151.746955 
L 211.112099 153.985937 
L 212.362783 149.525602 
L 213.613467 150.583389 
L 214.864151 134.857625 
L 216.114835 162.642159 
L 217.365519 132.953609 
L 218.616203 140.975159 
L 219.866887 142.914435 
L 221.117571 146.54617 
L 222.368255 140.023151 
L 223.618939 150.653908 
L 224.869623 136.426676 
L 226.120307 129.744989 
L 227.370991 125.778289 
L 228.621675 119.008453 
L 229.872359 121.899737 
L 231.123043 123.010413 
L 232.373727 121.705809 
L 233.624411 156.806702 
L 234.875095 126.624518 
L 236.125779 139.159292 
L 237.376463 142.861546 
L 238.627147 143.919332 
L 239.877831 151.500138 
L 241.128515 148.168109 
L 242.379199 147.180842 
L 243.629883 145.329715 
L 244.880567 138.965364 
L 246.131251 151.711695 
L 247.381936 155.748915 
L 248.63262 147.427659 
L 249.883304 137.149497 
L 251.133988 120.242538 
L 252.384672 146.687208 
L 253.635356 117.457032 
L 254.88604 122.023146 
L 256.136724 131.913452 
L 257.387408 126.624518 
L 258.638092 127.29445 
L 259.888776 117.844888 
L 261.13946 114.865455 
L 262.390144 102.753796 
L 263.640828 114.230783 
L 264.891512 122.287592 
L 266.142196 123.504047 
L 268.643564 113.014328 
L 269.894248 134.152434 
L 271.144932 174.947745 
L 272.395616 180.642164 
L 273.6463 126.236663 
L 274.896984 113.419813 
L 276.147668 118.356151 
L 277.398352 98.064274 
L 278.649036 88.156338 
L 279.89972 108.589253 
L 281.150404 126.695037 
L 282.401088 103.035872 
L 283.651772 101.131856 
L 284.902456 107.848802 
L 286.15314 118.567709 
L 287.403824 130.802776 
L 288.654508 145.488383 
L 289.905192 120.295427 
L 291.155876 120.595133 
L 292.40656 124.262128 
L 293.657244 116.363986 
L 294.907928 118.567709 
L 296.158613 128.440385 
L 297.409297 126.395331 
L 298.659981 130.185734 
L 299.910665 159.803764 
L 301.161349 152.222959 
L 302.412033 149.966347 
L 303.662717 151.923253 
L 304.913401 160.15636 
L 306.164085 178.121106 
L 307.414769 164.458026 
L 308.665453 172.268019 
L 309.916137 166.732268 
L 311.166821 158.446271 
L 312.417505 152.029031 
L 313.668189 155.572617 
L 314.918873 149.490343 
L 316.169557 137.237646 
L 317.420241 163.417869 
L 318.670925 132.019231 
L 319.921609 132.689162 
L 321.172293 130.344402 
L 322.422977 134.029026 
L 323.673661 151.588287 
L 324.924345 136.620603 
L 326.175029 123.398268 
L 327.425713 136.532455 
L 328.676397 131.225891 
L 329.927081 122.358111 
L 331.177765 123.133822 
L 332.428449 118.338521 
L 333.679133 109.453112 
L 334.929817 119.784163 
L 336.180501 149.73716 
L 337.431185 222.618671 
L 338.681869 142.967324 
L 339.932553 116.557914 
L 341.183237 127.135782 
L 342.433921 107.690134 
L 343.684605 115.764574 
L 344.935289 125.848808 
L 346.185974 113.790038 
L 347.436658 114.794936 
L 348.687342 99.421767 
L 349.938026 111.004533 
L 351.18871 117.509922 
L 352.439394 112.185728 
L 354.940762 121.776329 
L 356.191446 133.605911 
L 357.44213 133.165167 
L 358.692814 114.812565 
L 359.943498 122.111294 
L 361.194182 128.228828 
L 362.444866 131.472708 
L 363.69555 129.515802 
L 364.946234 157.053519 
L 366.196918 142.685248 
L 367.447602 147.462918 
L 368.698286 153.633341 
L 369.94897 163.118163 
L 371.199654 174.965375 
L 372.450338 158.781237 
L 373.701022 166.5736 
L 374.951706 155.396319 
L 376.20239 158.693088 
L 377.453074 167.120123 
L 378.703758 169.588292 
L 379.954442 175.176932 
L 381.205126 163.188682 
L 382.45581 169.359105 
L 383.706494 155.30817 
L 384.957178 145.276825 
L 386.207862 148.185739 
L 387.458546 139.33559 
L 388.70923 135.827263 
L 389.959914 130.362031 
L 391.210598 117.351254 
L 392.461282 134.892885 
L 393.711966 118.585338 
L 394.962651 119.043713 
L 396.213335 123.891902 
L 397.464019 109.682299 
L 398.714703 122.393371 
L 399.965387 126.712667 
L 401.216071 154.144605 
L 402.466755 267.856686 
L 402.466755 267.856686 
" style="fill:none;stroke:#e24a33;stroke-linecap:square;stroke-width:1.5;"/>
   </g>
   <g id="line2d_28">
    <path clip-path="url(#p1372a18dce)" d="M -1 37.677476 
L -0.074832 31.300297 
L 1.175852 37.312052 
L 2.426536 30.806663 
L 3.67722 37.382571 
L 4.927904 51.15143 
L 6.178588 28.409013 
L 7.429272 19.505974 
L 8.679956 49.776307 
L 9.93064 101.925196 
L 11.181324 139.229811 
L 12.432008 60.548102 
L 13.682692 40.644081 
L 14.933376 56.881108 
L 16.18406 34.085803 
L 17.434744 15.87424 
L 18.685428 32.728309 
L 19.936112 55.823321 
L 21.186796 39.304217 
L 22.43748 39.92126 
L 23.688164 49.194524 
L 24.938848 62.963382 
L 26.189532 45.280713 
L 27.440216 61.817447 
L 28.6909 65.53733 
L 29.941584 46.30324 
L 31.192268 62.698936 
L 32.442952 51.09854 
L 33.693636 53.54908 
L 34.94432 54.765535 
L 36.195004 60.74203 
L 37.445688 64.76162 
L 38.696372 62.046634 
L 39.947056 83.008442 
L 41.19774 81.051537 
L 42.448424 89.936946 
L 43.699109 96.583373 
L 44.949793 94.961433 
L 46.200477 88.332636 
L 47.451161 93.198455 
L 48.701845 97.500121 
L 49.952529 109.576521 
L 51.203213 107.073092 
L 52.453897 99.509916 
L 53.704581 99.122061 
L 54.955265 86.763585 
L 56.205949 100.05644 
L 57.456633 94.37965 
L 58.707317 97.64116 
L 59.958001 100.091699 
L 61.208685 76.150458 
L 62.459369 68.322835 
L 63.710053 65.131845 
L 64.960737 70.544188 
L 66.211421 88.456044 
L 67.462105 86.975143 
L 68.712789 67.335568 
L 69.963473 62.31108 
L 71.214157 48.154367 
L 72.464841 61.976115 
L 73.715525 67.688163 
L 74.966209 98.963393 
L 76.216893 252.060403 
L 77.467577 176.640204 
L 78.718261 65.308143 
L 79.968945 74.740075 
L 81.219629 78.495219 
L 82.470313 66.506968 
L 83.720997 61.588259 
L 84.971681 58.185712 
L 86.222365 59.225869 
L 87.473049 61.059366 
L 88.723733 75.621564 
L 89.974417 80.134788 
L 91.225101 81.5628 
L 92.475786 94.591208 
L 93.72647 76.74987 
L 94.977154 78.653887 
L 96.227838 88.456044 
L 97.478522 83.255259 
L 98.729206 80.311086 
L 99.97989 56.881108 
L 101.230574 45.756717 
L 102.481258 65.837036 
L 103.731942 67.353198 
L 104.982626 85.547131 
L 106.23331 95.472697 
L 107.483994 108.81844 
L 108.734678 103.441357 
L 109.985362 113.543221 
L 111.236046 120.85958 
L 112.48673 133.870358 
L 113.737414 138.172024 
L 117.489466 149.772419 
L 118.74015 149.331675 
L 119.990834 151.553027 
L 121.241518 146.616689 
L 122.492202 147.533437 
L 123.742886 145.259196 
L 124.99357 143.584367 
L 126.244254 116.716582 
L 127.494938 106.914424 
L 128.745622 107.936951 
L 129.996306 100.902669 
L 131.24699 101.978086 
L 132.497674 104.710701 
L 133.748358 99.650955 
L 134.999042 83.290519 
L 136.249726 121.600031 
L 137.50041 96.935968 
L 138.751094 101.378673 
L 140.001778 122.164184 
L 141.252462 232.156382 
L 142.503147 200.087812 
L 143.753831 117.756739 
L 145.004515 107.408058 
L 146.255199 108.04273 
L 147.505883 103.300319 
L 148.756567 114.036855 
L 150.007251 103.529506 
L 151.257935 107.848802 
L 152.508619 103.899732 
L 153.759303 114.45997 
L 155.009987 116.452135 
L 156.260671 110.334601 
L 157.511355 106.526569 
L 158.762039 128.422756 
L 160.012723 123.486417 
L 161.263407 134.769477 
L 162.514091 122.305222 
L 163.764775 123.204341 
L 165.015459 121.811588 
L 166.266143 119.519717 
L 167.516827 146.458021 
L 168.767511 147.762624 
L 170.018195 142.297393 
L 171.268879 151.623546 
L 172.519563 168.636284 
L 173.770247 172.091721 
L 175.020931 180.395347 
L 176.271615 171.739125 
L 177.522299 176.375757 
L 178.772983 172.708763 
L 180.023667 174.260184 
L 181.274351 165.022179 
L 182.525035 160.050581 
L 183.775719 169.711701 
L 185.026403 154.726388 
L 186.277087 166.679378 
L 187.527771 162.113265 
L 188.778455 160.984959 
L 190.029139 156.189659 
L 191.279824 160.614734 
L 192.530508 149.966347 
L 193.781192 146.123055 
L 195.031876 146.193574 
L 196.28256 133.447243 
L 197.533244 144.677413 
L 198.783928 146.440391 
L 200.034612 139.952632 
L 201.285296 167.613757 
L 202.53598 140.816491 
L 203.786664 151.782214 
L 205.037348 166.820417 
L 206.288032 218.158336 
L 207.538716 195.43355 
L 208.7894 147.586327 
L 210.040084 150.177904 
L 211.290768 144.377707 
L 212.541452 153.210226 
L 213.792136 144.747932 
L 215.04282 138.013356 
L 216.293504 143.28466 
L 217.544188 134.998664 
L 218.794872 148.467816 
L 220.045556 139.018254 
L 221.29624 146.916395 
L 222.546924 148.044701 
L 223.797608 146.458021 
L 225.048292 118.708747 
L 226.298976 120.89484 
L 227.54966 127.31208 
L 228.800344 116.557914 
L 230.051028 123.27486 
L 231.301712 118.179853 
L 232.552396 119.784163 
L 233.80308 127.24156 
L 235.053764 133.218056 
L 236.304448 137.237646 
L 237.555132 137.484463 
L 238.805816 142.456061 
L 240.056501 155.061353 
L 241.307185 142.54421 
L 242.557869 144.042741 
L 243.808553 146.687208 
L 245.059237 136.144599 
L 246.309921 142.52658 
L 247.560605 142.350282 
L 248.811289 142.52658 
L 250.061973 130.062325 
L 251.312657 116.293467 
L 252.563341 122.48152 
L 253.814025 118.250373 
L 255.064709 125.760659 
L 256.315393 130.50307 
L 257.566077 124.244498 
L 258.816761 114.918344 
L 260.067445 116.381616 
L 261.318129 107.302279 
L 262.568813 105.574561 
L 263.819497 119.061342 
L 265.070181 112.362026 
L 266.320865 131.455078 
L 267.571549 119.554976 
L 268.822233 119.590236 
L 270.072917 139.529517 
L 271.323601 177.839029 
L 272.574285 164.581435 
L 273.824969 122.657818 
L 275.075653 106.279752 
L 276.326337 107.408058 
L 277.577021 92.740081 
L 278.827705 103.670544 
L 280.078389 99.950661 
L 281.329073 100.84978 
L 282.579757 103.793953 
L 283.830441 108.712662 
L 285.081125 110.969273 
L 287.582493 139.617666 
L 288.833177 121.899737 
L 290.083862 110.510899 
L 291.334546 118.074075 
L 292.58523 135.157332 
L 293.835914 112.150469 
L 295.086598 116.452135 
L 296.337282 117.68622 
L 297.587966 115.464867 
L 298.83865 127.506007 
L 300.089334 134.134804 
L 301.340018 142.085835 
L 302.590702 142.561839 
L 303.841386 152.381627 
L 305.09207 158.128935 
L 306.342754 163.294461 
L 307.593438 163.594167 
L 308.844122 165.974187 
L 310.094806 155.096613 
L 311.34549 158.922275 
L 312.596174 149.102488 
L 315.097542 146.704838 
L 316.348226 124.755761 
L 317.59891 139.705815 
L 318.849594 136.708752 
L 320.100278 138.559879 
L 321.350962 149.137747 
L 322.601646 130.291512 
L 323.85233 136.250378 
L 325.103014 131.860563 
L 326.353698 120.03098 
L 327.604382 131.878193 
L 328.855066 145.347345 
L 330.10575 111.903652 
L 331.356434 132.477605 
L 332.607118 94.626467 
L 333.857802 111.744984 
L 335.108486 121.000618 
L 336.35917 165.268996 
L 337.609854 183.127963 
L 338.860539 114.45997 
L 340.111223 114.107374 
L 341.361907 116.02902 
L 342.612591 103.987881 
L 343.863275 106.350271 
L 345.113959 110.986903 
L 346.364643 120.330687 
L 347.615327 106.156343 
L 348.866011 106.949684 
L 350.116695 101.59023 
L 351.367379 113.296404 
L 352.618063 108.501104 
L 355.119431 117.157326 
L 356.370115 131.560857 
L 357.620799 127.770454 
L 358.871483 112.767511 
L 360.122167 123.803753 
L 361.372851 119.572606 
L 362.623535 132.142639 
L 363.874219 137.819428 
L 365.124903 130.767516 
L 366.375587 144.201409 
L 367.626271 150.883096 
L 370.127639 161.337555 
L 371.378323 177.76851 
L 372.629007 157.688191 
L 373.879691 157.70582 
L 375.130375 152.769482 
L 376.381059 159.768505 
L 377.631743 158.55205 
L 378.882427 171.598087 
L 380.133111 161.302296 
L 381.383795 145.752829 
L 382.634479 147.833144 
L 383.885163 153.492303 
L 385.135847 149.472713 
L 386.386531 146.775357 
L 387.637216 143.161252 
L 388.8879 128.422756 
L 390.138584 137.801799 
L 391.389268 109.223925 
L 392.639952 148.838041 
L 393.890636 121.882107 
L 395.14132 121.035878 
L 396.392004 128.458015 
L 397.642688 107.954581 
L 398.893372 119.466827 
L 400.144056 137.008459 
L 401.39474 164.034911 
L 402.645424 219.709757 
L 402.645424 219.709757 
" style="fill:none;stroke:#348abd;stroke-linecap:square;stroke-width:1.5;"/>
   </g>
   <g id="line2d_29">
    <path clip-path="url(#p1372a18dce)" d="M -1 43.653493 
L 0.103837 44.011369 
L 1.354521 20.599021 
L 2.605205 37.100495 
L 3.855889 50.35809 
L 5.106573 85.776318 
L 6.357257 31.600004 
L 7.607941 25.729287 
L 8.858625 58.732235 
L 10.109309 111.004533 
L 11.359993 125.69014 
L 12.610677 54.042714 
L 13.861361 37.135754 
L 14.879488 346.6 
M 15.344937 346.6 
L 16.362729 37.682278 
L 17.613413 33.856615 
L 18.864097 37.082865 
L 20.114781 56.863478 
L 21.365465 40.943787 
L 22.616149 42.28365 
L 23.866833 54.30716 
L 25.117517 64.126948 
L 26.368201 60.407064 
L 27.618885 71.372787 
L 28.869569 70.984932 
L 30.120253 48.101478 
L 31.370937 49.141635 
L 32.621621 59.437426 
L 33.872305 54.606867 
L 35.122989 57.639189 
L 36.373674 74.969263 
L 37.624358 74.440369 
L 38.875042 62.734195 
L 40.125726 81.5628 
L 41.37641 95.490327 
L 42.627094 104.076029 
L 43.877778 108.0251 
L 45.128462 125.972216 
L 46.379146 94.838025 
L 47.62983 100.83215 
L 48.880514 103.300319 
L 50.131198 110.281712 
L 51.381882 100.144588 
L 52.632566 103.652915 
L 53.88325 101.308154 
L 55.133934 96.548113 
L 56.384618 110.034895 
L 57.635302 101.60786 
L 58.885986 106.42079 
L 61.387354 75.850752 
L 62.638038 75.850752 
L 63.888722 91.135771 
L 65.139406 72.836059 
L 66.39009 103.829212 
L 67.640774 97.993755 
L 68.891458 70.279741 
L 70.142142 99.756733 
L 71.392826 53.813526 
L 72.64351 66.648006 
L 73.894194 77.754768 
L 75.144878 110.369861 
L 76.395562 188.522676 
L 77.646246 91.100511 
L 78.89693 65.026067 
L 80.147614 82.144583 
L 81.398298 65.713628 
L 82.648982 65.114215 
L 83.899666 65.678368 
L 85.15035 76.414904 
L 86.401035 61.500111 
L 87.651719 67.194529 
L 88.902403 88.0153 
L 90.153087 89.901686 
L 91.403771 82.761625 
L 92.654455 105.803748 
L 93.905139 85.141646 
L 95.155823 85.441352 
L 98.907875 97.852717 
L 100.158559 75.639194 
L 101.409243 68.005499 
L 102.659927 73.59414 
L 103.910611 71.16123 
L 105.161295 91.029992 
L 106.411979 101.378673 
L 107.662663 112.749881 
L 108.913347 119.184751 
L 110.164031 121.247435 
L 111.414715 124.279757 
L 112.665399 139.406109 
L 113.916083 150.689168 
L 116.417451 151.3591 
L 117.668135 148.185739 
L 118.918819 156.96537 
L 120.169503 152.94578 
L 121.420187 152.081921 
L 122.670871 152.15244 
L 125.172239 146.54617 
L 126.422923 119.925202 
L 127.673607 111.621575 
L 128.924291 116.540284 
L 130.174975 104.781221 
L 131.425659 112.02706 
L 132.676343 104.410995 
L 133.927027 109.576521 
L 135.177712 99.650955 
L 136.428396 141.539312 
L 137.67908 97.253305 
L 138.929764 116.099539 
L 140.180448 139.688185 
L 141.431132 286.932108 
L 142.681816 213.962449 
L 143.9325 117.809628 
L 145.183184 107.055462 
L 146.433868 110.281712 
L 147.684552 112.115209 
L 148.935236 114.583378 
L 150.18592 111.21609 
L 151.436604 102.841945 
L 152.687288 109.752819 
L 153.937972 118.373781 
L 155.188656 122.992783 
L 156.43934 122.781226 
L 157.690024 111.092682 
L 158.940708 121.776329 
L 160.191392 134.698957 
L 161.442076 138.789066 
L 162.69276 121.106397 
L 163.943444 132.88309 
L 165.194128 127.999641 
L 166.444812 132.988869 
L 167.695496 151.411989 
L 168.94618 144.060371 
L 170.196864 150.283683 
L 171.447548 160.367917 
L 172.698232 174.930116 
L 173.948916 179.619637 
L 175.1996 173.78418 
L 176.450284 182.246474 
L 177.700968 183.903674 
L 178.951652 166.5736 
L 180.202336 171.562828 
L 181.45302 164.493286 
L 182.703704 160.702883 
L 183.954389 168.477616 
L 185.205073 166.150485 
L 186.455757 168.95362 
L 187.706441 169.464884 
L 188.957125 169.79985 
L 190.207809 161.143628 
L 191.458493 157.476633 
L 192.709177 151.28858 
L 193.959861 153.562822 
L 195.210545 153.192597 
L 196.461229 143.143622 
L 197.711913 146.334612 
L 198.962597 151.782214 
L 200.213281 149.596122 
L 201.463965 180.395347 
L 202.714649 144.465856 
L 203.965333 157.406114 
L 205.216017 175.970273 
L 206.466701 254.563832 
L 207.717385 225.263138 
L 208.968069 150.565759 
L 210.218753 153.280746 
L 211.469437 149.472713 
L 212.720121 144.536375 
L 213.970805 149.261156 
L 215.221489 143.108362 
L 216.472173 145.558902 
L 217.722857 139.476628 
L 218.973541 143.33755 
L 221.474909 154.902685 
L 222.725593 144.94186 
L 223.976277 165.656851 
L 225.226961 123.169081 
L 226.477645 134.52266 
L 227.728329 128.387496 
L 228.979013 132.213158 
L 230.229697 134.50503 
L 231.480381 127.206301 
L 232.731065 131.31404 
L 233.98175 134.064285 
L 236.483118 144.201409 
L 237.733802 147.586327 
L 238.984486 146.052536 
L 240.23517 149.75479 
L 241.485854 144.14852 
L 242.736538 150.266053 
L 243.987222 145.71757 
L 245.237906 151.147542 
L 246.48859 144.060371 
L 247.739274 154.074086 
L 248.989958 147.762624 
L 250.240642 129.127947 
L 252.74201 127.135782 
L 253.992694 129.938917 
L 255.243378 138.877215 
L 256.494062 132.830201 
L 257.744746 130.027066 
L 258.99543 127.805713 
L 260.246114 121.63529 
L 261.496798 118.268002 
L 262.747482 107.178871 
L 263.998166 131.966341 
L 265.24885 120.330687 
L 266.499534 159.010424 
L 267.750218 113.102477 
L 269.000902 125.566731 
L 270.251586 155.978102 
L 271.50227 192.894861 
L 272.752954 169.006509 
L 274.003638 122.640188 
L 275.254322 108.589253 
L 276.505006 110.123044 
L 277.75569 93.956536 
L 279.006374 102.365941 
L 280.257058 108.571623 
L 281.507742 108.219028 
L 282.758427 105.59219 
L 284.009111 115.411978 
L 285.259795 113.878187 
L 286.510479 131.331669 
L 287.761163 146.986914 
L 289.011847 124.262128 
L 290.262531 115.323829 
L 291.513215 130.115215 
L 292.763899 126.254293 
L 294.014583 123.715604 
L 295.265267 137.220016 
L 296.515951 125.936957 
L 297.766635 127.25919 
L 299.017319 130.45018 
L 300.268003 140.040781 
L 302.769371 157.335595 
L 304.020055 154.444311 
L 305.270739 158.375752 
L 306.521423 163.876243 
L 307.772107 160.068211 
L 309.022791 167.895833 
L 310.273475 161.972227 
L 311.524159 161.831189 
L 312.774843 152.13481 
L 314.025527 148.644113 
L 315.276211 145.7352 
L 316.526895 125.161246 
L 317.777579 146.54617 
L 319.028263 142.914435 
L 320.278947 138.013356 
L 321.529631 134.222953 
L 322.780315 139.30033 
L 324.030999 136.426676 
L 326.532367 127.629416 
L 327.783051 119.554976 
L 329.033735 199.065284 
L 330.284419 111.304239 
L 331.535104 151.147542 
L 332.785788 105.59219 
L 334.036472 108.289547 
L 335.287156 136.303267 
L 336.53784 170.505041 
L 337.788524 173.590252 
L 339.039208 116.716582 
L 340.289892 123.821383 
L 341.540576 113.983966 
L 342.79126 117.545181 
L 344.041944 107.390428 
L 345.292628 112.185728 
L 346.543312 121.882107 
L 347.793996 106.121084 
L 349.04468 115.799833 
L 350.295364 108.201398 
L 351.546048 121.776329 
L 352.796732 110.775346 
L 354.047416 116.134799 
L 355.2981 124.173979 
L 356.548784 136.849791 
L 357.799468 125.70777 
L 359.050152 115.605906 
L 360.300836 124.984949 
L 361.55152 129.65684 
L 362.802204 128.369866 
L 364.052888 140.957529 
L 365.303572 141.045678 
L 366.554256 146.916395 
L 367.80494 157.176927 
L 369.055624 160.279768 
L 370.306308 159.556947 
L 371.556992 171.051564 
L 372.807676 159.609837 
L 374.05836 156.1544 
L 375.309044 157.353225 
L 376.559728 157.72345 
L 377.810412 160.438436 
L 379.061096 167.490348 
L 380.31178 150.283683 
L 381.562465 149.049598 
L 382.813149 158.428641 
L 384.063833 148.009441 
L 385.314517 157.547152 
L 387.815885 146.175944 
L 389.066569 135.439408 
L 390.317253 142.632358 
L 391.567937 117.862517 
L 392.818621 137.502092 
L 394.069305 128.440385 
L 395.319989 126.395331 
L 396.570673 146.687208 
L 397.821357 111.886022 
L 399.072041 121.441363 
L 400.322725 140.781232 
L 401.573409 166.485451 
L 402.824093 184.538346 
L 402.824093 184.538346 
" style="fill:none;stroke:#988ed5;stroke-linecap:square;stroke-width:1.5;"/>
   </g>
   <g id="line2d_30">
    <path clip-path="url(#p1372a18dce)" d="M -1 63.849369 
L -0.968178 64.021169 
L 0.282506 44.487373 
L 1.53319 37.276793 
L 2.783874 48.71852 
L 4.034558 57.639189 
L 5.285242 120.383576 
L 6.535926 49.423711 
L 7.78661 35.319887 
L 9.037294 72.853689 
L 10.287978 123.680345 
L 11.538662 121.846848 
L 12.789346 43.835071 
L 14.04003 46.567687 
L 15.290714 123.768494 
L 16.541398 39.198439 
L 17.792082 48.313035 
L 19.042766 44.487373 
L 20.29345 50.869353 
L 21.544134 49.035856 
L 22.794818 48.295405 
L 24.045502 78.301291 
L 25.296186 77.895806 
L 26.54687 71.866421 
L 27.797554 76.608832 
L 29.048239 89.884056 
L 30.298923 64.426654 
L 31.549607 62.769455 
L 34.050975 82.973183 
L 35.301659 75.304228 
L 36.552343 71.302268 
L 37.803027 92.01726 
L 39.053711 74.863484 
L 40.304395 83.678374 
L 41.555079 101.837047 
L 42.805763 106.262122 
L 44.056447 117.033918 
L 45.307131 116.08191 
L 46.557815 110.123044 
L 47.808499 101.114226 
L 49.059183 109.029998 
L 50.309867 120.700912 
L 51.560551 104.181808 
L 52.811235 114.230783 
L 54.061919 107.319909 
L 55.312603 98.240572 
L 56.563287 112.520694 
L 57.813971 107.831173 
L 59.064655 112.538324 
L 60.315339 102.277792 
L 61.566023 87.662704 
L 62.816707 78.689146 
L 64.067391 86.023135 
L 65.318075 79.95849 
L 66.568759 99.915401 
L 67.819443 84.80668 
L 69.070127 80.293456 
L 70.320811 135.880153 
L 71.571495 65.308143 
L 72.822179 71.566715 
L 74.072863 85.406092 
L 75.323547 129.515802 
L 76.574231 151.887993 
L 77.824915 74.36985 
L 79.0756 68.904618 
L 80.326284 84.471714 
L 81.576968 73.065246 
L 82.827652 59.225869 
L 85.32902 98.945763 
L 86.579704 62.998642 
L 87.830388 73.823327 
L 89.081072 91.541256 
L 90.331756 89.055457 
L 91.58244 91.523626 
L 92.833124 125.601991 
L 94.083808 91.541256 
L 95.334492 90.836065 
L 96.585176 96.01922 
L 97.83586 92.704821 
L 99.086544 98.170053 
L 100.337228 73.118136 
L 101.587912 74.457999 
L 102.838596 89.760648 
L 104.08928 80.134788 
L 105.339964 101.220005 
L 106.590648 117.192586 
L 107.841332 126.007476 
L 109.092016 122.957524 
L 110.3427 154.849796 
L 111.593384 136.038821 
L 112.844068 145.453123 
L 114.094752 144.007481 
L 115.345436 159.874283 
L 116.59612 157.282706 
L 117.846804 161.073108 
L 119.097488 153.933047 
L 120.348172 151.993772 
L 121.598856 158.992794 
L 124.100224 165.850779 
L 125.350908 138.753807 
L 126.601592 131.349299 
L 127.852277 119.590236 
L 129.102961 121.846848 
L 130.353645 112.185728 
L 131.604329 134.029026 
L 132.855013 118.144594 
L 134.105697 120.471725 
L 135.356381 114.883085 
L 136.607065 182.916406 
L 137.857749 110.510899 
L 139.108433 125.601991 
L 140.359117 153.580452 
L 141.609801 229.423766 
L 142.860485 150.847836 
L 144.111169 112.168098 
L 145.361853 102.330681 
L 146.612537 113.402183 
L 147.863221 111.744984 
L 149.113905 118.091705 
L 150.364589 117.739109 
L 151.615273 105.874267 
L 152.865957 116.522654 
L 154.116641 115.147531 
L 155.367325 128.316977 
L 156.618009 126.941854 
L 157.868693 118.708747 
L 159.119377 129.903657 
L 160.370061 137.748909 
L 161.620745 154.55009 
L 162.871429 138.52462 
L 165.372797 135.192591 
L 167.874165 157.441374 
L 169.124849 147.198471 
L 171.626217 167.278791 
L 172.876901 187.147553 
L 174.127585 185.314056 
L 176.628954 191.39633 
L 177.879638 190.56773 
L 179.130322 172.532465 
L 180.381006 174.348333 
L 181.63169 170.505041 
L 182.882374 171.192602 
L 184.133058 170.222964 
L 185.383742 165.815519 
L 187.88511 175.688196 
L 189.135794 177.045689 
L 190.386478 174.048627 
L 191.637162 172.920321 
L 192.887846 163.453129 
L 194.13853 162.53638 
L 195.389214 155.554987 
L 196.639898 152.522665 
L 197.890582 148.785152 
L 199.141266 156.313068 
L 200.39195 156.454106 
L 201.642634 216.800843 
L 202.893318 153.73912 
L 204.144002 153.333635 
L 205.394686 190.708769 
L 206.64537 307.100577 
L 207.896054 244.373819 
L 209.146738 154.091715 
L 210.397422 153.174967 
L 211.648106 152.769482 
L 212.89879 152.663703 
L 214.149474 164.052541 
L 215.400158 147.603956 
L 216.650842 142.456061 
L 217.901526 142.173984 
L 219.15221 146.740097 
L 220.402894 153.016299 
L 221.653578 156.383587 
L 222.904262 160.861551 
L 224.154946 173.484474 
L 225.40563 126.624518 
L 226.656315 131.966341 
L 227.906999 131.26115 
L 229.157683 142.173984 
L 230.408367 137.748909 
L 231.659051 134.804736 
L 232.909735 162.289563 
L 234.160419 139.106402 
L 235.411103 146.352242 
L 236.661787 151.394359 
L 237.912471 154.867426 
L 239.163155 150.51287 
L 240.413839 153.792009 
L 241.664523 150.318943 
L 242.915207 149.931087 
L 244.165891 148.538335 
L 245.416575 145.506013 
L 246.667259 146.651948 
L 247.917943 158.675458 
L 249.168627 151.746955 
L 250.419311 137.096607 
L 251.669995 138.771437 
L 252.920679 136.973199 
L 255.422047 144.060371 
L 256.672731 140.269968 
L 257.923415 127.682305 
L 259.174099 129.268985 
L 260.424783 132.689162 
L 261.675467 124.015311 
L 262.926151 109.62941 
L 264.176835 130.696997 
L 265.427519 129.65684 
L 266.678203 185.349316 
L 267.928887 127.29445 
L 269.179571 132.971239 
L 270.430255 170.081926 
L 271.680939 231.52171 
L 272.931623 198.148536 
L 274.182307 108.307177 
L 275.432992 112.979068 
L 276.683676 106.755756 
L 277.93436 103.018243 
L 279.185044 108.553994 
L 280.435728 112.362026 
L 281.686412 109.347334 
L 282.937096 112.097579 
L 284.18778 113.895817 
L 285.438464 118.144594 
L 286.689148 135.950672 
L 287.939832 158.217084 
L 289.190516 133.218056 
L 290.4412 127.946752 
L 291.691884 125.337544 
L 292.942568 134.575549 
L 294.193252 124.10346 
L 295.443936 143.372809 
L 296.69462 131.137742 
L 297.945304 132.88309 
L 299.195988 137.590241 
L 300.446672 141.028048 
L 301.697356 152.029031 
L 302.94804 160.420807 
L 304.198724 163.929133 
L 305.449408 162.783197 
L 306.700092 163.188682 
L 307.950776 164.352247 
L 309.20146 176.18183 
L 310.452144 171.38653 
L 312.953512 160.438436 
L 314.204196 154.126975 
L 315.45488 149.331675 
L 316.705564 142.579469 
L 317.956248 145.400234 
L 319.206932 140.534415 
L 320.457616 143.795924 
L 321.7083 136.409046 
L 322.958984 144.501115 
L 324.209669 141.521682 
L 325.460353 146.634319 
L 327.961721 113.031958 
L 329.212405 157.511893 
L 330.463089 117.351254 
L 331.713773 190.937956 
L 332.964457 117.157326 
L 334.215141 114.248413 
L 336.716509 183.709746 
L 337.967193 169.394365 
L 339.217877 118.902674 
L 340.468561 113.437443 
L 341.719245 110.140674 
L 342.969929 123.980051 
L 344.220613 109.541261 
L 345.471297 111.23372 
L 346.721981 115.28857 
L 347.972665 109.62941 
L 349.223349 113.084847 
L 350.474033 114.918344 
L 351.724717 115.799833 
L 352.975401 122.49915 
L 354.226085 123.186711 
L 355.476769 127.770454 
L 356.727453 143.901703 
L 357.978137 127.911492 
L 359.228821 127.506007 
L 360.479505 139.194551 
L 361.730189 138.277803 
L 362.980873 137.131867 
L 364.231557 147.551067 
L 365.482241 153.562822 
L 366.732925 163.840984 
L 367.983609 161.002589 
L 369.234293 156.260178 
L 370.484977 161.584372 
L 371.735661 164.211209 
L 372.986345 164.12306 
L 374.23703 150.336572 
L 375.487714 154.885056 
L 376.738398 162.712678 
L 377.989082 166.767527 
L 379.239766 169.905628 
L 380.49045 162.236674 
L 381.741134 143.108362 
L 382.991818 157.564782 
L 384.242502 151.641176 
L 385.493186 159.398279 
L 387.994554 143.901703 
L 389.245238 146.740097 
L 390.495922 147.515808 
L 391.746606 135.28074 
L 392.99729 128.88113 
L 394.247974 133.041758 
L 395.498658 125.020208 
L 396.749342 186.354213 
L 398.000026 120.189648 
L 399.25071 129.022168 
L 400.501394 157.159297 
L 401.752078 181.80573 
L 403.002762 184.256269 
L 403.002762 184.256269 
" style="fill:none;stroke:#777777;stroke-linecap:square;stroke-width:1.5;"/>
   </g>
   <g id="line2d_31">
    <path clip-path="url(#p1372a18dce)" d="M -1 93.042005 
L -0.789509 92.510894 
L 1.711859 70.632337 
L 2.962543 83.660744 
L 4.213227 84.75379 
L 5.463911 141.980057 
L 6.714595 82.550068 
L 7.965279 73.012357 
L 9.215963 109.893857 
L 10.466647 151.746955 
L 11.717331 122.199443 
L 12.968015 62.258191 
L 14.218699 67.300308 
L 15.469383 63.086791 
L 16.720067 65.308143 
L 17.970751 74.211182 
L 19.221435 80.910498 
L 20.472119 76.943798 
L 21.722803 68.693061 
L 22.973488 79.041742 
L 24.224172 96.565743 
L 25.474856 105.116186 
L 26.72554 103.899732 
L 27.976224 102.383571 
L 29.226908 116.593173 
L 30.477592 92.352226 
L 31.728276 93.198455 
L 32.97896 96.01922 
L 34.229644 100.267997 
L 35.480328 108.977108 
L 36.731012 108.360066 
L 37.981696 113.543221 
L 39.23238 110.775346 
L 40.483064 114.213153 
L 41.733748 126.042735 
L 42.984432 129.480542 
L 44.235116 126.077995 
L 45.4858 119.378679 
L 46.736484 115.306199 
L 47.987168 127.29445 
L 49.237852 127.964381 
L 50.488536 129.075058 
L 51.73922 119.131862 
L 52.989904 131.666635 
L 54.240588 120.524614 
L 55.491272 103.899732 
L 56.741956 125.584361 
L 57.99264 130.5207 
L 59.243324 132.459975 
L 60.494008 125.425693 
L 61.744692 112.961439 
L 62.995376 121.741069 
L 64.24606 110.158304 
L 65.496744 110.087784 
L 66.747428 116.487395 
L 67.998112 110.740086 
L 69.248796 105.697969 
L 70.49948 150.636279 
L 71.750165 96.089739 
L 73.000849 100.550073 
L 74.251533 120.489355 
L 75.502217 170.452151 
L 76.752901 150.830206 
L 78.003585 83.078961 
L 79.254269 89.513831 
L 80.504953 109.61178 
L 81.755637 97.235675 
L 83.006321 97.58827 
L 84.257005 98.064274 
L 85.507689 109.171036 
L 86.758373 94.203353 
L 88.009057 111.956541 
L 89.259741 115.958501 
L 90.510425 119.096602 
L 91.761109 113.208255 
L 93.011793 145.118157 
L 94.262477 114.706787 
L 95.513161 121.582401 
L 96.763845 137.590241 
L 98.014529 120.982988 
L 99.265213 121.476622 
L 100.515897 105.839007 
L 101.766581 106.879164 
L 103.017265 119.25527 
L 104.267949 112.309137 
L 105.518633 117.192586 
L 106.769317 136.12697 
L 108.020001 136.620603 
L 109.270685 138.119135 
L 110.521369 165.498183 
L 111.772053 148.767522 
L 113.022737 160.702883 
L 114.273421 170.099556 
L 115.524105 165.674481 
L 116.774789 173.343435 
L 118.025473 176.499166 
L 119.276157 171.227862 
L 120.526842 174.471741 
L 121.777526 172.99084 
L 123.02821 178.791037 
L 124.278894 185.507984 
L 125.529578 164.546175 
L 126.780262 152.399257 
L 128.030946 146.51091 
L 129.28163 149.384564 
L 130.532314 147.515808 
L 131.782998 165.251366 
L 133.033682 146.387502 
L 134.284366 138.753807 
L 135.53505 145.417864 
L 136.785734 198.62454 
L 138.036418 136.268008 
L 139.287102 150.213164 
L 140.537786 190.197505 
L 141.78847 198.571651 
L 143.039154 137.378684 
L 144.289838 128.687202 
L 145.540522 127.31208 
L 146.791206 129.515802 
L 148.04189 126.307182 
L 149.292574 131.24352 
L 150.543258 153.051558 
L 151.793942 141.486423 
L 153.044626 146.334612 
L 154.29531 147.374769 
L 155.545994 153.122078 
L 156.796678 149.983977 
L 158.047362 154.4972 
L 159.298046 154.902685 
L 160.54873 164.440396 
L 161.799414 176.499166 
L 163.050098 150.442351 
L 164.300782 160.9497 
L 165.551466 156.700923 
L 166.80215 167.666646 
L 168.052834 197.866459 
L 169.303518 175.247452 
L 171.804887 195.768516 
L 173.055571 201.392415 
L 174.306255 193.84687 
L 175.556939 226.285665 
L 176.807623 203.190653 
L 178.058307 206.769498 
L 179.308991 184.679384 
L 180.559675 187.958523 
L 181.810359 185.578503 
L 183.061043 198.307204 
L 184.311727 189.298386 
L 185.562411 186.371843 
L 186.813095 193.882129 
L 188.063779 190.373803 
L 189.314463 198.307204 
L 190.565147 193.300346 
L 191.815831 190.514841 
L 193.066515 183.37478 
L 194.317199 183.974193 
L 195.567883 180.941871 
L 196.818567 190.461952 
L 198.069251 174.454111 
L 199.319935 169.658811 
L 200.570619 181.682321 
L 201.821303 232.209271 
L 203.071987 177.556953 
L 204.322671 189.897799 
L 205.573355 210.947756 
L 206.824039 265.370887 
L 208.074723 191.995743 
L 209.325407 170.55793 
L 210.576091 170.452151 
L 211.826775 166.203374 
L 213.077459 168.918361 
L 214.328143 172.514836 
L 215.578827 175.247452 
L 216.829511 165.004549 
L 218.080195 171.263121 
L 220.581564 179.443339 
L 221.832248 179.954603 
L 223.082932 178.138735 
L 224.333616 182.828257 
L 225.5843 154.955575 
L 226.834984 157.353225 
L 228.085668 161.196517 
L 229.336352 155.660766 
L 230.587036 144.571634 
L 231.83772 148.785152 
L 233.088404 179.831194 
L 234.339088 164.96929 
L 235.589772 165.586332 
L 236.840456 170.751858 
L 238.09114 177.574583 
L 239.341824 163.858614 
L 240.592508 192.542266 
L 241.843192 157.70582 
L 243.093876 167.878203 
L 244.34456 167.455089 
L 245.595244 161.76067 
L 246.845928 190.356173 
L 248.096612 175.476639 
L 249.347296 162.166155 
L 250.59798 154.779277 
L 251.848664 153.069188 
L 253.099348 151.729325 
L 254.350032 163.876243 
L 255.600716 160.315028 
L 256.8514 160.279768 
L 258.102084 145.68231 
L 259.352768 145.206306 
L 260.603452 148.291518 
L 261.854136 159.31013 
L 263.10482 146.440391 
L 264.355504 148.450186 
L 265.606188 154.832166 
L 266.856872 197.073119 
L 268.107557 141.310125 
L 269.358241 154.109345 
L 270.608925 197.566753 
L 271.859609 280.567758 
L 273.110293 215.355201 
L 274.360977 129.67447 
L 275.611661 127.118152 
L 276.862345 120.03098 
L 278.113029 127.506007 
L 279.363713 129.357134 
L 280.614397 140.428636 
L 281.865081 128.07016 
L 283.115765 132.706792 
L 284.366449 131.983971 
L 285.617133 145.012379 
L 286.867817 149.825309 
L 288.118501 173.220027 
L 289.369185 155.572617 
L 290.619869 144.624524 
L 291.870553 157.882118 
L 293.121237 154.990834 
L 294.371921 142.279763 
L 295.622605 152.15244 
L 296.873289 153.386524 
L 298.123973 153.72149 
L 299.374657 168.900731 
L 300.625341 167.737165 
L 301.876025 176.393387 
L 303.126709 178.755778 
L 304.377393 188.98105 
L 305.628077 168.565765 
L 306.878761 177.662731 
L 308.129445 184.520716 
L 309.380129 176.728353 
L 310.630813 182.58144 
L 311.881497 181.294466 
L 313.132181 164.440396 
L 314.382865 164.510915 
L 315.633549 166.414932 
L 316.884233 159.715615 
L 318.134918 156.207289 
L 319.385602 158.904645 
L 320.636286 159.133833 
L 321.88697 163.682316 
L 323.137654 160.861551 
L 324.388338 156.841961 
L 325.639022 156.10151 
L 326.889706 159.32776 
L 328.14039 149.084858 
L 329.391074 174.930116 
L 330.641758 146.669578 
L 331.892442 195.204363 
L 333.143126 135.016293 
L 334.39381 137.572612 
L 335.644494 175.917383 
L 336.895178 204.23081 
L 338.145862 181.594172 
L 339.396546 129.744989 
L 340.64723 123.592196 
L 341.897914 133.411983 
L 343.148598 132.424716 
L 344.399282 132.601014 
L 345.649966 133.887988 
L 346.90065 136.268008 
L 348.151334 129.586321 
L 349.402018 132.689162 
L 350.652702 128.175939 
L 351.903386 136.849791 
L 353.15407 144.554004 
L 354.404754 144.166149 
L 355.655438 158.922275 
L 356.906122 163.823354 
L 358.156806 143.478588 
L 359.40749 147.991812 
L 360.658174 144.060371 
L 361.908858 159.116203 
L 363.159542 163.805724 
L 364.410226 177.451174 
L 366.911595 159.292501 
L 368.162279 177.468804 
L 369.412963 167.684276 
L 370.663647 175.176932 
L 371.914331 168.12502 
L 373.165015 173.096618 
L 374.415699 166.185745 
L 375.666383 172.726393 
L 376.917067 172.461946 
L 378.167751 179.919343 
L 379.418435 174.54226 
L 380.669119 171.492308 
L 381.919803 171.492308 
L 383.170487 174.54226 
L 384.421171 167.38457 
L 385.671855 177.539323 
L 386.922539 175.35323 
L 388.173223 159.257241 
L 389.423907 163.470758 
L 390.674591 169.253326 
L 391.925275 150.54813 
L 393.175959 157.335595 
L 394.426643 154.162235 
L 395.677327 148.873301 
L 396.928011 194.745988 
L 398.178695 149.631381 
L 399.429379 136.832161 
L 400.680063 176.375757 
L 401.930747 201.586343 
L 403.181431 180.377718 
L 403.181431 180.377718 
" style="fill:none;stroke:#fbc15e;stroke-linecap:square;stroke-width:1.5;"/>
   </g>
   <g id="line2d_32">
    <path clip-path="url(#p1372a18dce)" d="M -1 133.029503 
L -0.61084 133.764579 
L 0.639844 123.468787 
L 1.890528 111.603945 
L 3.141212 117.950666 
L 4.391896 135.316 
L 5.64258 127.611786 
L 6.893264 128.05253 
L 8.143948 123.662715 
L 9.394632 151.500138 
L 10.645316 210.136786 
L 11.896 168.389467 
L 13.146684 107.090722 
L 14.397368 109.752819 
L 15.648053 103.811583 
L 16.898737 108.04273 
L 18.149421 116.311097 
L 19.400105 115.746944 
L 20.650789 120.136759 
L 21.901473 111.868392 
L 23.152157 114.213153 
L 24.402841 134.363992 
L 25.653525 133.940877 
L 26.904209 146.704838 
L 28.154893 140.09367 
L 29.405577 148.767522 
L 30.656261 129.445283 
L 31.906945 125.108357 
L 33.157629 134.293472 
L 34.408313 141.169087 
L 35.658997 149.842938 
L 36.909681 150.671538 
L 38.160365 155.748915 
L 39.411049 145.047638 
L 41.912417 156.224919 
L 43.163101 164.264099 
L 44.413785 170.416892 
L 45.664469 154.585349 
L 46.915153 164.387507 
L 48.165837 177.204357 
L 49.416521 184.044712 
L 50.667205 165.180847 
L 51.917889 156.489366 
L 53.168573 173.413954 
L 54.419257 160.279768 
L 55.669941 159.433539 
L 56.920625 162.236674 
L 58.171309 175.317971 
L 59.421993 172.12698 
L 60.672677 159.32776 
L 61.923361 149.419824 
L 63.174045 159.874283 
L 64.42473 151.270951 
L 65.675414 161.090738 
L 66.926098 151.200432 
L 68.176782 149.419824 
L 69.427466 145.118157 
L 70.67815 135.227851 
L 71.928834 145.752829 
L 73.179518 149.7019 
L 74.430202 163.241571 
L 75.680886 195.856664 
L 78.182254 124.226868 
L 80.683622 147.357139 
L 81.934306 144.977119 
L 83.18499 144.589264 
L 84.435674 140.499155 
L 85.686358 140.587304 
L 86.937042 137.995726 
L 88.187726 141.750869 
L 89.43841 159.839024 
L 90.689094 151.993772 
L 91.939778 156.189659 
L 93.190462 177.521693 
L 94.441146 155.854693 
L 95.69183 156.330698 
L 96.942514 170.275854 
L 98.193198 159.221981 
L 99.443882 183.480559 
L 100.694566 142.879175 
L 101.94525 156.648034 
L 103.195934 162.236674 
L 104.446618 158.587309 
L 105.697302 164.634324 
L 106.947986 176.745983 
L 108.19867 183.004555 
L 109.449354 186.054507 
L 110.700038 192.471747 
L 111.950722 203.754806 
L 113.201406 203.895844 
L 114.452091 214.191636 
L 115.702775 210.983016 
L 116.953459 209.925229 
L 118.204143 214.561861 
L 119.454827 216.21906 
L 120.705511 216.166171 
L 121.956195 206.998685 
L 123.206879 215.919354 
L 124.457563 217.946779 
L 125.708247 202.503092 
L 126.958931 195.468809 
L 128.209615 201.7979 
L 129.460299 192.841972 
L 130.710983 196.614745 
L 131.961667 199.840995 
L 133.212351 183.974193 
L 134.463035 187.323851 
L 135.713719 191.043735 
L 136.964403 195.592218 
L 138.215087 178.526591 
L 139.465771 198.377723 
L 140.716455 223.059415 
L 141.967139 214.244525 
L 143.217823 172.867431 
L 144.468507 182.634329 
L 145.719191 181.911508 
L 146.969875 173.272916 
L 148.220559 166.644119 
L 149.471243 175.547158 
L 150.721927 189.01631 
L 151.972611 182.687219 
L 153.223295 189.968318 
L 154.473979 190.691139 
L 155.724663 194.305244 
L 156.975347 193.406125 
L 158.226031 195.856664 
L 159.476715 200.405148 
L 160.727399 212.23473 
L 161.978083 209.625523 
L 163.228768 200.440407 
L 164.479452 206.240605 
L 165.730136 196.685264 
L 166.98082 207.915434 
L 168.231504 229.564804 
L 169.482188 214.508972 
L 170.732872 220.979101 
L 171.983556 228.665685 
L 173.23424 245.202419 
L 174.484924 239.772447 
L 175.735608 249.045711 
L 176.986292 242.099578 
L 178.236976 229.84688 
L 179.48766 234.747959 
L 180.738344 225.650993 
L 181.989028 233.231798 
L 183.239712 227.731307 
L 184.490396 227.396341 
L 185.74108 223.4649 
L 186.991764 222.460003 
L 188.242448 222.70682 
L 189.493132 228.365979 
L 190.743816 231.274893 
L 191.9945 229.529544 
L 193.245184 220.485467 
L 194.495868 222.900747 
L 195.746552 228.771464 
L 196.997236 225.950699 
L 199.498604 215.654907 
L 200.749288 222.072147 
L 201.999972 225.016321 
L 203.250656 220.485467 
L 204.50134 237.850801 
L 205.752024 245.237678 
L 207.002708 254.299385 
L 208.253392 197.743051 
L 209.504076 213.380666 
L 210.75476 218.440413 
L 212.005445 210.824348 
L 213.256129 209.696042 
L 214.506813 207.033945 
L 215.757497 219.674497 
L 217.008181 199.982033 
L 218.258865 211.899764 
L 219.509549 201.304267 
L 220.760233 214.526602 
L 222.010917 214.526602 
L 223.261601 214.861567 
L 224.512285 214.174006 
L 225.762969 198.64217 
L 227.013653 199.576548 
L 228.264337 193.229827 
L 229.515021 192.930121 
L 230.765705 192.947751 
L 232.016389 195.821405 
L 233.267073 217.929149 
L 234.517757 196.367928 
L 235.768441 195.556958 
L 237.019125 200.510926 
L 238.269809 210.595161 
L 239.520493 207.545209 
L 240.771177 218.740119 
L 242.021861 196.949711 
L 243.272545 206.170086 
L 244.523229 206.311124 
L 245.773913 200.369888 
L 247.024597 217.82337 
L 248.275281 199.770476 
L 249.525965 198.853727 
L 252.027333 179.549118 
L 253.278017 183.269001 
L 254.528701 198.536391 
L 255.779385 199.523659 
L 257.030069 198.342463 
L 258.280753 180.99476 
L 259.531437 182.651959 
L 260.782121 184.802792 
L 262.032806 197.443345 
L 263.28349 184.855682 
L 264.534174 196.297409 
L 265.784858 193.882129 
L 267.035542 184.027082 
L 268.286226 183.445299 
L 269.53691 195.768516 
L 270.787594 227.290562 
L 272.038278 243.844926 
L 273.288962 177.997697 
L 274.539646 166.855676 
L 275.79033 167.33168 
L 277.041014 165.903668 
L 278.291698 166.044706 
L 279.542382 172.95558 
L 280.793066 172.232759 
L 282.04375 172.074091 
L 283.294434 173.554993 
L 284.545118 168.812582 
L 285.795802 179.40808 
L 287.046486 184.785163 
L 288.29717 199.118174 
L 289.547854 185.225907 
L 290.798538 181.276836 
L 292.049222 194.305244 
L 293.299906 189.562833 
L 294.55059 181.188687 
L 295.801274 199.030025 
L 297.051958 196.491337 
L 298.302642 191.590258 
L 299.553326 204.794963 
L 300.80401 202.59124 
L 302.054694 206.62846 
L 303.305378 215.355201 
L 304.556062 215.249423 
L 305.806746 199.118174 
L 307.05743 211.776356 
L 308.308114 215.231793 
L 309.558798 211.370871 
L 310.809483 218.599081 
L 312.060167 210.736199 
L 313.310851 200.863522 
L 314.561535 192.859602 
L 315.812219 198.730319 
L 317.062903 199.100544 
L 318.313587 192.595155 
L 319.564271 197.549123 
L 320.814955 203.208283 
L 322.065639 201.727381 
L 323.316323 198.730319 
L 324.567007 193.935018 
L 325.817691 195.662737 
L 327.068375 207.915434 
L 328.319059 195.786145 
L 329.569743 196.808673 
L 330.820427 190.356173 
L 332.071111 186.318953 
L 333.321795 183.269001 
L 334.572479 185.049609 
L 335.823163 206.963426 
L 337.073847 246.083908 
L 338.324531 211.864505 
L 339.575215 167.437459 
L 342.076583 178.59711 
L 343.327267 173.925218 
L 344.577951 176.1642 
L 345.828635 179.549118 
L 347.079319 177.592212 
L 348.330003 162.501121 
L 349.580687 171.792015 
L 350.831371 155.607877 
L 352.082055 168.530505 
L 353.332739 179.478599 
L 354.583423 178.138735 
L 355.834107 197.549123 
L 357.084791 189.545203 
L 358.335475 189.580463 
L 359.58616 179.37282 
L 360.836844 183.42767 
L 362.087528 195.962443 
L 363.338212 195.715626 
L 364.588896 205.958528 
L 365.83958 205.077039 
L 367.090264 202.097607 
L 368.340948 198.800838 
L 369.591632 211.494279 
L 372.093 203.719546 
L 373.343684 212.728364 
L 374.594368 206.963426 
L 375.845052 205.87038 
L 377.095736 216.166171 
L 378.34642 208.920332 
L 379.597104 214.579491 
L 380.847788 209.00848 
L 382.098472 208.285659 
L 383.349156 205.05941 
L 384.59984 201.075079 
L 385.850524 206.222975 
L 387.101208 205.270967 
L 388.351892 192.894861 
L 390.85326 200.140701 
L 393.354628 187.888004 
L 394.605312 184.97909 
L 395.855996 179.690156 
L 397.10668 185.314056 
L 398.357364 182.105436 
L 399.608048 189.580463 
L 400.858732 207.686247 
L 402.109416 228.683315 
L 403.3601 198.148536 
L 403.3601 198.148536 
" style="fill:none;stroke:#8eba42;stroke-linecap:square;stroke-width:1.5;"/>
   </g>
   <g id="line2d_33">
    <path clip-path="url(#p1372a18dce)" d="M -1 89.162264 
L -0.432171 90.042724 
L 0.818513 85.635279 
L 2.069197 73.488361 
L 3.319881 78.35418 
L 4.570565 98.011385 
L 5.821249 106.861535 
L 7.071933 87.274849 
L 8.322618 84.01334 
L 9.573302 137.766539 
L 10.823986 254.475683 
L 13.325354 90.888954 
L 14.576038 86.675436 
L 15.826722 83.97808 
L 17.077406 78.530478 
L 18.32809 91.029992 
L 19.578774 83.784153 
L 20.829458 97.323824 
L 22.080142 76.397275 
L 23.330826 87.16907 
L 24.58151 108.289547 
L 25.832194 103.741064 
L 27.082878 103.300319 
L 28.333562 110.45801 
L 29.584246 139.917372 
L 30.83493 97.782198 
L 32.085614 84.982978 
L 33.336298 104.904629 
L 34.586982 107.319909 
L 35.837666 124.297387 
L 37.08835 118.356151 
L 38.339034 125.020208 
L 39.589718 122.128924 
L 40.840402 131.102482 
L 42.091086 144.060371 
L 43.34177 148.309148 
L 44.592454 149.7019 
L 45.843138 142.632358 
L 47.093822 146.369872 
L 48.344506 154.620609 
L 49.59519 159.468798 
L 50.845874 150.177904 
L 52.096558 148.838041 
L 53.347242 156.348327 
L 54.597926 146.440391 
L 55.84861 152.981039 
L 57.099295 129.6921 
L 58.349979 141.098568 
L 59.600663 135.827263 
L 60.851347 129.480542 
L 62.102031 134.945774 
L 63.352715 132.283678 
L 64.603399 114.177893 
L 65.854083 126.941854 
L 67.104767 115.605906 
L 68.355451 124.949689 
L 69.606135 116.646063 
L 70.856819 112.291507 
L 72.107503 111.674465 
L 73.358187 112.591213 
L 74.608871 135.139702 
L 75.859555 188.98105 
L 77.110239 157.74108 
L 78.360923 108.130879 
L 79.611607 105.221965 
L 80.862291 130.696997 
L 82.112975 107.584356 
L 83.363659 105.962416 
L 84.614343 114.988863 
L 85.865027 122.834115 
L 87.115711 105.839007 
L 88.366395 112.220988 
L 89.617079 130.027066 
L 90.867763 124.173979 
L 92.118447 129.797879 
L 93.369131 166.221004 
L 94.619815 125.866438 
L 95.870499 133.799839 
L 97.121183 130.714627 
L 98.371867 134.311102 
L 99.622551 154.391422 
L 100.873235 115.411978 
L 102.123919 119.484457 
L 103.374603 152.046661 
L 104.625287 130.044695 
L 105.875971 146.898765 
L 107.126656 166.661749 
L 108.37734 161.408074 
L 109.628024 170.822377 
L 112.129392 187.905634 
L 113.380076 197.073119 
L 114.63076 199.171063 
L 115.881444 197.284677 
L 117.132128 196.332669 
L 118.382812 198.360093 
L 119.633496 201.269007 
L 120.88418 192.559896 
L 122.134864 186.213175 
L 123.385548 187.447259 
L 124.636232 197.267047 
L 125.886916 168.371837 
L 127.1376 162.818457 
L 128.388284 173.872329 
L 129.638968 164.95166 
L 130.889652 165.938928 
L 132.140336 168.107391 
L 133.39102 163.664686 
L 134.641704 158.128935 
L 135.892388 161.319925 
L 137.143072 156.630404 
L 138.393756 155.396319 
L 139.64444 177.556953 
L 140.895124 221.666662 
L 142.145808 202.168126 
L 143.396492 161.037849 
L 144.647176 158.393382 
L 145.89786 167.084863 
L 147.148544 150.424721 
L 148.399228 157.229816 
L 149.649912 153.174967 
L 150.900596 164.546175 
L 152.15128 164.316988 
L 153.401964 158.340492 
L 154.652648 168.019242 
L 155.903333 164.828252 
L 157.154017 172.338538 
L 158.404701 167.913463 
L 159.655385 182.140696 
L 160.906069 194.781248 
L 162.156753 209.607893 
L 163.407437 172.109351 
L 164.658121 185.913469 
L 165.908805 185.137758 
L 167.159489 190.56773 
L 168.410173 216.712694 
L 169.660857 196.597115 
L 170.911541 206.716609 
L 172.162225 214.244525 
L 173.412909 226.056478 
L 174.663593 230.569701 
L 175.914277 231.274893 
L 177.164961 237.88606 
L 178.415645 225.08684 
L 179.666329 219.233753 
L 180.917013 215.743056 
L 182.167697 214.244525 
L 183.418381 210.700939 
L 184.669065 216.695065 
L 185.919749 205.764601 
L 188.421117 205.641192 
L 189.671801 204.125031 
L 190.922485 206.61083 
L 192.173169 208.550106 
L 193.423853 204.777333 
L 194.674537 199.682327 
L 195.925221 197.81357 
L 197.175905 187.870374 
L 198.426589 193.79398 
L 199.677273 187.694076 
L 200.927957 198.571651 
L 202.178641 200.316999 
L 203.429325 196.932081 
L 204.68001 209.449225 
L 205.930694 244.550117 
L 207.181378 235.629448 
L 208.432062 187.094664 
L 209.682746 194.939916 
L 210.93343 204.21318 
L 212.184114 189.527573 
L 213.434798 188.258229 
L 214.685482 183.886044 
L 215.936166 205.218078 
L 217.18685 183.022185 
L 218.437534 182.651959 
L 219.688218 179.566748 
L 220.938902 189.421795 
L 222.189586 189.051569 
L 223.44027 199.294472 
L 224.690954 201.656862 
L 225.941638 181.893879 
L 228.443006 169.852739 
L 229.69369 177.486434 
L 230.944374 177.627472 
L 232.195058 167.261161 
L 233.445742 194.446282 
L 234.696426 171.457049 
L 235.94711 185.878209 
L 237.197794 182.264104 
L 238.448478 194.693099 
L 239.699162 197.513864 
L 240.949846 213.803781 
L 242.20053 182.986925 
L 243.451214 191.502109 
L 244.701898 184.573605 
L 245.952582 192.330708 
L 247.203266 196.843932 
L 248.45395 184.397307 
L 249.704634 175.38849 
L 250.955318 164.14069 
L 252.206002 173.78418 
L 253.456686 155.731285 
L 254.707371 159.750875 
L 255.958055 172.426687 
L 257.208739 169.570662 
L 258.459423 167.790055 
L 259.710107 155.748915 
L 260.960791 157.935008 
L 262.211475 165.921298 
L 263.462159 157.353225 
L 264.712843 176.076051 
L 265.963527 163.770465 
L 267.214211 164.105431 
L 268.464895 160.526585 
L 269.715579 178.121106 
L 270.966263 208.585366 
L 272.216947 219.727387 
L 273.467631 162.430601 
L 274.718315 150.777317 
L 275.968999 155.078983 
L 277.219683 147.603956 
L 278.470367 144.606894 
L 279.721051 153.104448 
L 280.971735 166.009447 
L 282.222419 147.586327 
L 283.473103 152.187699 
L 284.723787 144.501115 
L 285.974471 158.164195 
L 287.225155 162.677418 
L 288.475839 196.632375 
L 289.726523 162.060376 
L 290.977207 157.811599 
L 292.227891 167.842944 
L 293.478575 166.661749 
L 294.729259 167.437459 
L 295.979943 180.99476 
L 297.230627 165.339515 
L 298.481311 167.613757 
L 299.731995 180.800832 
L 300.982679 184.079971 
L 302.233363 195.539328 
L 303.484048 199.876254 
L 304.734732 205.359116 
L 305.985416 199.964403 
L 307.2361 198.183795 
L 308.486784 208.109362 
L 309.737468 203.314061 
L 310.988152 200.863522 
L 312.238836 197.654902 
L 313.48952 193.053529 
L 314.740204 178.54422 
L 315.990888 180.14853 
L 317.241572 185.296426 
L 318.492256 168.230799 
L 319.74294 171.703866 
L 320.993624 173.272916 
L 322.244308 176.93991 
L 323.494992 178.032957 
L 324.745676 167.649016 
L 325.99636 168.724433 
L 327.247044 178.279774 
L 328.497728 167.507978 
L 329.748412 170.646079 
L 330.999096 159.116203 
L 332.24978 158.375752 
L 333.500464 157.864488 
L 334.751148 163.770465 
L 336.001832 188.610825 
L 337.252516 265.370887 
L 338.5032 209.625523 
L 339.753884 146.863506 
L 341.004568 154.461941 
L 342.255252 153.210226 
L 343.505936 157.600042 
L 344.75662 160.244509 
L 346.007304 148.996709 
L 347.257988 159.680356 
L 348.508672 141.750869 
L 349.759356 142.103465 
L 351.01004 144.800821 
L 352.260725 151.517768 
L 353.511409 156.030991 
L 354.762093 163.699946 
L 356.012777 175.529528 
L 357.263461 188.487416 
L 358.514145 163.858614 
L 359.764829 160.879181 
L 361.015513 168.759692 
L 362.266197 181.347355 
L 363.516881 172.885061 
L 364.767565 197.919349 
L 366.018249 190.63825 
L 367.268933 191.308181 
L 368.519617 201.180858 
L 369.770301 207.139724 
L 371.020985 202.767538 
L 372.271669 197.972238 
L 373.522353 199.312101 
L 374.773037 192.383598 
L 376.023721 193.582423 
L 377.274405 201.533454 
L 378.525089 201.991828 
L 379.775773 195.310141 
L 381.026457 199.135804 
L 382.277141 190.814547 
L 383.527825 184.785163 
L 384.778509 186.706809 
L 386.029193 184.608865 
L 387.279877 178.367923 
L 388.530561 175.987902 
L 389.781245 174.841967 
L 391.031929 163.911503 
L 392.282613 170.610819 
L 393.533297 156.506995 
L 394.783981 166.767527 
L 396.034665 156.066251 
L 397.285349 160.544215 
L 398.536033 163.118163 
L 399.786717 169.74696 
L 401.037401 188.575565 
L 402.288086 237.321907 
L 403.53877 213.08096 
L 403.53877 213.08096 
" style="fill:none;stroke:#ffb5b8;stroke-linecap:square;stroke-width:1.5;"/>
   </g>
   <g id="patch_3">
    <path d="M 57.6 307.584 
L 57.6 41.472 
" style="fill:none;stroke:#ffffff;stroke-linecap:square;stroke-linejoin:miter;"/>
   </g>
   <g id="patch_4">
    <path d="M 414.72 307.584 
L 414.72 41.472 
" style="fill:none;stroke:#ffffff;stroke-linecap:square;stroke-linejoin:miter;"/>
   </g>
   <g id="patch_5">
    <path d="M 57.6 307.584 
L 414.72 307.584 
" style="fill:none;stroke:#ffffff;stroke-linecap:square;stroke-linejoin:miter;"/>
   </g>
   <g id="patch_6">
    <path d="M 57.6 41.472 
L 414.72 41.472 
" style="fill:none;stroke:#ffffff;stroke-linecap:square;stroke-linejoin:miter;"/>
   </g>
   <g id="text_16">
    <!-- Daily active English Wikipedia editors -->
    <defs>
     <path d="M 19.671875 64.796875 
L 19.671875 8.109375 
L 31.59375 8.109375 
Q 46.6875 8.109375 53.6875 14.9375 
Q 60.6875 21.78125 60.6875 36.53125 
Q 60.6875 51.171875 53.6875 57.984375 
Q 46.6875 64.796875 31.59375 64.796875 
z
M 9.8125 72.90625 
L 30.078125 72.90625 
Q 51.265625 72.90625 61.171875 64.09375 
Q 71.09375 55.28125 71.09375 36.53125 
Q 71.09375 17.671875 61.125 8.828125 
Q 51.171875 0 30.078125 0 
L 9.8125 0 
z
" id="DejaVuSans-44"/>
     <path d="M 9.421875 75.984375 
L 18.40625 75.984375 
L 18.40625 0 
L 9.421875 0 
z
" id="DejaVuSans-6c"/>
     <path d="M 32.171875 -5.078125 
Q 28.375 -14.84375 24.75 -17.8125 
Q 21.140625 -20.796875 15.09375 -20.796875 
L 7.90625 -20.796875 
L 7.90625 -13.28125 
L 13.1875 -13.28125 
Q 16.890625 -13.28125 18.9375 -11.515625 
Q 21 -9.765625 23.484375 -3.21875 
L 25.09375 0.875 
L 2.984375 54.6875 
L 12.5 54.6875 
L 29.59375 11.921875 
L 46.6875 54.6875 
L 56.203125 54.6875 
z
" id="DejaVuSans-79"/>
     <path id="DejaVuSans-20"/>
     <path d="M 48.78125 52.59375 
L 48.78125 44.1875 
Q 44.96875 46.296875 41.140625 47.34375 
Q 37.3125 48.390625 33.40625 48.390625 
Q 24.65625 48.390625 19.8125 42.84375 
Q 14.984375 37.3125 14.984375 27.296875 
Q 14.984375 17.28125 19.8125 11.734375 
Q 24.65625 6.203125 33.40625 6.203125 
Q 37.3125 6.203125 41.140625 7.25 
Q 44.96875 8.296875 48.78125 10.40625 
L 48.78125 2.09375 
Q 45.015625 0.34375 40.984375 -0.53125 
Q 36.96875 -1.421875 32.421875 -1.421875 
Q 20.0625 -1.421875 12.78125 6.34375 
Q 5.515625 14.109375 5.515625 27.296875 
Q 5.515625 40.671875 12.859375 48.328125 
Q 20.21875 56 33.015625 56 
Q 37.15625 56 41.109375 55.140625 
Q 45.0625 54.296875 48.78125 52.59375 
z
" id="DejaVuSans-63"/>
     <path d="M 2.984375 54.6875 
L 12.5 54.6875 
L 29.59375 8.796875 
L 46.6875 54.6875 
L 56.203125 54.6875 
L 35.6875 0 
L 23.484375 0 
z
" id="DejaVuSans-76"/>
     <path d="M 9.8125 72.90625 
L 55.90625 72.90625 
L 55.90625 64.59375 
L 19.671875 64.59375 
L 19.671875 43.015625 
L 54.390625 43.015625 
L 54.390625 34.71875 
L 19.671875 34.71875 
L 19.671875 8.296875 
L 56.78125 8.296875 
L 56.78125 0 
L 9.8125 0 
z
" id="DejaVuSans-45"/>
     <path d="M 54.890625 33.015625 
L 54.890625 0 
L 45.90625 0 
L 45.90625 32.71875 
Q 45.90625 40.484375 42.875 44.328125 
Q 39.84375 48.1875 33.796875 48.1875 
Q 26.515625 48.1875 22.3125 43.546875 
Q 18.109375 38.921875 18.109375 30.90625 
L 18.109375 0 
L 9.078125 0 
L 9.078125 54.6875 
L 18.109375 54.6875 
L 18.109375 46.1875 
Q 21.34375 51.125 25.703125 53.5625 
Q 30.078125 56 35.796875 56 
Q 45.21875 56 50.046875 50.171875 
Q 54.890625 44.34375 54.890625 33.015625 
z
" id="DejaVuSans-6e"/>
     <path d="M 45.40625 27.984375 
Q 45.40625 37.75 41.375 43.109375 
Q 37.359375 48.484375 30.078125 48.484375 
Q 22.859375 48.484375 18.828125 43.109375 
Q 14.796875 37.75 14.796875 27.984375 
Q 14.796875 18.265625 18.828125 12.890625 
Q 22.859375 7.515625 30.078125 7.515625 
Q 37.359375 7.515625 41.375 12.890625 
Q 45.40625 18.265625 45.40625 27.984375 
z
M 54.390625 6.78125 
Q 54.390625 -7.171875 48.1875 -13.984375 
Q 42 -20.796875 29.203125 -20.796875 
Q 24.46875 -20.796875 20.265625 -20.09375 
Q 16.0625 -19.390625 12.109375 -17.921875 
L 12.109375 -9.1875 
Q 16.0625 -11.328125 19.921875 -12.34375 
Q 23.78125 -13.375 27.78125 -13.375 
Q 36.625 -13.375 41.015625 -8.765625 
Q 45.40625 -4.15625 45.40625 5.171875 
L 45.40625 9.625 
Q 42.625 4.78125 38.28125 2.390625 
Q 33.9375 0 27.875 0 
Q 17.828125 0 11.671875 7.65625 
Q 5.515625 15.328125 5.515625 27.984375 
Q 5.515625 40.671875 11.671875 48.328125 
Q 17.828125 56 27.875 56 
Q 33.9375 56 38.28125 53.609375 
Q 42.625 51.21875 45.40625 46.390625 
L 45.40625 54.6875 
L 54.390625 54.6875 
z
" id="DejaVuSans-67"/>
     <path d="M 54.890625 33.015625 
L 54.890625 0 
L 45.90625 0 
L 45.90625 32.71875 
Q 45.90625 40.484375 42.875 44.328125 
Q 39.84375 48.1875 33.796875 48.1875 
Q 26.515625 48.1875 22.3125 43.546875 
Q 18.109375 38.921875 18.109375 30.90625 
L 18.109375 0 
L 9.078125 0 
L 9.078125 75.984375 
L 18.109375 75.984375 
L 18.109375 46.1875 
Q 21.34375 51.125 25.703125 53.5625 
Q 30.078125 56 35.796875 56 
Q 45.21875 56 50.046875 50.171875 
Q 54.890625 44.34375 54.890625 33.015625 
z
" id="DejaVuSans-68"/>
     <path d="M 3.328125 72.90625 
L 13.28125 72.90625 
L 28.609375 11.28125 
L 43.890625 72.90625 
L 54.984375 72.90625 
L 70.3125 11.28125 
L 85.59375 72.90625 
L 95.609375 72.90625 
L 77.296875 0 
L 64.890625 0 
L 49.515625 63.28125 
L 33.984375 0 
L 21.578125 0 
z
" id="DejaVuSans-57"/>
     <path d="M 9.078125 75.984375 
L 18.109375 75.984375 
L 18.109375 31.109375 
L 44.921875 54.6875 
L 56.390625 54.6875 
L 27.390625 29.109375 
L 57.625 0 
L 45.90625 0 
L 18.109375 26.703125 
L 18.109375 0 
L 9.078125 0 
z
" id="DejaVuSans-6b"/>
     <path d="M 18.109375 8.203125 
L 18.109375 -20.796875 
L 9.078125 -20.796875 
L 9.078125 54.6875 
L 18.109375 54.6875 
L 18.109375 46.390625 
Q 20.953125 51.265625 25.265625 53.625 
Q 29.59375 56 35.59375 56 
Q 45.5625 56 51.78125 48.09375 
Q 58.015625 40.1875 58.015625 27.296875 
Q 58.015625 14.40625 51.78125 6.484375 
Q 45.5625 -1.421875 35.59375 -1.421875 
Q 29.59375 -1.421875 25.265625 0.953125 
Q 20.953125 3.328125 18.109375 8.203125 
z
M 48.6875 27.296875 
Q 48.6875 37.203125 44.609375 42.84375 
Q 40.53125 48.484375 33.40625 48.484375 
Q 26.265625 48.484375 22.1875 42.84375 
Q 18.109375 37.203125 18.109375 27.296875 
Q 18.109375 17.390625 22.1875 11.75 
Q 26.265625 6.109375 33.40625 6.109375 
Q 40.53125 6.109375 44.609375 11.75 
Q 48.6875 17.390625 48.6875 27.296875 
z
" id="DejaVuSans-70"/>
    </defs>
    <g transform="translate(100.69425 35.472)scale(0.144 -0.144)">
     <use xlink:href="#DejaVuSans-44"/>
     <use x="77.001953" xlink:href="#DejaVuSans-61"/>
     <use x="138.28125" xlink:href="#DejaVuSans-69"/>
     <use x="166.064453" xlink:href="#DejaVuSans-6c"/>
     <use x="193.847656" xlink:href="#DejaVuSans-79"/>
     <use x="253.027344" xlink:href="#DejaVuSans-20"/>
     <use x="284.814453" xlink:href="#DejaVuSans-61"/>
     <use x="346.09375" xlink:href="#DejaVuSans-63"/>
     <use x="401.074219" xlink:href="#DejaVuSans-74"/>
     <use x="440.283203" xlink:href="#DejaVuSans-69"/>
     <use x="468.066406" xlink:href="#DejaVuSans-76"/>
     <use x="527.246094" xlink:href="#DejaVuSans-65"/>
     <use x="588.769531" xlink:href="#DejaVuSans-20"/>
     <use x="620.556641" xlink:href="#DejaVuSans-45"/>
     <use x="683.740234" xlink:href="#DejaVuSans-6e"/>
     <use x="747.119141" xlink:href="#DejaVuSans-67"/>
     <use x="810.595703" xlink:href="#DejaVuSans-6c"/>
     <use x="838.378906" xlink:href="#DejaVuSans-69"/>
     <use x="866.162109" xlink:href="#DejaVuSans-73"/>
     <use x="918.261719" xlink:href="#DejaVuSans-68"/>
     <use x="981.640625" xlink:href="#DejaVuSans-20"/>
     <use x="1013.427734" xlink:href="#DejaVuSans-57"/>
     <use x="1112.273438" xlink:href="#DejaVuSans-69"/>
     <use x="1140.056641" xlink:href="#DejaVuSans-6b"/>
     <use x="1197.966797" xlink:href="#DejaVuSans-69"/>
     <use x="1225.75" xlink:href="#DejaVuSans-70"/>
     <use x="1289.226562" xlink:href="#DejaVuSans-65"/>
     <use x="1350.75" xlink:href="#DejaVuSans-64"/>
     <use x="1414.226562" xlink:href="#DejaVuSans-69"/>
     <use x="1442.009766" xlink:href="#DejaVuSans-61"/>
     <use x="1503.289062" xlink:href="#DejaVuSans-20"/>
     <use x="1535.076172" xlink:href="#DejaVuSans-65"/>
     <use x="1596.599609" xlink:href="#DejaVuSans-64"/>
     <use x="1660.076172" xlink:href="#DejaVuSans-69"/>
     <use x="1687.859375" xlink:href="#DejaVuSans-74"/>
     <use x="1727.068359" xlink:href="#DejaVuSans-6f"/>
     <use x="1788.25" xlink:href="#DejaVuSans-72"/>
     <use x="1829.363281" xlink:href="#DejaVuSans-73"/>
    </g>
   </g>
   <g id="legend_1">
    <g id="patch_7">
     <path d="M 64.6 302.584 
L 155.076562 302.584 
Q 157.076562 302.584 157.076562 300.584 
L 157.076562 198.837125 
Q 157.076562 196.837125 155.076562 196.837125 
L 64.6 196.837125 
Q 62.6 196.837125 62.6 198.837125 
L 62.6 300.584 
Q 62.6 302.584 64.6 302.584 
z
" style="fill:#e5e5e5;opacity:0.8;stroke:#cccccc;stroke-linejoin:miter;stroke-width:0.5;"/>
    </g>
    <g id="line2d_34">
     <path d="M 66.6 204.935563 
L 86.6 204.935563 
" style="fill:none;stroke:#e24a33;stroke-linecap:square;stroke-width:1.5;"/>
    </g>
    <g id="line2d_35"/>
    <g id="text_17">
     <!-- Monday -->
     <defs>
      <path d="M 9.8125 72.90625 
L 24.515625 72.90625 
L 43.109375 23.296875 
L 61.8125 72.90625 
L 76.515625 72.90625 
L 76.515625 0 
L 66.890625 0 
L 66.890625 64.015625 
L 48.09375 14.015625 
L 38.1875 14.015625 
L 19.390625 64.015625 
L 19.390625 0 
L 9.8125 0 
z
" id="DejaVuSans-4d"/>
     </defs>
     <g transform="translate(94.6 208.435563)scale(0.1 -0.1)">
      <use xlink:href="#DejaVuSans-4d"/>
      <use x="86.279297" xlink:href="#DejaVuSans-6f"/>
      <use x="147.460938" xlink:href="#DejaVuSans-6e"/>
      <use x="210.839844" xlink:href="#DejaVuSans-64"/>
      <use x="274.316406" xlink:href="#DejaVuSans-61"/>
      <use x="335.595703" xlink:href="#DejaVuSans-79"/>
     </g>
    </g>
    <g id="line2d_36">
     <path d="M 66.6 219.613688 
L 86.6 219.613688 
" style="fill:none;stroke:#348abd;stroke-linecap:square;stroke-width:1.5;"/>
    </g>
    <g id="line2d_37"/>
    <g id="text_18">
     <!-- Tuesday -->
     <defs>
      <path d="M -0.296875 72.90625 
L 61.375 72.90625 
L 61.375 64.59375 
L 35.5 64.59375 
L 35.5 0 
L 25.59375 0 
L 25.59375 64.59375 
L -0.296875 64.59375 
z
" id="DejaVuSans-54"/>
      <path d="M 8.5 21.578125 
L 8.5 54.6875 
L 17.484375 54.6875 
L 17.484375 21.921875 
Q 17.484375 14.15625 20.5 10.265625 
Q 23.53125 6.390625 29.59375 6.390625 
Q 36.859375 6.390625 41.078125 11.03125 
Q 45.3125 15.671875 45.3125 23.6875 
L 45.3125 54.6875 
L 54.296875 54.6875 
L 54.296875 0 
L 45.3125 0 
L 45.3125 8.40625 
Q 42.046875 3.421875 37.71875 1 
Q 33.40625 -1.421875 27.6875 -1.421875 
Q 18.265625 -1.421875 13.375 4.4375 
Q 8.5 10.296875 8.5 21.578125 
z
M 31.109375 56 
z
" id="DejaVuSans-75"/>
     </defs>
     <g transform="translate(94.6 223.113688)scale(0.1 -0.1)">
      <use xlink:href="#DejaVuSans-54"/>
      <use x="60.849609" xlink:href="#DejaVuSans-75"/>
      <use x="124.228516" xlink:href="#DejaVuSans-65"/>
      <use x="185.751953" xlink:href="#DejaVuSans-73"/>
      <use x="237.851562" xlink:href="#DejaVuSans-64"/>
      <use x="301.328125" xlink:href="#DejaVuSans-61"/>
      <use x="362.607422" xlink:href="#DejaVuSans-79"/>
     </g>
    </g>
    <g id="line2d_38">
     <path d="M 66.6 234.291812 
L 86.6 234.291812 
" style="fill:none;stroke:#988ed5;stroke-linecap:square;stroke-width:1.5;"/>
    </g>
    <g id="line2d_39"/>
    <g id="text_19">
     <!-- Wednesday -->
     <g transform="translate(94.6 237.791812)scale(0.1 -0.1)">
      <use xlink:href="#DejaVuSans-57"/>
      <use x="98.798828" xlink:href="#DejaVuSans-65"/>
      <use x="160.322266" xlink:href="#DejaVuSans-64"/>
      <use x="223.798828" xlink:href="#DejaVuSans-6e"/>
      <use x="287.177734" xlink:href="#DejaVuSans-65"/>
      <use x="348.701172" xlink:href="#DejaVuSans-73"/>
      <use x="400.800781" xlink:href="#DejaVuSans-64"/>
      <use x="464.277344" xlink:href="#DejaVuSans-61"/>
      <use x="525.556641" xlink:href="#DejaVuSans-79"/>
     </g>
    </g>
    <g id="line2d_40">
     <path d="M 66.6 248.969938 
L 86.6 248.969938 
" style="fill:none;stroke:#777777;stroke-linecap:square;stroke-width:1.5;"/>
    </g>
    <g id="line2d_41"/>
    <g id="text_20">
     <!-- Thursday -->
     <g transform="translate(94.6 252.469938)scale(0.1 -0.1)">
      <use xlink:href="#DejaVuSans-54"/>
      <use x="61.083984" xlink:href="#DejaVuSans-68"/>
      <use x="124.462891" xlink:href="#DejaVuSans-75"/>
      <use x="187.841797" xlink:href="#DejaVuSans-72"/>
      <use x="228.955078" xlink:href="#DejaVuSans-73"/>
      <use x="281.054688" xlink:href="#DejaVuSans-64"/>
      <use x="344.53125" xlink:href="#DejaVuSans-61"/>
      <use x="405.810547" xlink:href="#DejaVuSans-79"/>
     </g>
    </g>
    <g id="line2d_42">
     <path d="M 66.6 263.648063 
L 86.6 263.648063 
" style="fill:none;stroke:#fbc15e;stroke-linecap:square;stroke-width:1.5;"/>
    </g>
    <g id="line2d_43"/>
    <g id="text_21">
     <!-- Friday -->
     <defs>
      <path d="M 9.8125 72.90625 
L 51.703125 72.90625 
L 51.703125 64.59375 
L 19.671875 64.59375 
L 19.671875 43.109375 
L 48.578125 43.109375 
L 48.578125 34.8125 
L 19.671875 34.8125 
L 19.671875 0 
L 9.8125 0 
z
" id="DejaVuSans-46"/>
     </defs>
     <g transform="translate(94.6 267.148063)scale(0.1 -0.1)">
      <use xlink:href="#DejaVuSans-46"/>
      <use x="57.410156" xlink:href="#DejaVuSans-72"/>
      <use x="98.523438" xlink:href="#DejaVuSans-69"/>
      <use x="126.306641" xlink:href="#DejaVuSans-64"/>
      <use x="189.783203" xlink:href="#DejaVuSans-61"/>
      <use x="251.0625" xlink:href="#DejaVuSans-79"/>
     </g>
    </g>
    <g id="line2d_44">
     <path d="M 66.6 278.326188 
L 86.6 278.326188 
" style="fill:none;stroke:#8eba42;stroke-linecap:square;stroke-width:1.5;"/>
    </g>
    <g id="line2d_45"/>
    <g id="text_22">
     <!-- Saturday -->
     <defs>
      <path d="M 53.515625 70.515625 
L 53.515625 60.890625 
Q 47.90625 63.578125 42.921875 64.890625 
Q 37.9375 66.21875 33.296875 66.21875 
Q 25.25 66.21875 20.875 63.09375 
Q 16.5 59.96875 16.5 54.203125 
Q 16.5 49.359375 19.40625 46.890625 
Q 22.3125 44.4375 30.421875 42.921875 
L 36.375 41.703125 
Q 47.40625 39.59375 52.65625 34.296875 
Q 57.90625 29 57.90625 20.125 
Q 57.90625 9.515625 50.796875 4.046875 
Q 43.703125 -1.421875 29.984375 -1.421875 
Q 24.8125 -1.421875 18.96875 -0.25 
Q 13.140625 0.921875 6.890625 3.21875 
L 6.890625 13.375 
Q 12.890625 10.015625 18.65625 8.296875 
Q 24.421875 6.59375 29.984375 6.59375 
Q 38.421875 6.59375 43.015625 9.90625 
Q 47.609375 13.234375 47.609375 19.390625 
Q 47.609375 24.75 44.3125 27.78125 
Q 41.015625 30.8125 33.5 32.328125 
L 27.484375 33.5 
Q 16.453125 35.6875 11.515625 40.375 
Q 6.59375 45.0625 6.59375 53.421875 
Q 6.59375 63.09375 13.40625 68.65625 
Q 20.21875 74.21875 32.171875 74.21875 
Q 37.3125 74.21875 42.625 73.28125 
Q 47.953125 72.359375 53.515625 70.515625 
z
" id="DejaVuSans-53"/>
     </defs>
     <g transform="translate(94.6 281.826188)scale(0.1 -0.1)">
      <use xlink:href="#DejaVuSans-53"/>
      <use x="63.476562" xlink:href="#DejaVuSans-61"/>
      <use x="124.755859" xlink:href="#DejaVuSans-74"/>
      <use x="163.964844" xlink:href="#DejaVuSans-75"/>
      <use x="227.34375" xlink:href="#DejaVuSans-72"/>
      <use x="268.441406" xlink:href="#DejaVuSans-64"/>
      <use x="331.917969" xlink:href="#DejaVuSans-61"/>
      <use x="393.197266" xlink:href="#DejaVuSans-79"/>
     </g>
    </g>
    <g id="line2d_46">
     <path d="M 66.6 293.004312 
L 86.6 293.004312 
" style="fill:none;stroke:#ffb5b8;stroke-linecap:square;stroke-width:1.5;"/>
    </g>
    <g id="line2d_47"/>
    <g id="text_23">
     <!-- Sunday -->
     <g transform="translate(94.6 296.504312)scale(0.1 -0.1)">
      <use xlink:href="#DejaVuSans-53"/>
      <use x="63.476562" xlink:href="#DejaVuSans-75"/>
      <use x="126.855469" xlink:href="#DejaVuSans-6e"/>
      <use x="190.234375" xlink:href="#DejaVuSans-64"/>
      <use x="253.710938" xlink:href="#DejaVuSans-61"/>
      <use x="314.990234" xlink:href="#DejaVuSans-79"/>
     </g>
    </g>
   </g>
  </g>
 </g>
 <defs>
  <clipPath id="p1372a18dce">
   <rect height="266.112" width="357.12" x="57.6" y="41.472"/>
  </clipPath>
 </defs>
</svg>
